<svg width="76" height="72" viewBox="0 0 76 72" fill="none" xmlns="http://www.w3.org/2000/svg">
<path d="M11.1465 61.4711C18.3229 68.2614 27.859 71.9943 37.9993 71.9943C48.1396 71.9943 57.6785 68.2557 64.8535 61.4711C72.0286 54.6865 76 45.6252 76 36.0007C76 26.3762 72.0415 17.3291 64.8535 10.5232C57.6656 3.71725 48.141 0 37.9993 0C27.8575 0 18.3215 3.73858 11.1465 10.5232C3.97145 17.3078 0 26.3748 0 36.0007C0 45.6266 3.95853 54.6708 11.1465 61.4711ZM37.9993 1.99088C57.8422 1.99088 73.9906 17.2467 73.9906 36.0007C73.9906 54.7548 57.8422 70.0091 37.9993 70.0091C18.1564 70.0091 2.0094 54.7491 2.0094 36.0007C2.0094 17.2524 18.155 1.99088 37.9993 1.99088Z" fill="#B8B8B8" stroke="#FAF5F0" stroke-width="0.5"/>
<path d="M15.9678 51.7314L16.1242 51.9092C18.784 55.1091 22.538 57.229 26.6723 57.8659C30.8066 58.5027 35.0329 57.6121 38.5477 55.3633L38.5851 55.3391L38.6109 55.3178L38.6453 55.2951C43.3642 51.9731 47.038 47.396 49.2421 42.0927C49.292 41.9713 49.3174 41.8414 49.3166 41.7103C49.3159 41.5792 49.2891 41.4496 49.2378 41.3287C49.1865 41.2079 49.1116 41.0983 49.0176 41.0061C48.9235 40.9139 48.812 40.841 48.6895 40.7915C48.567 40.7421 48.4358 40.717 48.3035 40.7177C48.1712 40.7184 48.0404 40.745 47.9184 40.7958C47.7965 40.8466 47.6858 40.9208 47.5928 41.014C47.4997 41.1072 47.4262 41.2176 47.3762 41.339C45.409 46.0791 42.1813 50.2019 38.0368 53.2686C33.9129 50.1969 30.705 46.0766 28.7533 41.3447C28.6525 41.0996 28.4574 40.9042 28.2111 40.8015C27.9648 40.6988 27.6875 40.6973 27.44 40.7972C27.1926 40.8972 26.9954 41.0904 26.8918 41.3344C26.7881 41.5784 26.7866 41.8533 26.8875 42.0984C28.8775 46.9247 32.0909 51.1606 36.2168 54.3963C33.1563 55.9722 29.6421 56.4583 26.263 55.773C22.8839 55.0877 19.8451 53.2728 17.6557 50.6322C17.6486 50.6245 17.6418 50.6164 17.6356 50.608L17.4921 50.4373C14.1134 46.2081 12.325 41.1769 12.325 35.8855C12.325 22.5182 23.8389 11.6423 37.9923 11.6423C52.1457 11.6423 63.661 22.5182 63.661 35.8855C63.661 45.6692 57.4893 54.4433 47.9388 58.2387C47.8163 58.2874 47.7047 58.3594 47.6103 58.4508C47.5159 58.5422 47.4406 58.6512 47.3887 58.7714C47.2838 59.0142 47.2806 59.2883 47.3798 59.5335C47.479 59.7786 47.6724 59.9747 47.9174 60.0786C48.1625 60.1825 48.4392 60.1856 48.6866 60.0874C59.0035 55.9876 65.6704 46.4883 65.6704 35.8869C65.6704 21.4218 53.2537 9.65283 37.9923 9.65283C22.7309 9.65283 10.3242 21.4203 10.3242 35.8855C10.3242 41.6377 12.2647 47.104 15.9362 51.693L15.9678 51.7314Z" fill="#B8B8B8" stroke="#FAF5F0" stroke-width="0.5"/>
</svg>
