<svg width="78" height="61" viewBox="0 0 78 61" fill="none" xmlns="http://www.w3.org/2000/svg">
<path d="M5.78934 46.8258L5.6651 46.7137L0.695312 51.4819L1.15501 52.0297C4.50962 55.9264 10.5479 58.8396 17.7168 60.0223H17.8038L24.426 53.3867H24.0284C16.8223 53.2 10.0261 50.7474 5.83904 46.8382M51.4741 25.9353L76.323 1.27265H66.4953L36.5896 30.7409C33.0124 29.0931 29.3056 27.744 25.507 26.7072C17.6423 24.3169 10.8461 22.2627 10.8461 16.4985C10.8461 11.3568 16.0395 8.04524 24.0782 8.04524C28.7213 8.10116 33.29 9.22117 37.4344 11.3195L37.5587 11.3817L42.6651 6.26495L42.5036 6.14045C37.7451 2.67946 29.8058 0.861816 24.426 0.861816C11.0946 0.861816 2.80747 6.77538 2.80747 16.2993C2.80747 27.118 13.3931 30.4047 22.6866 33.3055C28.7746 35.1978 34.5147 37.0404 36.8629 40.5512L36.9748 40.7254L45.6719 32.0979L67.4644 59.238L67.5762 59.375H77.3915L51.4741 25.9353Z" fill="#896E4B"/>
</svg>
