<svg width="137" height="125" viewBox="0 0 137 125" fill="none" xmlns="http://www.w3.org/2000/svg">
<path d="M111.213 1.59413L110.886 1.35915L110.587 1.62793C85.9158 23.776 73.6028 54.557 73.6028 93.9031C73.6028 111.956 88.8103 124.5 105.585 124.5C122.94 124.5 136.5 110.837 136.5 93.3656C136.5 75.9061 122.951 61.6939 105.585 61.6939C100.446 61.6939 95.3231 63.1614 91.1255 65.1633C90.7823 47.0886 96.6646 32.1415 102.684 21.6643C105.736 16.3514 108.821 12.1921 111.141 9.36264C112.301 7.94809 113.269 6.86644 113.946 6.13973C114.285 5.7764 114.551 5.50184 114.731 5.31881C114.821 5.2273 114.89 5.15868 114.936 5.11329L114.987 5.06267L115 5.05051L115.003 5.04774L115.003 5.04716L115.434 4.63127L114.948 4.28138L111.213 1.59413ZM38.1102 1.59413L37.7836 1.35915L37.4842 1.62793C12.813 23.776 0.5 54.557 0.5 93.9031C0.5 111.956 15.7075 124.5 32.4822 124.5C49.8254 124.5 63.9308 110.848 63.9308 93.3656C63.9308 75.8947 49.8368 61.6939 32.4822 61.6939C27.3433 61.6939 22.2203 63.1614 18.0227 65.1633C17.6795 47.0886 23.5619 32.1415 29.5808 21.6643C32.6329 16.3514 35.7178 12.1921 38.0381 9.36264C39.198 7.94809 40.1665 6.86644 40.8436 6.13973C41.1822 5.7764 41.4478 5.50184 41.6282 5.31881C41.7183 5.2273 41.7871 5.15868 41.833 5.11329L41.8845 5.06267L41.897 5.05051L41.8998 5.04774L41.9004 5.04717L41.5534 4.68725L41.9004 5.04716L42.3317 4.63127L41.8454 4.28138L38.1102 1.59413Z" stroke="#886A44"/>
</svg>
