<svg width="66" height="66" viewBox="0 0 66 66" fill="none" xmlns="http://www.w3.org/2000/svg">
<g clip-path="url(#clip0_939_5879)">
<path d="M59.3544 37.8747L59.3546 37.8733C59.374 37.7763 59.3738 37.6764 59.3542 37.5794C59.3345 37.4824 59.2958 37.3903 59.2403 37.3084C59.1848 37.2265 59.1135 37.1565 59.0307 37.1024C58.9478 37.0483 58.8551 37.0112 58.7577 36.9933C58.6604 36.9753 58.5605 36.9769 58.4639 36.9979C58.3672 37.0189 58.2756 37.059 58.1945 37.1157C58.1135 37.1724 58.0445 37.2446 57.9915 37.3282C57.9386 37.4118 57.9029 37.5051 57.8863 37.6027L57.8861 37.6041C57.4152 40.1568 56.5552 42.622 55.3362 44.9137L55.2876 45.0051L55.198 44.9534L52.7922 43.5671C52.7075 43.5183 52.614 43.4867 52.517 43.474C52.42 43.4613 52.3215 43.4679 52.2271 43.4933C52.1326 43.5187 52.0441 43.5625 51.9666 43.6221C51.8891 43.6817 51.8241 43.756 51.7753 43.8408C51.7265 43.9255 51.6948 44.019 51.6822 44.116C51.6695 44.213 51.6761 44.3115 51.7015 44.4059C51.7269 44.5004 51.7707 44.5889 51.8303 44.6664C51.8899 44.7439 51.9642 44.8089 52.049 44.8577L52.0491 44.8578L54.4478 46.2441L54.5374 46.2959L54.4826 46.3836C52.4352 49.6653 49.6649 52.4356 46.3832 54.483L46.2954 54.5378L46.2437 54.4481L44.8587 52.0481C44.7546 51.8884 44.5933 51.7745 44.4078 51.7299C44.2216 51.6851 44.0253 51.7136 43.8594 51.8095C43.6936 51.9054 43.571 52.0614 43.5169 52.2451C43.4631 52.4281 43.4814 52.6248 43.568 52.7947L44.953 55.1948L45.0046 55.2842L44.9136 55.3329C41.5072 57.155 37.7283 58.1716 33.8675 58.3043L33.764 58.3078V58.2043V55.4317C33.764 55.2337 33.6854 55.0438 33.5454 54.9038C33.4054 54.7638 33.2154 54.6851 33.0174 54.6851C32.8194 54.6851 32.6295 54.7638 32.4895 54.9038C32.3495 55.0438 32.2708 55.2337 32.2708 55.4317V58.2043V58.3076L32.1676 58.3043C28.3019 58.18 24.5169 57.1655 21.1072 55.34L21.0162 55.2913L21.0677 55.2019L22.4505 52.8031L22.4505 52.8031C22.5496 52.6315 22.5763 52.4276 22.525 52.2362C22.4736 52.0448 22.3484 51.8817 22.1768 51.7827C22.0051 51.6837 21.8012 51.6569 21.6098 51.7082C21.4185 51.7596 21.2554 51.8848 21.1564 52.0564L59.3544 37.8747ZM59.3544 37.8747C58.4667 42.6783 56.2832 47.148 53.0398 50.8008C49.7964 54.4536 45.6164 57.1506 40.9516 58.6004C36.2867 60.0502 31.3144 60.1977 26.5718 59.0269C21.8293 57.8561 17.4968 55.4115 14.0426 51.9573C10.5885 48.5032 8.14389 44.1707 6.97308 39.4282C5.80227 34.6856 5.94973 29.7133 7.39954 25.0484C8.84935 20.3836 11.5464 16.2036 15.1992 12.9602C18.852 9.71682 23.3217 7.53329 28.1253 6.64559C28.3195 6.60972 28.5201 6.65247 28.6828 6.76445C28.8455 6.87643 28.9571 7.04846 28.993 7.24271C29.0288 7.43695 28.9861 7.63749 28.8741 7.80021C28.7621 7.96294 28.5901 8.07451 28.3959 8.11039C25.8428 8.58188 23.3775 9.44308 21.0862 10.6638L20.9949 10.7125L21.0466 10.8021L22.4329 13.2043L22.4329 13.2043C22.482 13.2893 22.5139 13.3831 22.5267 13.4804C22.5395 13.5776 22.533 13.6765 22.5075 13.7713C22.4821 13.866 22.4383 13.9548 22.3785 14.0326C22.3187 14.1105 22.2442 14.1757 22.1592 14.2247L22.1589 14.2248C22.0457 14.2905 21.9171 14.3248 21.7862 14.3242L21.7857 14.3242M59.3544 37.8747L21.7857 14.3242M21.7857 14.3242C21.6546 14.3243 21.5257 14.2899 21.4122 14.2243C21.2986 14.1588 21.2043 14.0645 21.1387 13.951L21.7857 14.3242ZM19.7771 54.4516L21.1563 52.0564L21.1387 13.9509L19.7559 11.5523L19.7042 11.4625L19.6163 11.5174C16.3315 13.5668 13.5606 16.3426 11.5169 19.631L11.4623 19.7188L11.5519 19.7704L13.9506 21.1532L13.9506 21.1532C14.0356 21.2022 14.1102 21.2674 14.1699 21.3452C14.2297 21.4231 14.2736 21.5119 14.299 21.6066C14.3244 21.7014 14.3309 21.8002 14.3181 21.8975C14.3053 21.9948 14.2735 22.0886 14.2244 22.1736L14.2241 22.174C14.1754 22.2592 14.1104 22.3341 14.0327 22.3942C13.955 22.4542 13.8662 22.4984 13.7714 22.5241C13.6766 22.5498 13.5777 22.5566 13.4803 22.544C13.3829 22.5315 13.2889 22.4998 13.2038 22.4508L10.8053 21.0646L10.7158 21.0129L10.667 21.1041C8.84273 24.5156 7.82843 28.3013 7.70274 32.168L7.69938 32.2712H7.80269H10.5824C10.7804 32.2712 10.9703 32.3499 11.1103 32.4899C11.2503 32.6299 11.329 32.8198 11.329 33.0178C11.329 33.2158 11.2503 33.4057 11.1103 33.5457C10.9703 33.6858 10.7804 33.7644 10.5824 33.7644H7.80621H7.70281L7.70627 33.8678C7.83562 37.7327 8.85618 41.5156 10.6883 44.9212L10.7371 45.0119L10.8264 44.9604L13.2216 43.5776L13.2216 43.5777L13.2259 43.575C13.3109 43.52 13.4061 43.4829 13.5058 43.4659C13.6056 43.4488 13.7077 43.4523 13.8061 43.4759C13.9045 43.4996 13.997 43.543 14.0781 43.6035L14.1353 43.5269L14.0781 43.6035C14.1592 43.6641 14.2271 43.7405 14.2778 43.8281C14.3285 43.9156 14.3608 44.0126 14.3728 44.1131C14.3848 44.2136 14.3763 44.3154 14.3478 44.4125C14.3192 44.5096 14.2712 44.5998 14.2067 44.6778C14.1422 44.7557 14.0625 44.8198 13.9725 44.866L13.9725 44.8659L13.9681 44.8684L11.5765 46.2512L11.4868 46.303L11.5417 46.3908C13.5917 49.6681 16.3601 52.4365 19.6374 54.4864L19.7253 54.5414L19.7771 54.4516ZM28.7395 6.68207C28.5549 6.55506 28.3274 6.50656 28.1071 6.54726L21.2198 10.7021L21.2216 10.7052C23.4788 9.51409 25.9039 8.6723 28.414 8.20872C28.6343 8.16803 28.8295 8.04147 28.9565 7.8569C29.0835 7.67234 29.132 7.44487 29.0913 7.22454C29.0506 7.00422 28.9241 6.80909 28.7395 6.68207Z" fill="#C0B3A8" stroke="#FAF5F0" stroke-width="0.2"/>
<path d="M64.9139 37.0004L64.9134 37.0004C64.7188 36.9709 64.5205 37.0198 64.3619 37.1364C64.2035 37.2529 64.0977 37.4275 64.0677 37.6218C64.0677 37.622 64.0677 37.6221 64.0677 37.6222L63.9688 37.607C61.7324 52.8318 48.4054 64.3068 33.0007 64.3068C24.7005 64.2975 16.7429 60.9961 10.8738 55.127C5.00462 49.2578 1.70323 41.3002 1.6939 33L64.9139 37.0004ZM64.9139 37.0004C65.0108 37.0145 65.104 37.0476 65.188 37.0977C65.272 37.1479 65.3454 37.2142 65.4037 37.2928C65.4621 37.3713 65.5043 37.4607 65.5281 37.5556C65.5518 37.6506 65.5565 37.7493 65.542 37.8461L65.542 37.8462C64.6431 43.8725 62.0884 49.5308 58.1627 54.1904C54.2369 58.8501 49.0943 62.3281 43.3081 64.2367C37.5218 66.1454 31.3191 66.4097 25.3915 65.0003C19.4638 63.5909 14.0439 60.563 9.73596 56.2542C5.428 51.9455 2.40118 46.5251 0.992865 40.5971C-0.415454 34.6691 -0.149949 28.4666 1.75979 22.6806C3.66953 16.8947 7.14847 11.7528 11.8089 7.8279C16.4693 3.90303 22.128 1.34942 28.1545 0.451688L28.1398 0.35278L64.9139 37.0004Z" stroke="#FAF5F0" stroke-width="0.2"/>
<path d="M33.0005 0.100007L33.0008 0.100007C41.7233 0.110246 50.0856 3.57979 56.2534 9.74754C62.421 15.9152 65.8906 24.2773 65.9009 32.9997C65.9001 33.1975 65.8211 33.387 65.6812 33.5269C65.5413 33.6668 65.3518 33.7458 65.1539 33.7466H40.5675C40.3694 33.7466 40.1795 33.6679 40.0395 33.5279C39.8995 33.3879 39.8208 33.198 39.8208 33C39.8208 32.802 39.8995 32.6121 40.0395 32.4721C40.1795 32.3321 40.3694 32.2534 40.5675 32.2534H64.2971H64.4L64.3971 32.1506C64.169 24.1212 60.8774 16.4833 55.1975 10.8034C49.5176 5.1235 41.8797 1.83197 33.8504 1.60384L33.7475 1.60092V1.7038V25.444C33.7475 25.6421 33.6689 25.832 33.5288 25.972C33.3888 26.112 33.1989 26.1907 33.0009 26.1907C32.8029 26.1907 32.613 26.112 32.473 25.972C32.333 25.832 32.2543 25.6421 32.2543 25.444L32.2543 0.846613L32.2543 0.846194C32.2539 0.748088 32.2729 0.650872 32.3103 0.560154C32.3476 0.469437 32.4026 0.387014 32.4719 0.317643C32.5413 0.248271 32.6237 0.193323 32.7145 0.155969C32.8052 0.118615 32.9024 0.0995952 33.0005 0.100007Z" fill="#A3784E" stroke="#FAF5F0" stroke-width="0.2"/>
<path d="M30.9798 32.9969C30.9763 32.9334 30.9763 32.8698 30.9798 32.8064L21.3779 27.2576C21.2758 27.2052 21.1855 27.1326 21.1123 27.0442C21.0392 26.9558 20.9848 26.8534 20.9524 26.7433C20.92 26.6333 20.9103 26.5178 20.924 26.4038C20.9376 26.2899 20.9743 26.1799 21.0317 26.0806C21.0891 25.9813 21.1662 25.8947 21.2581 25.826C21.3501 25.7574 21.455 25.7082 21.5666 25.6813C21.6781 25.6545 21.794 25.6506 21.9071 25.6699C22.0202 25.6892 22.1282 25.7313 22.2245 25.7937L31.8264 31.346C32.169 31.1006 32.5797 30.9686 33.0011 30.9685M30.9798 32.9969L33.0011 31.0685C33.23 31.0685 33.457 31.1105 33.6708 31.1924L33.7314 31.2156L33.7773 31.1698L46.1906 18.767L46.1908 18.7669C46.2601 18.6973 46.3426 18.642 46.4333 18.6043C46.5241 18.5667 46.6214 18.5473 46.7196 18.5473C46.8179 18.5473 46.9152 18.5667 47.0059 18.6043C47.0966 18.642 47.1789 18.6971 47.2482 18.7666C47.3835 18.9051 47.4601 19.0905 47.4618 19.2841C47.4635 19.4775 47.3906 19.664 47.2581 19.8048L34.8423 32.2206L34.7967 32.2663L34.8194 32.3266C34.9194 32.5919 34.9597 32.8759 34.9376 33.1584C34.9155 33.441 34.8315 33.7153 34.6915 33.9618C34.5515 34.2082 34.359 34.4209 34.1276 34.5847C33.8963 34.7484 33.6317 34.8592 33.3527 34.9093C33.0737 34.9593 32.7871 34.9473 32.5133 34.8742C32.2394 34.8011 31.985 34.6686 31.7681 34.4861C31.5512 34.3037 31.377 34.0757 31.2581 33.8184C31.1392 33.5612 31.0783 33.2808 31.0798 32.9974L31.08 32.9974L31.0797 32.9913C31.0764 32.9316 31.0764 32.8717 31.0797 32.8119L31.083 32.7505L31.0298 32.7198L21.4279 27.171L21.428 27.1709L21.4236 27.1686C21.3335 27.1224 21.2539 27.0584 21.1894 26.9804C21.1248 26.9024 21.0769 26.8122 21.0483 26.7151C21.0198 26.618 21.0112 26.5162 21.0233 26.4157C21.0353 26.3152 21.0676 26.2183 21.1183 26.1307C21.1689 26.0431 21.2369 25.9667 21.3179 25.9062C21.399 25.8456 21.4916 25.8022 21.5899 25.7785C21.6883 25.7549 21.7905 25.7515 21.8902 25.7685C21.99 25.7855 22.0852 25.8226 22.1702 25.8776L22.1701 25.8777L22.1744 25.8802L31.7764 31.4325L31.8322 31.4648L31.8846 31.4273C32.2102 31.1941 32.6006 31.0686 33.0011 31.0685L33.0011 30.9685M30.9798 32.9969C30.9782 33.295 31.0422 33.5898 31.1673 33.8604M30.9798 32.9969L31.1673 33.8604M33.0011 30.9685C33.2423 30.9685 33.4814 31.0128 33.7066 31.0991L33.0011 30.9685ZM31.1673 33.8604C31.2924 34.131 31.4756 34.3708 31.7037 34.5627M31.1673 33.8604L31.7037 34.5627M31.7037 34.5627C31.9318 34.7546 32.1994 34.8939 32.4875 34.9708M31.7037 34.5627L32.4875 34.9708M32.4875 34.9708C32.7755 35.0478 33.0769 35.0603 33.3704 35.0077M32.4875 34.9708L33.3704 35.0077M33.3704 35.0077C33.6638 34.9551 33.9421 34.8385 34.1854 34.6663M33.3704 35.0077L34.1854 34.6663M34.1854 34.6663C34.4288 34.4941 34.6312 34.2704 34.7785 34.0112M34.1854 34.6663L34.7785 34.0112M34.7785 34.0112C34.9257 33.7519 35.014 33.4635 35.0373 33.1662M34.7785 34.0112L35.0373 33.1662M35.0373 33.1662C35.0606 32.869 35.0181 32.5703 34.913 32.2914L35.0373 33.1662Z" fill="#A3784E" stroke="#FAF5F0" stroke-width="0.2"/>
</g>
<defs>
<clipPath id="clip0_939_5879">
<rect width="66" height="66" fill="white"/>
</clipPath>
</defs>
</svg>
