<svg width="68" height="66" viewBox="0 0 68 66" fill="none" xmlns="http://www.w3.org/2000/svg">
<g clip-path="url(#clip0_939_5909)">
<path d="M67.8486 53.8494L67.8489 53.85C67.8993 53.9737 67.9156 54.1084 67.8961 54.2403L67.8959 54.2418L66.428 65.2738C66.428 65.2739 66.428 65.274 66.428 65.274C66.4033 65.4532 66.314 65.6177 66.1765 65.7369C66.0389 65.8562 65.8623 65.9221 65.6794 65.9223H2.3241C2.14112 65.9221 1.96451 65.8562 1.8269 65.7369C1.68936 65.6176 1.60009 65.4532 1.57536 65.274C1.57535 65.2739 1.57534 65.2738 1.57533 65.2738L0.107542 54.2418L0.107161 54.2394C0.0863839 54.1079 0.101278 53.9733 0.150337 53.8493C0.150368 53.8493 0.1504 53.8492 0.150431 53.8491L8.75237 32.3556L8.76514 32.3237L8.75559 32.2906L1.59464 7.534L1.59465 7.534L1.59415 7.53235C1.54581 7.37545 1.55271 7.20691 1.61373 7.0544L1.61382 7.05416L4.18819 0.572811L4.18821 0.572768C4.24448 0.430907 4.34331 0.309454 4.47149 0.224894C4.59968 0.140328 4.75101 0.0967682 4.90506 0.100187L4.90506 0.100212H4.90728L63.1095 0.100212L63.1096 0.100211C63.261 0.0999837 63.4089 0.145033 63.5339 0.229389C63.659 0.31374 63.7554 0.433444 63.8107 0.572792L66.3851 7.07619L66.3851 7.07642C66.4465 7.23045 66.4535 7.40056 66.4048 7.55897L66.4052 7.55911C66.4048 7.55938 66.4046 7.55954 66.4046 7.55958L66.4041 7.56102L66.4031 7.56465L66.3991 7.57812L66.3838 7.63102L66.3239 7.83751L66.0966 8.62188L65.2854 11.4227L62.8238 19.9239L60.3622 28.4259L59.551 31.2278L59.3238 32.0128L59.2639 32.2197L59.2485 32.2727L59.2447 32.2861L59.2437 32.2895L59.2434 32.2903C59.2434 32.2905 59.2433 32.2906 59.3394 32.3184L59.2433 32.2906L59.2338 32.3237L59.2466 32.3556L67.8486 53.8494ZM10.1072 31.5184L10.1281 31.5906H10.2033H57.7957H57.8708L57.8917 31.5184L64.6511 8.20501L64.6882 8.07716H64.5551H40.6272H40.5481L40.5299 8.15418C39.9958 10.4162 37.2861 12.1723 33.9972 12.1723C30.7085 12.1723 28.0031 10.4163 27.469 8.15418L27.4508 8.07716H27.3717H3.44386H3.31074L3.34781 8.20501L10.1072 31.5184ZM5.46944 1.59138H5.40154L5.37649 1.6545L3.47583 6.44468L3.42152 6.58156H3.56878H28.1079V6.58167L28.1125 6.58145C28.2147 6.57667 28.3168 6.59259 28.4125 6.62822C28.5082 6.66386 28.5955 6.71845 28.6692 6.78862C28.7429 6.85879 28.8013 6.94308 28.841 7.03631L28.933 6.99714L28.841 7.03631C28.8807 7.12954 28.9008 7.22978 28.9002 7.33094V7.33158C28.9002 8.25894 29.5041 9.09845 30.4349 9.70104C31.3674 10.3048 32.6416 10.6811 34.0195 10.6811C35.3974 10.6811 36.6726 10.307 37.6063 9.70444C38.5383 9.10291 39.1434 8.26337 39.1434 7.33158L39.1434 7.33105C39.1428 7.23292 39.1619 7.13563 39.1994 7.04479C39.2369 6.95393 39.2921 6.87128 39.362 6.80159C39.4319 6.73191 39.5149 6.67657 39.6065 6.63879C39.6981 6.60102 39.7963 6.58156 39.8955 6.58156H64.4346H64.582L64.5275 6.44461L62.6224 1.65443L62.5973 1.59138H62.5295H5.46944ZM39.0434 7.33158C39.0434 9.10244 36.7411 10.5811 34.0195 10.5811C31.2979 10.5811 29.0002 9.09358 29.0002 7.33158H39.0434ZM10.1408 33.1039H10.0731L10.0479 33.1667L2.01251 53.2571L1.95766 53.3943H2.10536H65.9114H66.0591L66.0043 53.2572L57.9733 33.1667L57.9482 33.1039H57.8804H10.1408ZM64.9298 64.4267H65.0174L65.029 64.34L66.2738 54.9987L66.2889 54.8855H66.1747H1.82428H1.71007L1.72515 54.9987L2.96995 64.34L2.98152 64.4267H3.06908H64.9298Z" fill="#A3784E" stroke="#FAF5F0" stroke-width="0.2"/>
<path d="M49.9463 58.793H18.8502C18.6242 58.793 18.4075 58.8821 18.2476 59.0406C18.0878 59.1992 17.998 59.4143 17.998 59.6386C17.998 59.8628 18.0878 60.0779 18.2476 60.2365C18.4075 60.3951 18.6242 60.4841 18.8502 60.4841H49.9463C50.1724 60.4841 50.3891 60.3951 50.5489 60.2365C50.7087 60.0779 50.7985 59.8628 50.7985 59.6386C50.7985 59.4143 50.7087 59.1992 50.5489 59.0406C50.3891 58.8821 50.1724 58.793 49.9463 58.793Z" fill="#C0B3A8"/>
</g>
<defs>
<clipPath id="clip0_939_5909">
<rect width="68" height="66" fill="white"/>
</clipPath>
</defs>
</svg>
