<svg width="90" height="90" viewBox="0 0 90 90" fill="none" xmlns="http://www.w3.org/2000/svg">
<g clip-path="url(#clip0_1738_11265)">
<path d="M27.0476 30.2316H21.6352C21.2782 30.2311 20.9361 30.0947 20.6837 29.8522C20.4313 29.6098 20.2893 29.2811 20.2889 28.9382V0.959953C20.2889 0.705358 20.3941 0.46119 20.5815 0.281164C20.7689 0.101138 21.0231 0 21.2881 0L50.7213 0C50.9863 0 51.2405 0.101138 51.4279 0.281164C51.6153 0.46119 51.7205 0.705358 51.7205 0.959953V4.7317H64.9382C65.1292 4.7312 65.3164 4.7834 65.4774 4.8821C65.6385 4.9808 65.7666 5.12184 65.8466 5.28847L71.786 17.6282C71.786 17.6457 71.8023 17.6614 71.8096 17.6789C71.8714 17.8295 71.9034 17.9899 71.9041 18.1518V28.9382C71.9031 29.281 71.7609 29.6094 71.5087 29.8517C71.2564 30.0941 70.9145 30.2306 70.5578 30.2316H66.7696C66.4245 31.4468 65.673 32.5192 64.631 33.2838C63.5889 34.0483 62.3141 34.4625 61.0029 34.4625C59.6917 34.4625 58.4169 34.0483 57.3748 33.2838C56.3327 32.5192 55.5813 31.4468 55.2362 30.2316H38.5828C38.2377 31.4468 37.4863 32.5192 36.4442 33.2838C35.4022 34.0483 34.1273 34.4625 32.8161 34.4625C31.5049 34.4625 30.2301 34.0483 29.188 33.2838C28.146 32.5192 27.3945 31.4468 27.0494 30.2316H27.0476ZM49.7293 1.91991H22.2947V18.6755H49.7293V1.91991ZM64.2987 6.6516H60.2398V13.9455H67.8125L64.2987 6.6516ZM69.9055 18.2915L68.7427 15.8654H59.2405C58.9755 15.8654 58.7213 15.7643 58.5339 15.5842C58.3465 15.4042 58.2413 15.1601 58.2413 14.9055V6.6516H51.7278V19.6389C51.7278 19.8935 51.6225 20.1377 51.4351 20.3177C51.2477 20.4977 50.9936 20.5989 50.7285 20.5989H22.2874V28.3116H26.8514C26.9568 26.8615 27.6309 25.5038 28.7375 24.5123C29.8442 23.5209 31.3011 22.9696 32.8143 22.9696C34.3275 22.9696 35.7844 23.5209 36.8911 24.5123C37.9977 25.5038 38.6718 26.8615 38.7772 28.3116H55.04C55.1454 26.8615 55.8195 25.5038 56.9261 24.5123C58.0328 23.5209 59.4897 22.9696 61.0029 22.9696C62.5161 22.9696 63.973 23.5209 65.0797 24.5123C66.1863 25.5038 66.8604 26.8615 66.9658 28.3116H69.9055V18.2915ZM61.0029 32.5407C61.94 32.5381 62.8465 32.2193 63.5638 31.64C64.2811 31.0606 64.7637 30.2575 64.9273 29.3711C64.9119 29.2307 64.9293 29.0888 64.9782 28.9557C64.9782 28.8754 64.9782 28.7969 64.9782 28.7166C64.9782 27.9602 64.7447 27.2209 64.3073 26.592C63.8699 25.9631 63.2482 25.473 62.5208 25.1836C61.7934 24.8941 60.993 24.8184 60.2208 24.9659C59.4486 25.1135 58.7393 25.4777 58.1826 26.0125C57.6259 26.5473 57.2468 27.2287 57.0932 27.9705C56.9396 28.7123 57.0184 29.4812 57.3197 30.18C57.621 30.8788 58.1312 31.476 58.7859 31.8962C59.4405 32.3164 60.2101 32.5407 60.9974 32.5407H61.0029ZM32.8143 32.5407C33.6016 32.5407 34.3713 32.3164 35.0259 31.8962C35.6805 31.476 36.1907 30.8788 36.492 30.18C36.7933 29.4812 36.8722 28.7123 36.7186 27.9705C36.565 27.2287 36.1858 26.5473 35.6291 26.0125C35.0724 25.4777 34.3631 25.1135 33.5909 24.9659C32.8187 24.8184 32.0183 24.8941 31.2909 25.1836C30.5636 25.473 29.9418 25.9631 29.5044 26.592C29.067 27.2209 28.8336 27.9602 28.8336 28.7166C28.835 29.7304 29.2549 30.7022 30.0011 31.4191C30.7473 32.136 31.759 32.5393 32.8143 32.5407Z" fill="#A3784E" stroke="#FAF5F0" stroke-width="0.7"/>
<path d="M16.0392 61.0369C14.6657 61.0373 13.3229 60.6463 12.1806 59.9134C11.0384 59.1806 10.1481 58.1387 9.62229 56.9197C9.09649 55.7007 8.95882 54.3593 9.2267 53.0651C9.49458 51.771 10.156 50.5822 11.1272 49.6491C12.0985 48.7161 13.336 48.0807 14.6831 47.8234C16.0303 47.5661 17.4267 47.6983 18.6956 48.2034C19.9645 48.7085 21.049 49.5638 21.8119 50.6611C22.5748 51.7584 22.9818 53.0484 22.9814 54.3679C22.9795 56.136 22.2475 57.8313 20.946 59.0816C19.6445 60.3319 17.8798 61.0351 16.0392 61.0369ZM16.0392 49.617C15.061 49.6166 14.1047 49.895 13.2912 50.4168C12.4776 50.9386 11.8435 51.6805 11.4689 52.5486C11.0943 53.4166 10.9961 54.3719 11.1867 55.2936C11.3773 56.2153 11.8482 57.062 12.5398 57.7266C13.2313 58.3912 14.1125 58.8439 15.0719 59.0273C16.0313 59.2108 17.0258 59.1168 17.9295 58.7573C18.8333 58.3978 19.6058 57.7888 20.1493 57.0075C20.6928 56.2262 20.9829 55.3076 20.9829 54.3679C20.9815 53.1086 20.4602 51.9012 19.5334 51.0106C18.6067 50.12 17.3501 49.6188 16.0392 49.617Z" fill="#C0B3A8" stroke="#FAF5F0" stroke-width="0.5"/>
<path d="M2.52352 61.4073C1.25315 59.1562 0.613922 56.6265 0.668568 54.0664C0.723213 51.5063 1.46986 49.0039 2.83522 46.8047C4.20057 44.6055 6.13772 42.7852 8.45652 41.5224C10.7753 40.2595 13.3961 39.5976 16.0616 39.6016C18.7271 39.6055 21.3457 40.2752 23.6604 41.545C25.9751 42.8147 27.9064 44.6408 29.2647 46.844C30.6229 49.0472 31.3615 51.5519 31.4079 54.1121C31.4543 56.6723 30.8069 59.2001 29.5293 61.4474C29.5159 61.4717 29.5008 61.495 29.4839 61.5173L20.5304 77.62C25.9937 78.3513 29.7583 80.3341 30.4469 82.83H31.3789C31.6439 82.83 31.8981 82.9311 32.0855 83.1111C32.2729 83.2912 32.3782 83.5353 32.3782 83.7899C32.3782 84.0445 32.2729 84.2887 32.0855 84.4687C31.8981 84.6487 31.6439 84.7499 31.3789 84.7499H30.3651C29.2495 87.8078 23.461 89.9999 16.041 89.9999C7.76153 89.9999 1.5188 87.2754 1.5188 83.6643C1.5188 80.7826 5.48864 78.4281 11.5479 77.62L2.58347 61.4963C2.56073 61.4684 2.54067 61.4386 2.52352 61.4073ZM16.0391 41.5206C13.7267 41.5197 11.4536 42.0948 9.44155 43.1896C7.42951 44.2845 5.74731 45.8618 4.55911 47.7675C3.37092 49.6733 2.71733 51.8424 2.66211 54.0632C2.6069 56.2839 3.15196 58.4806 4.24409 60.4386C4.26584 60.468 4.28527 60.4989 4.30223 60.5311L16.0391 81.6257L18.0704 77.9709L18.0813 77.9499L27.767 60.5311C27.784 60.4999 27.8028 60.4696 27.8233 60.4404C28.916 58.4831 29.4618 56.2871 29.4076 54.0668C29.3534 51.8464 28.7009 49.6775 27.5138 47.7716C26.3267 45.8657 24.6456 44.2881 22.6346 43.1925C20.6235 42.0969 18.3511 41.5208 16.0391 41.5206ZM3.51734 83.6643C3.51734 85.7482 8.87163 88.08 16.041 88.08C23.2103 88.08 28.5628 85.7482 28.5628 83.6643C28.5628 82.0306 25.1979 80.0513 19.5257 79.4335L16.9221 84.1163C16.8365 84.2695 16.7093 84.3976 16.554 84.4868C16.3987 84.5761 16.2211 84.6232 16.0401 84.6232C15.8591 84.6232 15.6814 84.5761 15.5261 84.4868C15.3708 84.3976 15.2436 84.2695 15.158 84.1163L12.5544 79.4335C6.88035 80.0513 3.51734 82.0323 3.51734 83.6643Z" fill="#C0B3A8" stroke="#FAF5F0" stroke-width="0.5"/>
<path d="M78.7753 61.7543C78.8008 61.6305 78.8513 61.5128 78.9242 61.4078C78.9971 61.3029 79.0909 61.2128 79.2001 61.1428C79.3093 61.0727 79.4318 61.0241 79.5607 60.9996C79.6895 60.9752 79.8221 60.9754 79.9509 61.0003C81.2456 61.2494 82.4911 61.6942 83.6409 62.3181C83.8717 62.4435 84.0412 62.6519 84.1121 62.8974C84.1829 63.1429 84.1494 63.4053 84.0188 63.6271C83.8882 63.8488 83.6713 64.0116 83.4158 64.0797C83.1602 64.1478 82.887 64.1156 82.6562 63.9901C81.694 63.4666 80.6515 63.0931 79.5675 62.8836C79.438 62.8599 79.3147 62.8119 79.2046 62.7422C79.0945 62.6726 78.9999 62.5826 78.9263 62.4776C78.8526 62.3726 78.8014 62.2546 78.7754 62.1305C78.7495 62.0063 78.7495 61.8785 78.7753 61.7543Z" fill="#C0B3A8" stroke="#FAF5F0" stroke-width="0.5"/>
<path d="M67.7471 82.875H71.3809C71.6459 82.875 71.9 82.9761 72.0874 83.1562C72.2748 83.3362 72.3801 83.5804 72.3801 83.835C72.3801 84.0895 72.2748 84.3337 72.0874 84.5137C71.9 84.6938 71.6459 84.7949 71.3809 84.7949H67.7471C67.4821 84.7949 67.2279 84.6938 67.0405 84.5137C66.8531 84.3337 66.7479 84.0895 66.7479 83.835C66.7479 83.5804 66.8531 83.3362 67.0405 83.1562C67.2279 82.9761 67.4821 82.875 67.7471 82.875Z" fill="#C0B3A8" stroke="#FAF5F0" stroke-width="0.5"/>
<path d="M77.7273 82.8856C78.8363 82.8625 79.9345 82.6711 80.9813 82.3183C81.2262 82.251 81.4888 82.276 81.7151 82.3884C81.9415 82.5008 82.1146 82.692 82.1991 82.923C82.2836 83.1539 82.273 83.4072 82.1696 83.6309C82.0661 83.8546 81.8776 84.0319 81.6426 84.1265C80.3969 84.5476 79.0894 84.7756 77.7691 84.802H77.7473C77.4822 84.8048 77.2269 84.7063 77.0375 84.5282C76.848 84.3502 76.74 84.1071 76.7371 83.8525C76.7342 83.5979 76.8367 83.3527 77.0221 83.1707C77.2074 82.9887 77.4604 82.8849 77.7255 82.8821L77.7273 82.8856Z" fill="#C0B3A8" stroke="#FAF5F0" stroke-width="0.5"/>
<path d="M68.7701 61.7285C68.7701 61.4739 68.8754 61.2297 69.0628 61.0497C69.2502 60.8697 69.5043 60.7686 69.7693 60.7686H73.4031C73.6681 60.7686 73.9223 60.8697 74.1097 61.0497C74.2971 61.2297 74.4023 61.4739 74.4023 61.7285C74.4023 61.9831 74.2971 62.2273 74.1097 62.4073C73.9223 62.5873 73.6681 62.6885 73.4031 62.6885H69.7693C69.5043 62.6885 69.2502 62.5873 69.0628 62.4073C68.8754 62.2273 68.7701 61.9831 68.7701 61.7285Z" fill="#C0B3A8" stroke="#FAF5F0" stroke-width="0.5"/>
<path d="M72.5144 46.8262H68.8807C68.6157 46.8262 68.3615 46.725 68.1741 46.545C67.9867 46.365 67.8814 46.1208 67.8814 45.8662C67.8814 45.6116 67.9867 45.3674 68.1741 45.1874C68.3615 45.0074 68.6157 44.9062 68.8807 44.9062H72.5144C72.7794 44.9062 73.0336 45.0074 73.221 45.1874C73.4084 45.3674 73.5137 45.6116 73.5137 45.8662C73.5137 46.1208 73.4084 46.365 73.221 46.545C73.0336 46.725 72.7794 46.8262 72.5144 46.8262Z" fill="#C0B3A8" stroke="#FAF5F0" stroke-width="0.5"/>
<path d="M86.239 35.5658C86.0354 35.5648 85.8369 35.5039 85.6704 35.3913C84.8256 34.8245 83.8293 34.5022 82.7997 34.4627C82.6685 34.4575 82.5396 34.4274 82.4205 34.3743C82.3014 34.3212 82.1943 34.2461 82.1054 34.1532C82.0165 34.0603 81.9475 33.9515 81.9023 33.8331C81.8572 33.7146 81.8367 33.5887 81.8422 33.4626C81.8477 33.3366 81.879 33.2128 81.9343 33.0983C81.9896 32.9839 82.0678 32.881 82.1645 32.7956C82.2611 32.7102 82.3744 32.6439 82.4977 32.6005C82.621 32.5572 82.7521 32.5376 82.8833 32.5428C84.292 32.5978 85.655 33.0387 86.8113 33.8135C86.985 33.9307 87.1152 34.0979 87.1833 34.291C87.2513 34.484 87.2537 34.6929 87.1899 34.8873C87.1262 35.0817 86.9997 35.2516 86.8287 35.3723C86.6577 35.4931 86.4512 35.5584 86.239 35.5588V35.5658Z" fill="#C0B3A8" stroke="#FAF5F0" stroke-width="0.5"/>
<path d="M83.5156 45.8662C83.5156 46.1208 83.4103 46.365 83.2229 46.545C83.0355 46.725 82.7814 46.8262 82.5164 46.8262H78.8826C78.6176 46.8262 78.3634 46.725 78.176 46.545C77.9886 46.365 77.8834 46.1208 77.8834 45.8662C77.8834 45.6116 77.9886 45.3674 78.176 45.1874C78.3634 45.0074 78.6176 44.9062 78.8826 44.9062H82.5164C82.7814 44.9062 83.0355 45.0074 83.2229 45.1874C83.4103 45.3674 83.5156 45.6116 83.5156 45.8662Z" fill="#C0B3A8" stroke="#FAF5F0" stroke-width="0.5"/>
<path d="M87.9142 44.0846C87.7336 44.0828 87.5569 44.0342 87.4027 43.9438C87.2485 43.8534 87.1227 43.7246 87.0385 43.5711C86.9544 43.4176 86.915 43.2451 86.9246 43.0719C86.9341 42.8986 86.9923 42.7311 87.093 42.587C87.6643 41.7644 87.9795 40.8023 88.0014 39.8136C88.0079 39.559 88.1194 39.3174 88.3114 39.1417C88.5034 38.9661 88.7602 38.871 89.0252 38.8772C89.2902 38.8835 89.5418 38.9906 89.7246 39.1751C89.9074 39.3595 90.0064 39.6062 89.9999 39.8608C89.9656 41.2151 89.5301 42.5319 88.7445 43.6569C88.6534 43.7883 88.5299 43.8961 88.3851 43.9706C88.2403 44.0452 88.0785 44.0844 87.9142 44.0846Z" fill="#C0B3A8" stroke="#FAF5F0" stroke-width="0.5"/>
<path d="M88.7991 71.6753C88.5667 71.6747 88.3417 71.5963 88.163 71.4536C87.9843 71.3109 87.8629 71.1128 87.8198 70.8934C87.613 69.8469 87.234 68.8389 86.697 67.907C86.5799 67.6853 86.5569 67.4285 86.6329 67.1908C86.7089 66.953 86.878 66.7529 87.1045 66.6326C87.331 66.5122 87.5974 66.481 87.8474 66.5456C88.0974 66.6101 88.3115 66.7653 88.4448 66.9785C89.0856 68.0879 89.5371 69.2888 89.782 70.5356C89.8065 70.6594 89.8053 70.7867 89.7786 70.9102C89.7519 71.0337 89.7001 71.1509 89.6262 71.2551C89.5523 71.3593 89.4577 71.4485 89.3479 71.5176C89.2381 71.5867 89.1152 71.6344 88.9862 71.6578C88.9245 71.6688 88.8619 71.6747 88.7991 71.6753Z" fill="#C0B3A8" stroke="#FAF5F0" stroke-width="0.5"/>
<path d="M87.3182 76.3839C87.3615 76.2618 87.43 76.1493 87.5195 76.0532C87.6091 75.9571 87.7179 75.8793 87.8394 75.8244C87.961 75.7696 88.0928 75.7389 88.227 75.7341C88.3612 75.7293 88.495 75.7505 88.6205 75.7965C88.746 75.8425 88.8605 75.9123 88.9572 76.0018C89.054 76.0913 89.1309 76.1986 89.1836 76.3173C89.2362 76.436 89.2633 76.5636 89.2634 76.6926C89.2635 76.8217 89.2366 76.9494 89.1841 77.0681C88.7147 78.2534 88.0518 79.3593 87.2201 80.3442C87.138 80.4435 87.0363 80.5263 86.9207 80.5876C86.8051 80.649 86.6781 80.6877 86.5468 80.7016C86.4156 80.7155 86.2828 80.7043 86.1561 80.6686C86.0294 80.6329 85.9113 80.5734 85.8087 80.4936C85.7061 80.4138 85.6209 80.3153 85.5582 80.2037C85.4954 80.0921 85.4563 79.9697 85.4431 79.8435C85.4299 79.7173 85.4429 79.5898 85.4812 79.4684C85.5196 79.3471 85.5826 79.2342 85.6667 79.1364C86.3652 78.3086 86.9227 77.3796 87.3182 76.3839Z" fill="#C0B3A8" stroke="#FAF5F0" stroke-width="0.5"/>
<path d="M47.7435 82.8506H51.3772C51.6422 82.8506 51.8964 82.9517 52.0838 83.1317C52.2712 83.3118 52.3765 83.5559 52.3765 83.8105C52.3765 84.0651 52.2712 84.3093 52.0838 84.4893C51.8964 84.6694 51.6422 84.7705 51.3772 84.7705H47.7435C47.4784 84.7705 47.2243 84.6694 47.0369 84.4893C46.8495 84.3093 46.7442 84.0651 46.7442 83.8105C46.7442 83.5559 46.8495 83.3118 47.0369 83.1317C47.2243 82.9517 47.4784 82.8506 47.7435 82.8506Z" fill="#C0B3A8" stroke="#FAF5F0" stroke-width="0.5"/>
<path d="M46.1319 51.5374C46.3931 51.5797 46.6262 51.7197 46.7801 51.9268C46.934 52.1339 46.9962 52.3911 46.9531 52.6422C46.887 53.0241 46.8536 53.4105 46.8532 53.7976C46.8535 54.4331 46.944 55.0655 47.1221 55.6774C47.1578 55.7989 47.1682 55.9259 47.1527 56.0513C47.1372 56.1766 47.0961 56.2978 47.0319 56.4079C46.9676 56.5179 46.8813 56.6148 46.778 56.6928C46.6747 56.7708 46.5564 56.8285 46.4299 56.8625C46.3418 56.8862 46.2507 56.898 46.1592 56.8974C45.9418 56.8971 45.7304 56.8288 45.557 56.7028C45.3836 56.5769 45.2576 56.4001 45.1981 56.1993C44.8309 54.9374 44.7571 53.6134 44.9818 52.3211C45.0272 52.0711 45.1735 51.8485 45.3889 51.7017C45.6043 51.5549 45.8714 51.4959 46.1319 51.5374Z" fill="#C0B3A8" stroke="#FAF5F0" stroke-width="0.5"/>
<path d="M37.7435 82.8389H41.3772C41.6422 82.8389 41.8964 82.94 42.0838 83.12C42.2712 83.3001 42.3765 83.5442 42.3765 83.7988C42.3765 84.0534 42.2712 84.2976 42.0838 84.4776C41.8964 84.6576 41.6422 84.7588 41.3772 84.7588H37.7435C37.4784 84.7588 37.2243 84.6576 37.0369 84.4776C36.8495 84.2976 36.7442 84.0534 36.7442 83.7988C36.7442 83.5442 36.8495 83.3001 37.0369 83.12C37.2243 82.94 37.4784 82.8389 37.7435 82.8389Z" fill="#C0B3A8" stroke="#FAF5F0" stroke-width="0.5"/>
<path d="M58.7681 61.7285C58.7681 61.4739 58.8734 61.2297 59.0608 61.0497C59.2482 60.8697 59.5024 60.7686 59.7674 60.7686H63.4011C63.6661 60.7686 63.9203 60.8697 64.1077 61.0497C64.2951 61.2297 64.4004 61.4739 64.4004 61.7285C64.4004 61.9831 64.2951 62.2273 64.1077 62.4073C63.9203 62.5873 63.6661 62.6885 63.4011 62.6885H59.7674C59.5024 62.6885 59.2482 62.5873 59.0608 62.4073C58.8734 62.2273 58.7681 61.9831 58.7681 61.7285Z" fill="#C0B3A8" stroke="#FAF5F0" stroke-width="0.5"/>
<path d="M52.7125 46.9503C51.6607 47.1439 50.6674 47.5614 49.8055 48.1721C49.6998 48.2468 49.5798 48.3008 49.4524 48.331C49.325 48.3611 49.1926 48.3669 49.0629 48.3479C48.9331 48.329 48.8086 48.2857 48.6963 48.2204C48.5839 48.1552 48.4861 48.0694 48.4083 47.9678C48.3305 47.8663 48.2743 47.751 48.2429 47.6286C48.2115 47.5062 48.2055 47.3791 48.2252 47.2545C48.245 47.1298 48.2901 47.0101 48.358 46.9023C48.4259 46.7944 48.5152 46.7004 48.6209 46.6257C49.7183 45.846 50.9835 45.3122 52.3237 45.0636C52.4525 45.0395 52.585 45.04 52.7136 45.0652C52.8423 45.0903 52.9645 45.1395 53.0733 45.21C53.1821 45.2805 53.2754 45.3709 53.3479 45.4761C53.4203 45.5812 53.4705 45.699 53.4955 45.8228C53.5206 45.9466 53.52 46.0739 53.4939 46.1974C53.4677 46.321 53.4165 46.4384 53.3431 46.5429C53.2697 46.6475 53.1756 46.7371 53.0661 46.8067C52.9567 46.8763 52.834 46.9245 52.7052 46.9485L52.7125 46.9503Z" fill="#C0B3A8" stroke="#FAF5F0" stroke-width="0.5"/>
<path d="M49.1006 60.1747C49.1663 60.0654 49.2537 59.9696 49.358 59.8929C49.4623 59.8161 49.5813 59.7599 49.7083 59.7275C49.8352 59.6951 49.9676 59.687 50.0978 59.7039C50.228 59.7207 50.3534 59.7621 50.4669 59.8257C51.3888 60.3409 52.4183 60.6527 53.4811 60.7385C53.7461 60.7491 53.9959 60.8605 54.1754 61.048C54.355 61.2356 54.4497 61.484 54.4386 61.7386C54.4275 61.9932 54.3116 62.2331 54.1164 62.4056C53.9211 62.5781 53.6625 62.669 53.3975 62.6584H53.3121C51.9518 62.5496 50.6339 62.15 49.4549 61.489C49.3418 61.4251 49.243 61.3403 49.1639 61.2397C49.0849 61.139 49.0273 61.0244 48.9944 60.9024C48.9615 60.7803 48.954 60.6532 48.9722 60.5284C48.9904 60.4036 49.0341 60.2834 49.1006 60.1747Z" fill="#C0B3A8" stroke="#FAF5F0" stroke-width="0.5"/>
<path d="M62.5127 46.8262H58.879C58.6139 46.8262 58.3598 46.725 58.1724 46.545C57.985 46.365 57.8797 46.1208 57.8797 45.8662C57.8797 45.6116 57.985 45.3674 58.1724 45.1874C58.3598 45.0074 58.6139 44.9062 58.879 44.9062H62.5127C62.7777 44.9062 63.0319 45.0074 63.2193 45.1874C63.4067 45.3674 63.512 45.6116 63.512 45.8662C63.512 46.1208 63.4067 46.365 63.2193 46.545C63.0319 46.725 62.7777 46.8262 62.5127 46.8262Z" fill="#C0B3A8" stroke="#FAF5F0" stroke-width="0.5"/>
<path d="M57.7452 82.8633H61.3789C61.6439 82.8633 61.8981 82.9644 62.0855 83.1444C62.2729 83.3245 62.3782 83.5686 62.3782 83.8232C62.3782 84.0778 62.2729 84.322 62.0855 84.502C61.8981 84.682 61.6439 84.7832 61.3789 84.7832H57.7452C57.4802 84.7832 57.226 84.682 57.0386 84.502C56.8512 84.322 56.7459 84.0778 56.7459 83.8232C56.7459 83.5686 56.8512 83.3245 57.0386 83.1444C57.226 82.9644 57.4802 82.8633 57.7452 82.8633Z" fill="#C0B3A8" stroke="#FAF5F0" stroke-width="0.5"/>
<path d="M73.6138 33.501C73.6138 33.2464 73.7191 33.0022 73.9065 32.8222C74.0939 32.6422 74.348 32.541 74.6131 32.541H76.4299C76.6949 32.541 76.9491 32.6422 77.1365 32.8222C77.3239 33.0022 77.4292 33.2464 77.4292 33.501C77.4292 33.7556 77.3239 33.9997 77.1365 34.1798C76.9491 34.3598 76.6949 34.4609 76.4299 34.4609H74.6131C74.348 34.4609 74.0939 34.3598 73.9065 34.1798C73.7191 33.9997 73.6138 33.7556 73.6138 33.501Z" fill="#C0B3A8" stroke="#FAF5F0" stroke-width="0.5"/>
<path d="M13.959 1.91991H6.02657C5.76154 1.91991 5.50737 1.81877 5.31997 1.63874C5.13257 1.45872 5.02729 1.21455 5.02729 0.959953C5.02729 0.705358 5.13257 0.46119 5.31997 0.281164C5.50737 0.101138 5.76154 0 6.02657 0L13.959 0C14.224 0 14.4782 0.101138 14.6656 0.281164C14.853 0.46119 14.9583 0.705358 14.9583 0.959953C14.9583 1.21455 14.853 1.45872 14.6656 1.63874C14.4782 1.81877 14.224 1.91991 13.959 1.91991Z" fill="#C0B3A8" stroke="#FAF5F0" stroke-width="0.5"/>
<path d="M0.999315 14.2715H13.959C14.224 14.2715 14.4782 14.3726 14.6656 14.5526C14.853 14.7327 14.9583 14.9768 14.9583 15.2314C14.9583 15.486 14.853 15.7302 14.6656 15.9102C14.4782 16.0903 14.224 16.1914 13.959 16.1914H0.999315C0.734292 16.1914 0.480121 16.0903 0.292721 15.9102C0.105321 15.7302 4.19617e-05 15.486 4.19617e-05 15.2314C4.19617e-05 14.9768 0.105321 14.7327 0.292721 14.5526C0.480121 14.3726 0.734292 14.2715 0.999315 14.2715Z" fill="#C0B3A8" stroke="#FAF5F0" stroke-width="0.5"/>
<g clip-path="url(#clip1_1738_11265)">
<path d="M33.3214 10.9496L33.6481 12.4576L35.1856 11.9724L36.7228 12.4576L37.0494 10.9496L38.2603 9.92679L37.0492 8.9037L36.7228 7.39567L35.1853 7.88088L33.6481 7.39541L33.3214 8.90344L32.1106 9.92653L33.3214 10.9496ZM33.3214 10.9496L40.3708 7.08094M33.3214 10.9496L30 12.7721M35.1853 4.23535V11.9727V15.6177M33.4244 5.4665L35.1856 6.26803L36.9464 5.4665M36.9464 14.3868L35.1853 13.5853L33.4244 14.3868M38.3686 6.24712L38.5186 8.09741L40.1297 9.14617M32.0019 13.6062L31.8519 11.7559L30.2414 10.7074M40.3708 12.7724L37.0492 10.9496L30.0003 7.08094M40.1297 10.7074L38.5192 11.7562M38.3686 13.6062L38.5186 11.7559M30.2414 9.14617L31.8519 8.09741L32.0019 6.24712" stroke="#A3784E" stroke-width="0.5" stroke-linecap="round" stroke-linejoin="round"/>
</g>
</g>
<defs>
<clipPath id="clip0_1738_11265">
<rect width="90" height="90" fill="white" transform="matrix(-1 0 0 1 90 0)"/>
</clipPath>
<clipPath id="clip1_1738_11265">
<rect width="13.3333" height="12.7059" fill="white" transform="translate(28.8889 4.23535)"/>
</clipPath>
</defs>
</svg>
