<svg width="90" height="90" viewBox="0 0 90 90" fill="none" xmlns="http://www.w3.org/2000/svg">
<g clip-path="url(#clip0_1738_11240)">
<path d="M59.4924 5.76953C59.0518 5.76953 58.6292 5.94243 58.3176 6.2502C58.006 6.55797 57.831 6.97539 57.831 7.41064V22.8535C55.7875 23.7613 53.6015 24.3164 51.3681 24.4946V7.41064C51.3681 6.97539 51.1931 6.55797 50.8815 6.2502C50.57 5.94243 50.1474 5.76953 49.7067 5.76953C49.2661 5.76953 48.8435 5.94243 48.5319 6.2502C48.2204 6.55797 48.0453 6.97539 48.0453 7.41064V24.5603C45.7512 24.3938 43.5032 23.8386 41.3997 22.9191V7.41064C41.3997 6.97539 41.2247 6.55797 40.9131 6.2502C40.6015 5.94243 40.1789 5.76953 39.7383 5.76953C39.2977 5.76953 38.8751 5.94243 38.5635 6.2502C38.2519 6.55797 38.0769 6.97539 38.0769 7.41064V27.662C38.0782 29.4129 38.5171 31.1364 39.3547 32.6795C40.1923 34.2226 41.4027 35.5375 42.8784 36.5076L48.0121 39.9211L48.1284 82.59C48.1284 83.0252 48.3034 83.4426 48.615 83.7504C48.9266 84.0582 49.3492 84.2311 49.7898 84.2311C50.2304 84.2311 50.653 84.0582 50.9646 83.7504C51.2762 83.4426 51.4512 83.0252 51.4512 82.59L51.3349 39.9211L56.5517 36.3106C57.9746 35.3258 59.1359 34.0164 59.937 32.4937C60.7382 30.9709 61.1556 29.2796 61.1538 27.5635V7.41064C61.1538 6.97539 60.9788 6.55797 60.6672 6.2502C60.3556 5.94243 59.933 5.76953 59.4924 5.76953ZM54.6743 33.6684L49.6901 37.1312L44.7059 33.849C43.6853 33.1771 42.8481 32.267 42.2685 31.1993C41.6889 30.1315 41.3848 28.9391 41.3831 27.7276V26.5132C44.0012 27.4881 46.7759 27.9885 49.5738 27.9902H49.7234C52.4714 27.9751 55.1947 27.4749 57.7646 26.5132V27.6291C57.7505 28.7871 57.4604 29.9254 56.9177 30.9519C56.3751 31.9784 55.5951 32.8641 54.6411 33.5371L54.6743 33.6684Z" fill="#A3784E" stroke="#FAF5F0" stroke-width="1.5"/>
<path d="M13.8462 5.76953C5.84691 5.76953 0 19.5094 0 26.6528C0.00669537 29.9555 1.24438 33.1425 3.48122 35.6168C5.71806 38.0912 8.80059 39.6831 12.1514 40.0944V82.5737C12.1514 83.0132 12.33 83.4348 12.6478 83.7456C12.9656 84.0565 13.3967 84.2311 13.8462 84.2311C14.2956 84.2311 14.7267 84.0565 15.0445 83.7456C15.3624 83.4348 15.5409 83.0132 15.5409 82.5737V40.0944C18.8917 39.6831 21.9742 38.0912 24.2111 35.6168C26.4479 33.1425 27.6856 29.9555 27.6923 26.6528C27.6923 19.5094 21.8454 5.76953 13.8462 5.76953ZM13.8462 36.879C11.0729 36.879 8.41319 35.8016 6.45219 33.8838C4.49119 31.9661 3.38951 29.365 3.38951 26.6528C3.38951 20.3547 8.6602 9.08434 13.8462 9.08434C19.0321 9.08434 24.3028 20.3547 24.3028 26.6528C24.3028 27.9958 24.0323 29.3255 23.5068 30.5662C22.9813 31.8069 22.2111 32.9342 21.2401 33.8838C20.2691 34.8334 19.1164 35.5867 17.8477 36.1006C16.5791 36.6145 15.2193 36.879 13.8462 36.879Z" fill="#C0B3A8" stroke="#FAF5F0" stroke-width="1.5"/>
<path d="M89.1337 5.99161C88.8755 5.84612 88.5826 5.76953 88.2844 5.76953C87.9863 5.76953 87.6933 5.84612 87.4351 5.99161C78.2456 10.749 73.8462 18.5729 73.8462 29.9276C73.8462 38.4643 78.1437 45.7081 86.6028 51.4766V82.5735C86.6028 83.0131 86.7818 83.4347 87.1003 83.7456C87.4189 84.0564 87.8509 84.2311 88.3014 84.2311C88.7519 84.2311 89.184 84.0564 89.5025 83.7456C89.8211 83.4347 90 83.0131 90 82.5735V7.41716C89.9965 7.12626 89.9146 6.84138 89.7626 6.59114C89.6105 6.34091 89.3936 6.13414 89.1337 5.99161ZM86.5518 47.2662C80.3349 42.426 77.1925 36.5912 77.1925 29.8779C77.1925 18.6392 81.9995 13.3017 86.5518 10.318V47.2662Z" fill="#C0B3A8" stroke="#FAF5F0" stroke-width="1.5"/>
<path d="M23.0769 51.6924H30.9231" stroke="#C0B3A8" stroke-width="2" stroke-linecap="round"/>
<path d="M23.0769 62.7695H41.0769" stroke="#C0B3A8" stroke-width="2" stroke-linecap="round"/>
</g>
<defs>
<clipPath id="clip0_1738_11240">
<rect width="90" height="90" fill="white"/>
</clipPath>
</defs>
</svg>
