<svg width="90" height="90" viewBox="0 0 90 90" fill="none" xmlns="http://www.w3.org/2000/svg">
<g clip-path="url(#clip0_830_8513)">
<path d="M88.6201 6H1.39384C1.02417 6 0.66964 6.1515 0.408245 6.42116C0.14685 6.69083 0 7.05657 0 7.43793L0 83.6004C0 83.9818 0.14685 84.3475 0.408245 84.6172C0.66964 84.8868 1.02417 85.0383 1.39384 85.0383H88.6201C88.9898 85.0383 89.3443 84.8868 89.6057 84.6172C89.8671 84.3475 90.0139 83.9818 90.0139 83.6004V7.43793C90.0139 7.05657 89.8671 6.69083 89.6057 6.42116C89.3443 6.1515 88.9898 6 88.6201 6ZM79.9133 8.84231V29.4527L73.576 25.7428C73.368 25.6227 73.1336 25.5597 72.8953 25.5597C72.657 25.5597 72.4226 25.6227 72.2146 25.7428L65.882 29.4527V8.84231H79.9133ZM87.2588 82.1769H2.75515V8.84231H63.1129V31.8828C63.1174 32.1296 63.1835 32.3711 63.3047 32.5839C63.4259 32.7967 63.5982 32.9738 63.805 33.098C64.0118 33.2223 64.2461 33.2895 64.4854 33.2932C64.7246 33.297 64.9608 33.2371 65.1711 33.1194L72.8837 28.6043L80.5963 33.1194C80.8066 33.2371 81.0428 33.297 81.282 33.2932C81.5213 33.2895 81.7556 33.2223 81.9624 33.098C82.1691 32.9738 82.3414 32.7967 82.4627 32.5839C82.5839 32.3711 82.6499 32.1296 82.6545 31.8828V8.84231H87.2449L87.2588 82.1769Z" fill="#A3784E" stroke="#FAF5F0" stroke-width="1.5"/>
<path d="M81.2746 39.1781C80.9049 39.1781 80.5504 39.3296 80.289 39.5993C80.0276 39.8689 79.8807 40.2347 79.8807 40.616V74.5944H10.1006V16.4204H57.1473C57.4762 16.3681 57.7762 16.1961 57.9929 15.9354C58.2097 15.6748 58.3288 15.3427 58.3288 14.9993C58.3288 14.6559 58.2097 14.3238 57.9929 14.0631C57.7762 13.8025 57.4762 13.6304 57.1473 13.5781H8.72538C8.35571 13.5781 8.00118 13.7296 7.73979 13.9993C7.47839 14.2689 7.33154 14.6347 7.33154 15.0161V75.9796C7.33154 76.361 7.47839 76.7267 7.73979 76.9964C8.00118 77.266 8.35571 77.4175 8.72538 77.4175H81.2746C81.6442 77.4175 81.9987 77.266 82.2601 76.9964C82.5215 76.7267 82.6684 76.361 82.6684 75.9796V40.6017C82.6647 40.2228 82.5163 39.8607 82.2552 39.5942C81.9943 39.3276 81.6418 39.1781 81.2746 39.1781Z" fill="#C0B3A8" stroke="#FAF5F0" stroke-width="1.5"/>
<path d="M58.5783 60.5886C58.2493 60.6409 57.9493 60.8129 57.7326 61.0736C57.5159 61.3342 57.3967 61.6663 57.3967 62.0097C57.3967 62.3531 57.5159 62.6852 57.7326 62.9459C57.9493 63.2065 58.2493 63.3786 58.5783 63.4309H68.1075C68.3061 63.4624 68.509 63.4493 68.7023 63.3924C68.8956 63.3355 69.0746 63.2362 69.2272 63.1012C69.3798 62.9662 69.5022 62.7987 69.5862 62.6103C69.6701 62.422 69.7136 62.2171 69.7136 62.0097C69.7136 61.8024 69.6701 61.5975 69.5862 61.4091C69.5022 61.2207 69.3798 61.0532 69.2272 60.9183C69.0746 60.7833 68.8956 60.6839 68.7023 60.627C68.509 60.5701 68.3061 60.557 68.1075 60.5886H58.5783Z" fill="#C0B3A8" stroke="#FAF5F0" stroke-width="1.5"/>
<path d="M49.5416 32.3623C49.8706 32.31 50.1705 32.138 50.3873 31.8773C50.604 31.6167 50.7231 31.2846 50.7231 30.9412C50.7231 30.5978 50.604 30.2657 50.3873 30.005C50.1705 29.7444 49.8706 29.5723 49.5416 29.52H40.4584C40.1294 29.5723 39.8294 29.7444 39.6127 30.005C39.396 30.2657 39.2769 30.5978 39.2769 30.9412C39.2769 31.2846 39.396 31.6167 39.6127 31.8773C39.8294 32.138 40.1294 32.31 40.4584 32.3623H49.5416Z" fill="#C0B3A8" stroke="#FAF5F0" stroke-width="1.5"/>
<path d="M19.5974 40.151C19.5974 40.5323 19.7443 40.8981 20.0057 41.1677C20.2671 41.4374 20.6216 41.5889 20.9912 41.5889H69.0275C69.3565 41.5366 69.6565 41.3645 69.8732 41.1039C70.0899 40.8432 70.209 40.5111 70.209 40.1677C70.209 39.8243 70.0899 39.4923 69.8732 39.2316C69.6565 38.9709 69.3565 38.7989 69.0275 38.7466H20.9727C20.6118 38.7514 20.2668 38.9005 20.0103 39.1625C19.7538 39.4244 19.6058 39.7787 19.5974 40.151Z" fill="#C0B3A8" stroke="#FAF5F0" stroke-width="1.5"/>
<path d="M70.4026 49.3823C70.4026 49.0009 70.2558 48.6352 69.9944 48.3655C69.733 48.0958 69.3785 47.9443 69.0088 47.9443H20.9726C20.6436 47.9966 20.3436 48.1687 20.1269 48.4293C19.9101 48.69 19.791 49.0221 19.791 49.3655C19.791 49.7089 19.9101 50.041 20.1269 50.3016C20.3436 50.5623 20.6436 50.7343 20.9726 50.7866H69.0274C69.3883 50.7818 69.7332 50.6327 69.9897 50.3708C70.2462 50.1088 70.3942 49.7545 70.4026 49.3823Z" fill="#C0B3A8" stroke="#FAF5F0" stroke-width="1.5"/>
<path d="M35.6776 59.0119C35.6776 58.6306 35.5307 58.2648 35.2693 57.9951C35.0079 57.7255 34.6534 57.574 34.2837 57.574C33.914 57.574 33.5595 57.7255 33.2981 57.9951C33.0367 58.2648 32.8899 58.6306 32.8899 59.0119C32.8899 59.6818 32.6319 60.3243 32.1727 60.798C31.7135 61.2718 31.0908 61.5379 30.4414 61.5379C29.792 61.5379 29.1692 61.2718 28.71 60.798C28.2508 60.3243 27.9929 59.6818 27.9929 59.0119C28.0235 58.807 28.0108 58.5977 27.9556 58.3983C27.9004 58.1989 27.8041 58.0142 27.6733 57.8568C27.5424 57.6994 27.3801 57.573 27.1975 57.4864C27.0149 57.3998 26.8163 57.355 26.6153 57.355C26.4143 57.355 26.2157 57.3998 26.0331 57.4864C25.8505 57.573 25.6882 57.6994 25.5573 57.8568C25.4265 58.0142 25.3301 58.1989 25.275 58.3983C25.2198 58.5977 25.2071 58.807 25.2377 59.0119C25.2365 59.6815 24.9781 60.3232 24.5192 60.7966C24.0603 61.2701 23.4382 61.5366 22.7892 61.5379C22.4602 61.5902 22.1602 61.7622 21.9435 62.0229C21.7268 62.2836 21.6077 62.6156 21.6077 62.959C21.6077 63.3025 21.7268 63.6345 21.9435 63.8952C22.1602 64.1559 22.4602 64.3279 22.7892 64.3802C23.5098 64.3795 24.2223 64.224 24.8815 63.9236C25.5406 63.6233 26.1319 63.1846 26.6176 62.6355C27.1027 63.1856 27.6938 63.625 28.3531 63.9257C29.0123 64.2264 29.7252 64.3817 30.446 64.3817C31.1668 64.3817 31.8797 64.2264 32.539 63.9257C33.1982 63.625 33.7893 63.1856 34.2744 62.6355C34.7605 63.1858 35.3523 63.6256 36.0123 63.9268C36.6723 64.228 37.3858 64.3841 38.1075 64.385C38.4365 64.3327 38.7365 64.1606 38.9532 63.9C39.1699 63.6393 39.289 63.3072 39.289 62.9638C39.289 62.6204 39.1699 62.2884 38.9532 62.0277C38.7365 61.767 38.4365 61.595 38.1075 61.5427C37.4609 61.5364 36.8429 61.2669 36.3878 60.793C35.9328 60.3191 35.6775 59.679 35.6776 59.0119Z" fill="#C0B3A8" stroke="#FAF5F0" stroke-width="1.5"/>
</g>
<defs>
<clipPath id="clip0_830_8513">
<rect width="90" height="79" fill="white" transform="translate(0 6)"/>
</clipPath>
</defs>
</svg>
