<svg width="90" height="90" viewBox="0 0 90 90" fill="none" xmlns="http://www.w3.org/2000/svg">
<g clip-path="url(#clip0_1738_11170)">
<path d="M44.1289 50.8808L44.1284 50.8801L17.9941 14.6385L17.993 14.637C17.8594 14.4533 17.7874 14.232 17.7874 14.0048C17.7874 13.7781 17.8591 13.5572 17.9923 13.3737C17.9925 13.3733 17.9927 13.373 17.993 13.3727L27.1893 0.886951C27.1895 0.88668 27.1897 0.886409 27.1899 0.886138C27.2904 0.75126 27.421 0.641632 27.5712 0.565934C27.7216 0.490153 27.8876 0.450461 28.056 0.45H61.9441C62.1116 0.450458 62.2767 0.490068 62.4262 0.565674C62.5758 0.641351 62.7056 0.750991 62.8053 0.885831L72.0166 13.3727C72.0168 13.373 72.0171 13.3733 72.0173 13.3737C72.1504 13.5572 72.2221 13.7781 72.2221 14.0048C72.2221 14.232 72.1502 14.4533 72.0166 14.637L72.0156 14.6384L45.867 50.88L45.8665 50.8808C45.7674 51.0187 45.637 51.131 45.4859 51.2085C45.3348 51.286 45.1675 51.3264 44.9977 51.3264C44.8279 51.3264 44.6606 51.286 44.5095 51.2085C44.3584 51.131 44.228 51.0187 44.1289 50.8808ZM62.3588 3.89616C62.2722 3.77871 62.134 3.71054 61.9881 3.71329C61.8422 3.71605 61.7067 3.78938 61.6246 3.91002L55.9606 12.2317C55.8668 12.3696 55.8569 12.548 55.9349 12.6954C56.0129 12.8427 56.1659 12.9349 56.3327 12.9349H68.1325C68.3023 12.9349 68.4576 12.8394 68.5342 12.6878C68.6107 12.5363 68.5955 12.3545 68.4947 12.2179L62.3588 3.89616ZM59.4473 3.29722C59.5409 3.15935 59.5506 2.98106 59.4726 2.83383C59.3946 2.6866 59.2416 2.59453 59.0749 2.59453H47.8698C47.7032 2.59453 47.5502 2.6866 47.4722 2.83383C47.3941 2.98106 47.4039 3.15935 47.4974 3.29722L53.1 11.5528C53.1838 11.6763 53.3232 11.7502 53.4724 11.7502C53.6215 11.7502 53.761 11.6763 53.8447 11.5528L59.4473 3.29722ZM50.579 12.9349C50.7456 12.9349 50.8985 12.8429 50.9766 12.6958C51.0546 12.5487 51.045 12.3705 50.9516 12.2326L45.3726 3.99582C45.289 3.87234 45.1496 3.79832 45.0005 3.79818C44.8514 3.79803 44.7118 3.87178 44.628 3.99509L39.0254 12.2318C38.9316 12.3697 38.9218 12.5481 38.9997 12.6954C39.0777 12.8428 39.2308 12.9349 39.3975 12.9349H50.579ZM36.1507 11.5528C36.2344 11.6763 36.3739 11.7502 36.523 11.7502C36.6722 11.7502 36.8116 11.6763 36.8954 11.5528L42.498 3.29722C42.5915 3.15935 42.6012 2.98106 42.5232 2.83383C42.4452 2.6866 42.2922 2.59453 42.1256 2.59453H30.9204C30.7538 2.59453 30.6008 2.6866 30.5228 2.83383C30.4448 2.98106 30.4545 3.15935 30.5481 3.29722L36.1507 11.5528ZM33.6533 12.9349C33.82 12.9349 33.9731 12.8427 34.0511 12.6954C34.129 12.548 34.1191 12.3696 34.0253 12.2317L28.3614 3.91002C28.2793 3.78938 28.1437 3.71605 27.9978 3.71329C27.8519 3.71054 27.7138 3.77871 27.6272 3.89616L21.4912 12.2179C21.3905 12.3545 21.3752 12.5363 21.4517 12.6878C21.5283 12.8394 21.6836 12.9349 21.8534 12.9349H33.6533ZM68.5352 15.7927C68.6341 15.6557 68.6478 15.4749 68.5709 15.3245C68.4939 15.1741 68.3392 15.0794 68.1703 15.0794H21.8251C21.6562 15.0794 21.5014 15.1741 21.4245 15.3245C21.3475 15.4749 21.3613 15.6557 21.4602 15.7927L40.9536 42.8112C41.0809 42.9876 41.3162 43.0477 41.5125 42.9539C41.7089 42.8601 41.8099 42.6392 41.7526 42.4293L36.589 23.5249L36.5889 23.5248C36.514 23.2506 36.5511 22.9579 36.692 22.711C36.8328 22.4641 37.066 22.2833 37.3402 22.2083C37.6144 22.1334 37.9071 22.1705 38.154 22.3114C38.4008 22.4522 38.5816 22.6854 38.6566 22.9596C38.6566 22.9596 38.6566 22.9596 38.6566 22.9597L44.566 44.597C44.6194 44.7927 44.7971 44.9284 45 44.9284C45.2028 44.9284 45.3806 44.7928 45.4341 44.5971L51.3435 22.9833L51.3435 22.9833C51.4185 22.7091 51.5993 22.4759 51.8461 22.335C52.093 22.1941 52.3857 22.157 52.6599 22.2319C52.9341 22.3069 53.1673 22.4877 53.3082 22.7346C53.449 22.9815 53.4861 23.2742 53.4112 23.5484L48.2476 42.4291C48.1901 42.6391 48.2912 42.86 48.4875 42.9539C48.6839 43.0477 48.9193 42.9876 49.0466 42.8111L68.5352 15.7927Z" fill="#A3784E" stroke="#FAF5F0" stroke-width="0.9" stroke-linejoin="round"/>
<path d="M87.1573 62.6432L87.1564 62.6454C86.643 63.8367 85.5019 65.1634 83.8375 66.5636C82.1637 67.9717 79.9237 69.4846 77.1605 71.0396C77.0266 71.1149 76.8634 71.1167 76.7278 71.0443C70.0552 67.4801 61.2173 63.9931 51.134 61.0871C50.9364 61.0302 50.8025 60.8466 50.8088 60.641C50.8151 60.4355 50.9599 60.2603 51.1605 60.2155C57.9139 58.708 64.7812 57.7667 71.6911 57.4016L71.6964 57.4013C72.6963 57.3602 73.6559 57.3396 74.5751 57.3396C78.5001 57.3396 81.4045 57.7084 83.441 58.2766C84.4594 58.5607 85.2727 58.898 85.8913 59.2725C86.5069 59.645 86.9543 60.0695 87.2024 60.5389M87.1573 62.6432L87.2024 60.5389M87.1573 62.6432C87.3717 62.1386 87.4454 61.7171 87.4287 61.3589M87.1573 62.6432L87.4287 61.3589M87.2024 60.5389C87.3042 60.7307 87.4118 60.9974 87.4287 61.3589M87.2024 60.5389L87.4287 61.3589M79.743 71.9892C79.6076 72.0706 79.5248 72.217 79.5248 72.375C79.5248 72.533 79.6076 72.6794 79.743 72.7607C82.2327 74.2565 84.3047 75.7452 85.8918 77.1875C87.4831 78.6335 88.5641 80.0124 89.1044 81.2834C89.1073 81.2903 89.1104 81.2971 89.1137 81.3039C89.4113 81.9169 89.5623 82.5908 89.5549 83.2722C89.5474 83.9528 89.3821 84.6224 89.072 85.2282C88.3066 86.6783 86.6149 87.7733 84.0875 88.5016C81.5707 89.2269 78.3066 89.5644 74.5279 89.5644C66.2138 89.5644 55.5289 87.9159 45.1083 85.3294C45.037 85.3117 44.9623 85.3118 44.891 85.3296C34.4713 87.9299 23.7816 89.5644 15.4719 89.5644C11.6933 89.5644 8.42911 89.2269 5.91176 88.5016C3.3837 87.7732 1.69046 86.6781 0.922767 85.2275C0.610122 84.6201 0.443101 83.9483 0.434934 83.2652C0.426757 82.5813 0.578022 81.905 0.876732 81.2897C0.879695 81.2836 0.882519 81.2775 0.885203 81.2712C1.43017 80.0062 2.51289 78.6303 4.10376 77.1858C5.69052 75.7451 7.76032 74.2563 10.2476 72.7606C10.3829 72.6792 10.4657 72.5328 10.4657 72.3748C10.4656 72.2168 10.3827 72.0704 10.2472 71.9891C7.75522 70.4934 5.68317 69.0058 4.09654 67.5664C2.50577 66.1231 1.4259 64.7488 0.885728 63.4847C0.883011 63.4783 0.880148 63.472 0.877141 63.4658C0.580408 62.8514 0.430225 62.1765 0.4384 61.4942C0.446564 60.8128 0.612442 60.1426 0.923012 59.5361C1.72828 58.0141 3.55561 56.8848 6.29275 56.1603C9.01624 55.4394 12.5492 55.1443 16.6194 55.2145C24.7555 55.3547 34.9459 56.9522 44.8915 59.4205C44.9627 59.4382 45.0372 59.4382 45.1083 59.4205C55.0516 56.9522 65.242 55.3547 73.3781 55.2145C77.4483 55.1443 80.9813 55.4394 83.7044 56.1603C86.4413 56.8848 88.2679 58.0141 89.072 59.5359C89.3822 60.1426 89.5475 60.8129 89.5549 61.4943C89.5624 62.1765 89.4113 62.8512 89.1136 63.4652C89.1105 63.4716 89.1075 63.4781 89.1047 63.4847C88.5646 64.7487 87.4837 66.123 85.8922 67.5663C84.3049 69.0058 82.2328 70.4934 79.743 71.9892ZM44.8893 83.0682C44.9619 83.0866 45.0379 83.0866 45.1104 83.0682C46.7922 82.6422 48.4802 82.1863 50.1743 81.7004L50.1744 81.7004C59.8009 78.9376 67.7809 75.8223 73.8518 72.7772C74.004 72.7009 74.1001 72.5451 74.1 72.3748C74.1 72.2045 74.0038 72.0489 73.8515 71.9726C67.7813 68.9326 59.8017 65.8031 50.1747 63.0497C48.4794 62.5619 46.7898 62.1123 45.1117 61.6821C45.0391 61.6635 44.9631 61.6633 44.8905 61.6815C43.208 62.1033 41.5125 62.577 39.8282 63.0488L39.8255 63.0496C30.1988 65.8124 22.219 68.9324 16.1483 71.9726C15.9961 72.0489 15.8999 72.2045 15.8998 72.3748C15.8998 72.545 15.9958 72.7008 16.148 72.7772C22.214 75.8222 30.1939 78.947 39.8256 81.7004C41.5158 82.1881 43.21 82.6424 44.8893 83.0682ZM2.83995 60.5389L2.83993 60.5389L2.83785 60.5429C2.73993 60.7328 2.63385 60.9987 2.61775 61.3598C2.60183 61.7169 2.6751 62.1375 2.88892 62.6414C3.38638 63.8411 4.52266 65.169 6.1868 66.5673C7.8616 67.9746 10.1102 69.4852 12.8874 71.04C13.0213 71.115 13.1841 71.1166 13.3194 71.0442C19.9871 67.4801 28.8438 63.9884 38.9131 61.0871C39.1107 61.0302 39.2445 60.8466 39.2383 60.641C39.232 60.4355 39.0872 60.2603 38.8865 60.2155C32.1331 58.7083 25.2658 57.767 18.356 57.4016L18.356 57.4015L18.3504 57.4013C17.335 57.3602 16.3755 57.3396 15.4719 57.3396C11.5469 57.3396 8.64139 57.7084 6.60381 58.2765C5.58485 58.5607 4.77098 58.898 4.15188 59.2724C3.53596 59.6449 3.08807 60.0694 2.83995 60.5389ZM2.81558 84.2285L2.81557 84.2285L2.81756 84.2322C3.09472 84.7495 3.61843 85.2154 4.35132 85.6192C5.08936 86.0258 6.0724 86.3878 7.31858 86.6804C9.81108 87.2657 13.4077 87.5856 18.326 87.396L18.333 87.3956C25.2436 87.0205 32.1109 86.0698 38.8635 84.5532C39.064 84.5081 39.2086 84.3329 39.2147 84.1274C39.2208 83.922 39.0868 83.7385 38.8893 83.6817C28.8062 80.7804 19.9635 77.2888 13.2955 73.7292C13.1601 73.6569 12.9972 73.6586 12.8633 73.7338C10.0975 75.2865 7.85737 76.7995 6.1841 78.2083C4.52006 79.6093 3.38041 80.9371 2.86704 82.1282L2.86612 82.1303C2.65171 82.635 2.5782 83.0562 2.59415 83.4132C2.61027 83.7739 2.71648 84.0393 2.81558 84.2285ZM87.1791 84.2295L87.1822 84.2233C87.2807 84.0293 87.3875 83.7621 87.4073 83.4012C87.4269 83.0436 87.3596 82.6234 87.1557 82.1188L87.1558 82.1188L87.1524 82.1108C86.6435 80.9183 85.5017 79.5899 83.8362 78.1893C82.1612 76.7806 79.9188 75.2676 77.1556 73.715C77.0219 73.6399 76.8592 73.638 76.7238 73.71C70.0319 77.2698 61.1796 80.7615 51.0966 83.658C50.899 83.7148 50.765 83.8982 50.771 84.1037C50.7771 84.3092 50.9216 84.4845 51.1222 84.5296C57.8747 86.0465 64.7421 86.9973 71.6527 87.372L71.6587 87.3722C76.5838 87.5738 80.184 87.2647 82.678 86.6848C83.9249 86.3948 84.9085 86.0341 85.6467 85.6266C86.38 85.2218 86.9034 84.7527 87.1791 84.2295Z" fill="#C0B3A8" stroke="#FAF5F0" stroke-width="0.9" stroke-linejoin="round"/>
</g>
<defs>
<clipPath id="clip0_1738_11170">
<rect width="90" height="90" fill="white"/>
</clipPath>
</defs>
</svg>
