<svg width="90" height="90" viewBox="0 0 90 90" fill="none" xmlns="http://www.w3.org/2000/svg">
<g clip-path="url(#clip0_1738_11223)">
<path d="M88.672 75.6181C87.4007 73.515 79.1489 59.483 76.6345 55.3807H88.8516C89.1453 55.3619 89.4209 55.232 89.6222 55.0174C89.8235 54.8027 89.9356 54.5195 89.9356 54.2252C89.9356 53.9309 89.8235 53.6476 89.6222 53.433C89.4209 53.2184 89.1453 53.0884 88.8516 53.0697H75.212C74.0919 51.2737 73.0049 49.577 71.9888 48.0599C71.5539 47.4077 71.1664 46.7744 70.8167 46.1695H88.8516C89.1575 46.1695 89.4508 46.048 89.6671 45.8317C89.8833 45.6155 90.0048 45.3221 90.0048 45.0163C90.0048 44.7105 89.8833 44.4171 89.6671 44.2009C89.4508 43.9846 89.1575 43.8631 88.8516 43.8631H86.016V14.027C86.0166 10.4062 84.6172 6.92535 82.1104 4.31269C79.6036 1.70003 76.1836 0.157915 72.5658 0.00895678C68.9481 -0.140001 65.4129 1.11573 62.6998 3.51347C59.9867 5.9112 58.3058 9.26518 58.0088 12.8738H53.3441C53.0378 12.8738 52.744 12.9951 52.527 13.2113C52.31 13.4274 52.1874 13.7207 52.1862 14.027V19.3344H49.5679C49.267 19.3347 48.9783 19.4536 48.7645 19.6653C47.0678 21.3147 48.1406 22.7798 48.7645 23.6541C49.3174 24.415 49.894 25.1996 49.894 26.5134V36.8164C49.9283 39.2282 49.4632 41.6209 48.5282 43.8442H40.0589C39.7531 43.8442 39.4597 43.9657 39.2435 44.182C39.0272 44.3982 38.9057 44.6916 38.9057 44.9974C38.9057 45.3032 39.0272 45.5966 39.2435 45.8128C39.4597 46.0291 39.7531 46.1506 40.0589 46.1506H47.4033C47.0489 46.7792 46.6613 47.4125 46.2265 48.041C42.5638 53.5423 32.6483 70.4193 32.6483 70.4193C32.4929 70.6832 32.4486 70.998 32.5253 71.2945C32.602 71.5909 32.7933 71.8448 33.0571 72.0002C33.321 72.1557 33.6358 72.1999 33.9322 72.1232C34.2287 72.0466 34.4826 71.8553 34.638 71.5914C34.638 71.5914 39.1373 63.9492 40.5552 61.5673C41.283 61.7232 41.7414 62.1722 42.3227 62.7488C43.1876 63.609 44.2605 64.6723 46.3305 64.6723C48.4006 64.6723 49.4781 63.609 50.3383 62.7488C51.0661 62.021 51.5954 61.4964 52.7013 61.4964C53.8073 61.4964 54.3508 62.021 55.0644 62.7488C55.9246 63.609 56.9974 64.6723 59.0722 64.6723C61.147 64.6723 62.2151 63.609 63.08 62.7488C63.8078 62.021 64.3371 61.4964 65.443 61.4964C66.549 61.4964 67.0925 62.021 67.8061 62.7488C68.671 63.609 69.7438 64.6723 71.8139 64.6723C73.8839 64.6723 74.9615 63.609 75.8217 62.7488C76.403 62.1722 76.8661 61.7232 77.5892 61.5673C79.1394 64.1572 85.3543 74.7249 86.6304 76.8374C88.5775 80.0607 87.1739 83.2697 86.4791 84.4985C85.2929 86.5969 83.6434 87.7123 82.9061 87.7123H36.4765C36.1828 87.7311 35.9073 87.861 35.7059 88.0757C35.5046 88.2903 35.3925 88.5736 35.3925 88.8679C35.3925 89.1621 35.5046 89.4454 35.7059 89.66C35.9073 89.8747 36.1828 90.0046 36.4765 90.0234H82.9723C84.8013 90.0234 87.0982 88.218 88.5539 85.6328C90.4396 82.2631 90.4869 78.6239 88.672 75.6181ZM71.984 2.30612C75.0914 2.30987 78.0705 3.54595 80.2678 5.74322C82.465 7.94049 83.7011 10.9196 83.7049 14.027V43.8442H69.6777C68.7369 41.6193 68.2717 39.2223 68.3118 36.807V26.5134C68.3118 25.1996 68.8837 24.415 69.4366 23.6541C70.0794 22.7798 71.1522 21.3147 69.4366 19.6653C69.2228 19.4536 68.9341 19.3347 68.6332 19.3344H66.0149V14.027C66.0149 13.7211 65.8934 13.4278 65.6771 13.2115C65.4609 12.9953 65.1676 12.8738 64.8617 12.8738H60.301C60.5916 9.97734 61.948 7.29217 64.1068 5.33942C66.2657 3.38668 69.073 2.30564 71.984 2.30612ZM54.4973 15.1801H63.7274V19.3344H54.4926L54.4973 15.1801ZM74.2668 61.0899C73.5342 61.8177 73.0049 62.3424 71.9037 62.3424C70.8025 62.3424 70.2543 61.8177 69.5406 61.0899C68.6804 60.2345 67.6076 59.1664 65.5328 59.1664C63.4581 59.1664 62.3899 60.2345 61.5251 61.0899C60.7972 61.8177 60.2679 62.3424 59.162 62.3424C58.0561 62.3424 57.5126 61.8177 56.7989 61.0899C55.9388 60.2345 54.8659 59.1664 52.7911 59.1664C50.7164 59.1664 49.6483 60.2345 48.7834 61.0899C48.0555 61.8177 47.5262 62.3424 46.4203 62.3424C45.3144 62.3424 44.7709 61.8177 44.0572 61.0899C43.4495 60.4158 42.7073 59.8765 41.8785 59.5067C44.0809 55.8486 46.2691 52.3087 48.2493 49.3455C51.1323 45.0305 52.3516 41.2779 52.3185 36.807V26.5134C52.2931 24.9678 51.7375 23.4779 50.7447 22.293C50.5844 22.0868 50.4376 21.8706 50.3052 21.6455H68.118C67.9874 21.8706 67.8421 22.0869 67.6832 22.293C66.6867 23.476 66.1291 24.9668 66.1047 26.5134V36.7975C66.0763 41.2779 67.291 45.0305 70.1739 49.3455C72.1116 52.2473 74.3093 55.7966 76.54 59.5067C75.6759 59.865 74.899 60.4049 74.262 61.0899H74.2668Z" fill="#A3784E" stroke="#FAF5F0" stroke-width="0.8"/>
<path d="M62.1866 81.4453C62.4803 81.4265 62.7558 81.2966 62.9572 81.0819C63.1585 80.8673 63.2706 80.584 63.2706 80.2897C63.2706 79.9954 63.1585 79.7122 62.9572 79.4976C62.7558 79.2829 62.4803 79.153 62.1866 79.1342H56.0426C55.8847 79.1241 55.7263 79.1465 55.5773 79.2C55.4284 79.2535 55.2919 79.3369 55.1765 79.4452C55.0611 79.5535 54.969 79.6843 54.9061 79.8296C54.8432 79.9749 54.8108 80.1315 54.8108 80.2897C54.8108 80.448 54.8432 80.6046 54.9061 80.7499C54.969 80.8951 55.0611 81.0259 55.1765 81.1342C55.2919 81.2425 55.4284 81.326 55.5773 81.3795C55.7263 81.433 55.8847 81.4554 56.0426 81.4453H62.1866Z" fill="#C0B3A8" stroke="#FAF5F0" stroke-width="0.8"/>
<path d="M74.3565 73.7273C74.6623 73.7273 74.9557 73.6058 75.1719 73.3895C75.3882 73.1732 75.5097 72.8799 75.5097 72.5741C75.5097 72.2682 75.3882 71.9749 75.1719 71.7587C74.9557 71.5424 74.6623 71.4209 74.3565 71.4209H68.2125C67.9067 71.4209 67.6133 71.5424 67.3971 71.7587C67.1808 71.9749 67.0593 72.2682 67.0593 72.5741C67.0593 72.8799 67.1808 73.1732 67.3971 73.3895C67.6133 73.6058 67.9067 73.7273 68.2125 73.7273H74.3565Z" fill="#C0B3A8" stroke="#FAF5F0" stroke-width="0.8"/>
<path d="M50.0215 73.7273C50.3274 73.7273 50.6207 73.6058 50.837 73.3895C51.0532 73.1732 51.1747 72.8799 51.1747 72.5741C51.1747 72.2682 51.0532 71.9749 50.837 71.7587C50.6207 71.5424 50.3274 71.4209 50.0215 71.4209H43.8775C43.5717 71.4209 43.2784 71.5424 43.0621 71.7587C42.8459 71.9749 42.7244 72.2682 42.7244 72.5741C42.7244 72.8799 42.8459 73.1732 43.0621 73.3895C43.2784 73.6058 43.5717 73.7273 43.8775 73.7273H50.0215Z" fill="#C0B3A8" stroke="#FAF5F0" stroke-width="0.8"/>
<path d="M24.1884 73.4578H8.27075C6.69015 73.4578 5.17429 72.8299 4.05663 71.7122C2.93898 70.5946 2.31109 69.0787 2.31109 67.4981C2.31109 65.9175 2.93898 64.4017 4.05663 63.284C5.17429 62.1663 6.69015 61.5385 8.27075 61.5385H25.1998C27.3934 61.5385 29.497 60.6671 31.0481 59.116C32.5992 57.5649 33.4706 55.4612 33.4706 53.2677C33.4706 51.0742 32.5992 48.9705 31.0481 47.4194C29.497 45.8683 27.3934 44.9969 25.1998 44.9969H9.27742C7.69682 44.9969 6.18096 44.3691 5.0633 43.2514C3.94565 42.1337 3.31775 40.6179 3.31775 39.0373C3.31775 37.4567 3.94565 35.9408 5.0633 34.8232C6.18096 33.7055 7.69682 33.0776 9.27742 33.0776H24.1884C26.382 33.0776 28.4857 32.2062 30.0367 30.6552C31.5878 29.1041 32.4592 27.0004 32.4592 24.8068C32.4592 22.6133 31.5878 20.5096 30.0367 18.9585C28.4857 17.4075 26.382 16.5361 24.1884 16.5361H8.27075C6.69015 16.5361 5.17429 15.9082 4.05663 14.7905C2.93898 13.6729 2.31109 12.157 2.31109 10.5764C2.31109 8.99582 2.93898 7.47995 4.05663 6.3623C5.17429 5.24464 6.69015 4.61675 8.27075 4.61675H32.3127C32.6064 4.59796 32.8819 4.46804 33.0832 4.2534C33.2846 4.03876 33.3966 3.7555 33.3966 3.46121C33.3966 3.16691 33.2846 2.88366 33.0832 2.66902C32.8819 2.45438 32.6064 2.32446 32.3127 2.30566H8.27075C6.07721 2.30566 3.97352 3.17704 2.42245 4.72811C0.871381 6.27918 0 8.38288 0 10.5764C0 12.77 0.871381 14.8737 2.42245 16.4247C3.97352 17.9758 6.07721 18.8472 8.27075 18.8472H24.1884C25.769 18.8472 27.2849 19.4751 28.4025 20.5927C29.5202 21.7104 30.1481 23.2262 30.1481 24.8068C30.1481 26.3875 29.5202 27.9033 28.4025 29.021C27.2849 30.1386 25.769 30.7665 24.1884 30.7665H9.27742C7.08388 30.7665 4.98018 31.6379 3.42912 33.189C1.87805 34.74 1.00667 36.8437 1.00667 39.0373C1.00667 41.2308 1.87805 43.3345 3.42912 44.8856C4.98018 46.4366 7.08388 47.308 9.27742 47.308H25.1998C26.7804 47.308 28.2963 47.9359 29.4139 49.0536C30.5316 50.1712 31.1595 51.6871 31.1595 53.2677C31.1595 54.8483 30.5316 56.3642 29.4139 57.4818C28.2963 58.5995 26.7804 59.2274 25.1998 59.2274H8.27075C6.07721 59.2274 3.97352 60.0988 2.42245 61.6498C0.871381 63.2009 2.46488e-07 65.3046 2.46488e-07 67.4981C2.46488e-07 69.6917 0.871381 71.7954 2.42245 73.3464C3.97352 74.8975 6.07721 75.7689 8.27075 75.7689H24.1884C25.769 75.7689 27.2849 76.3968 28.4025 77.5144C29.5202 78.6321 30.1481 80.1479 30.1481 81.7285C30.1481 83.3092 29.5202 84.825 28.4025 85.9427C27.2849 87.0603 25.769 87.6882 24.1884 87.6882H1.15318C0.859484 87.707 0.583963 87.8369 0.382618 88.0516C0.181273 88.2662 0.069212 88.5495 0.069212 88.8438C0.069212 89.1381 0.181273 89.4213 0.382618 89.636C0.583963 89.8506 0.859484 89.9805 1.15318 89.9993H24.1884C26.382 89.9993 28.4857 89.1279 30.0367 87.5769C31.5878 86.0258 32.4592 83.9221 32.4592 81.7285C32.4592 79.535 31.5878 77.4313 30.0367 75.8802C28.4857 74.3292 26.382 73.4578 24.1884 73.4578Z" fill="#C0B3A8" stroke="#FAF5F0" stroke-width="0.8"/>
</g>
<defs>
<clipPath id="clip0_1738_11223">
<rect width="90" height="90" fill="white"/>
</clipPath>
</defs>
</svg>
