<?xml version="1.0" encoding="utf-8"?><svg viewBox="0 0 502.66 502.66" xmlns="http://www.w3.org/2000/svg" xmlns:xlink="http://www.w3.org/1999/xlink"><style>:root>svg{display:none}:root>svg:target{display:block}</style><svg viewBox="0 0 26 15" id="arr-left" xmlns="http://www.w3.org/2000/svg"><path d="M8.385 14.5L1 7.525m0 0L8.385.5M1 7.525h24"/></svg><svg viewBox="0 0 34 15" id="arr-left-ext" xmlns="http://www.w3.org/2000/svg"><path d="M8.385 14.5L1 7.525m0 0L8.385.5M1 7.525h32"/></svg><svg viewBox="0 0 26 15" id="arr-right" xmlns="http://www.w3.org/2000/svg"><path d="M17.615 14.5L25 7.525m0 0L17.615.5M25 7.525H1"/></svg><svg viewBox="0 0 34 15" id="arr-right-ext" xmlns="http://www.w3.org/2000/svg"><path d="M25.615 14.5L33 7.525m0 0L25.615.5M33 7.525H1"/></svg><svg viewBox="0 0 42 22" id="burger" xmlns="http://www.w3.org/2000/svg"><path d="M1 1h40M1 11h40M1 21h40"/></svg><svg viewBox="0 0 30 30" id="close" xmlns="http://www.w3.org/2000/svg"><path d="M1 1l28.284 28.284M1 29.284L29.284 1"/></svg><svg viewBox="0 0 502.664 502.664" id="icon" xmlns="http://www.w3.org/2000/svg"><path d="M153.821 358.226L0 274.337v-46.463l153.821-83.414v54.574L46.636 250.523l107.185 53.431v54.272zm26.273 29.358L282.103 115.08h32.227L212.084 387.584h-31.99zm168.749-29.358v-54.272l107.164-52.999-107.164-52.59v-53.927l153.821 83.522v46.183l-153.821 84.083z"/></svg><svg viewBox="0 0 78 61" id="sk-logo" xmlns="http://www.w3.org/2000/svg"><path d="M5.79 46.826l-.125-.112-4.97 4.768.46.548c3.355 3.896 9.393 6.81 16.562 7.992h.087l6.622-6.635h-.398c-7.206-.187-14.002-2.64-18.189-6.549m45.635-20.903L76.323 1.273h-9.828L36.59 30.74a71.466 71.466 0 00-11.083-4.034c-7.865-2.39-14.66-4.444-14.66-10.209 0-5.141 5.193-8.453 13.231-8.453a30.377 30.377 0 0113.356 3.274l.125.063 5.106-5.117-.161-.125C37.745 2.68 29.806.862 24.426.862 11.095.862 2.807 6.775 2.807 16.299c0 10.819 10.586 14.106 19.88 17.007 6.088 1.892 11.828 3.734 14.176 7.245l.112.174 8.697-8.627 21.792 27.14.112.137h9.816l-25.918-33.44z"/></svg><svg viewBox="0 0 24 26" id="topmenu-arr-l1" xmlns="http://www.w3.org/2000/svg"><path d="M6 25l12-12L6 1"/></svg></svg>