<?xml version="1.0" encoding="utf-8"?><svg viewBox="0 0 502.66 502.66" xmlns="http://www.w3.org/2000/svg" xmlns:xlink="http://www.w3.org/1999/xlink"><style>:root>svg{display:none}:root>svg:target{display:block}</style><svg viewBox="0 0 86 50" id="360sign" xmlns="http://www.w3.org/2000/svg"><path d="M43 43.624c-23.196 0-42-7.387-42-16.5C1 23.75 3.577 20.614 8 18m73.5 2.52c2.251 2.022 3.5 4.256 3.5 6.604 0 7.546-12.895 13.91-30.5 15.874"/><path d="M39 38.5l4.5 5L39 49"/><circle cx="78.5" cy="4.5" r="1.75"/><g clip-path="url(#aaa)"><path d="M17.605 14.567h5.538m0 0a5.53 5.53 0 013.917 1.627 5.56 5.56 0 010 7.853 5.532 5.532 0 01-3.916 1.626H14.44m8.704-11.106a5.532 5.532 0 003.916-1.626 5.56 5.56 0 000-7.853 5.532 5.532 0 00-3.916-1.627H14.44m56.97 31.731c0 10.516-12.755 19.039-28.486 19.039-15.73 0-28.485-8.523-28.485-19.039m34.816-31.73H46.09a9.483 9.483 0 00-6.714 2.788 9.532 9.532 0 00-2.78 6.73v6.347m0 0c0 1.683.666 3.297 1.853 4.487a6.322 6.322 0 004.476 1.859h1.583a6.322 6.322 0 004.476-1.859 6.354 6.354 0 001.854-4.487V17.74a6.354 6.354 0 00-1.854-4.487 6.322 6.322 0 00-4.476-1.859h-1.583a6.322 6.322 0 00-4.476 1.859 6.354 6.354 0 00-1.854 4.487v1.587zm22.155-4.76v-4.76c0-1.683.667-3.297 1.854-4.487a6.322 6.322 0 014.476-1.859h1.582c1.68 0 3.29.669 4.477 1.86a6.354 6.354 0 011.854 4.487v9.519a6.354 6.354 0 01-1.854 4.487 6.322 6.322 0 01-4.477 1.859h-1.582a6.322 6.322 0 01-4.476-1.859 6.354 6.354 0 01-1.854-4.487v-4.76z"/></g><defs><clipPath id="aaa"><path transform="translate(13)" d="M0 0h61v30H0z"/></clipPath></defs></svg><svg viewBox="0 0 26 15" id="arr-left" xmlns="http://www.w3.org/2000/svg"><path d="M8.385 14.5L1 7.525m0 0L8.385.5M1 7.525h24"/></svg><svg viewBox="0 0 34 15" id="arr-left-ext" xmlns="http://www.w3.org/2000/svg"><path d="M8.385 14.5L1 7.525m0 0L8.385.5M1 7.525h32"/></svg><svg viewBox="0 0 8 14" id="arr-mob-sm" xmlns="http://www.w3.org/2000/svg"><path d="M1.375 13l6-6-6-6"/></svg><svg viewBox="0 0 26 15" id="arr-right" xmlns="http://www.w3.org/2000/svg"><path d="M17.615 14.5L25 7.525m0 0L17.615.5M25 7.525H1"/></svg><svg viewBox="0 0 34 15" id="arr-right-ext" xmlns="http://www.w3.org/2000/svg"><path d="M25.615 14.5L33 7.525m0 0L25.615.5M33 7.525H1"/></svg><svg viewBox="0 0 26 15" id="arr-right-white" xmlns="http://www.w3.org/2000/svg"><path d="M17.615 14.5L25 7.525m0 0L17.615.5M25 7.525H1"/></svg><svg viewBox="0 0 56 42" id="back-big" xmlns="http://www.w3.org/2000/svg"><path d="M25.645 28.637l-8.145-7.61m0 0l8.145-7.663M17.5 21.028H55M40.75 21c0 11.33-9.019 20.5-20.125 20.5S.5 32.33.5 21 9.519.5 20.625.5 40.75 9.67 40.75 21z"/></svg><svg viewBox="0 0 80 66" id="back-big-hov" xmlns="http://www.w3.org/2000/svg"><path d="M32.923 45L20 33.043m0 0L32.923 21M20 33.043h56"/><circle cx="33" cy="33" r="32.5"/></svg><svg viewBox="0 0 100 66" id="back-big-hov1" xmlns="http://www.w3.org/2000/svg"><path d="M32.923 45L20 33.043m0 0L32.923 21M20 33.043h56"/><circle cx="33" cy="33" r="32.5"/></svg><svg viewBox="0 0 89 66" id="back-big-white" xmlns="http://www.w3.org/2000/svg"><path d="M41.032 45L28 33.043m0 0L41.032 21M28 33.043h60"/><circle cx="33" cy="33" r="32.5"/></svg><svg viewBox="0 0 42 22" id="burger" xmlns="http://www.w3.org/2000/svg"><path d="M1 1h40M1 11h40M1 21h40"/></svg><svg viewBox="0 0 30 30" id="close" xmlns="http://www.w3.org/2000/svg"><path d="M1 1l28.284 28.284M1 29.284L29.284 1"/></svg><svg viewBox="0 0 502.664 502.664" id="icon" xmlns="http://www.w3.org/2000/svg"><path d="M153.821 358.226L0 274.337v-46.463l153.821-83.414v54.574L46.636 250.523l107.185 53.431v54.272zm26.273 29.358L282.103 115.08h32.227L212.084 387.584h-31.99zm168.749-29.358v-54.272l107.164-52.999-107.164-52.59v-53.927l153.821 83.522v46.183l-153.821 84.083z"/></svg><svg viewBox="0 0 14 13" id="icon-arrow-up-2-thin" xmlns="http://www.w3.org/2000/svg"><path d="M1 9.125l6-6 6 6"/></svg><svg viewBox="0 0 16 17" id="icon-download" xmlns="http://www.w3.org/2000/svg"><path d="M3.294 8.5L8 13.337l4.706-4.79M8 .5v12.571M.941 16.5H15.06"/></svg><svg viewBox="0 0 40 40" id="icon-filter-outline" xmlns="http://www.w3.org/2000/svg"><g clip-path="url(#aqa)"><path d="M0 10h40M7.143 20h25.714M15.714 30h8.572"/></g><defs><clipPath id="aqa"><path d="M0 0h40v40H0z"/></clipPath></defs></svg><svg viewBox="0 0 24 24" id="icon-search" xmlns="http://www.w3.org/2000/svg"><path d="M17 17l4 4M3 11a8 8 0 1016 0 8 8 0 00-16 0z"/></svg><svg viewBox="0 0 86 50" id="icon360" xmlns="http://www.w3.org/2000/svg"><path d="M43 43.624c-23.196 0-42-7.387-42-16.5C1 23.75 3.577 20.614 8 18m73.5 2.52c2.251 2.022 3.5 4.256 3.5 6.604 0 7.546-12.895 13.91-30.5 15.874"/><path d="M39 38.5l4.5 5L39 49"/><circle cx="78.5" cy="4.5" r="1.75"/><g clip-path="url(#asa)"><path d="M17.605 14.567h5.538m0 0a5.53 5.53 0 013.917 1.627 5.56 5.56 0 010 7.853 5.532 5.532 0 01-3.916 1.626H14.44m8.704-11.106a5.532 5.532 0 003.916-1.626 5.56 5.56 0 000-7.853 5.532 5.532 0 00-3.916-1.627H14.44m56.97 31.731c0 10.516-12.755 19.039-28.486 19.039-15.73 0-28.485-8.523-28.485-19.039m34.816-31.73H46.09a9.483 9.483 0 00-6.714 2.788 9.532 9.532 0 00-2.78 6.73v6.347m0 0c0 1.683.666 3.297 1.853 4.487a6.322 6.322 0 004.476 1.859h1.583a6.322 6.322 0 004.476-1.859 6.354 6.354 0 001.854-4.487V17.74a6.354 6.354 0 00-1.854-4.487 6.322 6.322 0 00-4.476-1.859h-1.583a6.322 6.322 0 00-4.476 1.859 6.354 6.354 0 00-1.854 4.487v1.587zm22.155-4.76v-4.76c0-1.683.667-3.297 1.854-4.487a6.322 6.322 0 014.476-1.859h1.582c1.68 0 3.29.669 4.477 1.86a6.354 6.354 0 011.854 4.487v9.519a6.354 6.354 0 01-1.854 4.487 6.322 6.322 0 01-4.477 1.859h-1.582a6.322 6.322 0 01-4.476-1.859 6.354 6.354 0 01-1.854-4.487v-4.76z"/></g><defs><clipPath id="asa"><path transform="translate(13)" d="M0 0h61v30H0z"/></clipPath></defs></svg><svg viewBox="0 0 38 38" id="pin-default" xmlns="http://www.w3.org/2000/svg"><path d="M19 17.4c1.346 0 2.438-1.074 2.438-2.4 0-1.325-1.092-2.4-2.438-2.4s-2.438 1.075-2.438 2.4c0 1.326 1.092 2.4 2.438 2.4z"/><path d="M19 3c-3.425 0-6.713 1.33-9.147 3.704A12.704 12.704 0 006 15.672C6 24.44 17.456 34.2 17.944 34.616a1.64 1.64 0 002.112 0C20.625 34.2 32 24.44 32 15.672a12.704 12.704 0 00-3.853-8.968A13.105 13.105 0 0019 3zm0 17.6a5.751 5.751 0 01-3.16-.944 5.62 5.62 0 01-2.095-2.513 5.52 5.52 0 01-.323-3.236 5.573 5.573 0 011.556-2.867 5.716 5.716 0 012.912-1.532 5.77 5.77 0 013.287.318 5.67 5.67 0 012.552 2.063A5.54 5.54 0 0124.688 15c0 1.485-.6 2.91-1.666 3.96A5.733 5.733 0 0119 20.6z"/></svg><svg viewBox="0 0 38 38" id="pin-over" xmlns="http://www.w3.org/2000/svg"><path d="M19 17.4c1.346 0 2.438-1.075 2.438-2.4 0-1.326-1.092-2.4-2.438-2.4s-2.438 1.074-2.438 2.4c0 1.325 1.092 2.4 2.438 2.4z"/><path d="M19 3c-3.425 0-6.713 1.33-9.147 3.704A12.704 12.704 0 006 15.672C6 24.44 17.456 34.2 17.944 34.616a1.64 1.64 0 002.112 0C20.625 34.2 32 24.44 32 15.672a12.704 12.704 0 00-3.853-8.968A13.105 13.105 0 0019 3zm0 17.6a5.751 5.751 0 01-3.16-.944 5.62 5.62 0 01-2.095-2.513 5.52 5.52 0 01-.323-3.236 5.573 5.573 0 011.556-2.867 5.716 5.716 0 012.912-1.532 5.77 5.77 0 013.287.318 5.67 5.67 0 012.552 2.063A5.54 5.54 0 0124.688 15c0 1.485-.6 2.91-1.666 3.96A5.733 5.733 0 0119 20.6z"/></svg><svg viewBox="0 0 24 24" id="search-icon" xmlns="http://www.w3.org/2000/svg"><path d="M17 17l4 4M3 11a8 8 0 1016 0 8 8 0 00-16 0z"/></svg><svg viewBox="0 0 61 58" id="size-active" xmlns="http://www.w3.org/2000/svg"><g clip-path="url(#awa)" stroke-width=".5"><path d="M8.947 49.518c5.76 5.47 13.413 8.477 21.552 8.477 8.14 0 15.796-3.011 21.555-8.477C57.812 44.053 61 36.754 61 29.001c0-7.754-3.177-15.041-8.947-20.524C46.285 2.994 38.64 0 30.5 0S14.705 3.012 8.947 8.477C3.187 13.942 0 21.247 0 29.001c0 7.754 3.177 15.04 8.947 20.517zM30.498 1.604c15.927 0 28.888 12.29 28.888 27.397S46.426 56.396 30.5 56.396c-15.926 0-28.886-12.293-28.886-27.395 0-15.103 12.959-27.397 28.886-27.397z"/><path d="M12.815 41.672l.125.144a13.712 13.712 0 008.467 4.798c3.318.513 6.71-.204 9.531-2.016l.03-.02.02-.016.029-.019a24.506 24.506 0 008.505-10.635.8.8 0 00-.444-1.048.815.815 0 00-.88.179.802.802 0 00-.174.262 22.85 22.85 0 01-7.496 9.61 22.831 22.831 0 01-7.451-9.605.806.806 0 00-1.054-.442.807.807 0 00-.444 1.049 24.42 24.42 0 007.488 9.906 12.135 12.135 0 01-7.989 1.11 12.086 12.086 0 01-6.925-4.162l-.115-.137c-2.712-3.407-4.147-7.46-4.147-11.722 0-10.768 9.242-19.53 20.601-19.53 11.36 0 20.603 8.762 20.603 19.53 0 7.881-4.954 14.95-12.62 18.006a.808.808 0 00-.44.43.798.798 0 00.424 1.053.81.81 0 00.617.007c8.28-3.303 13.632-10.955 13.632-19.495 0-11.653-9.966-21.133-22.216-21.133-12.249 0-22.207 9.48-22.207 21.132 0 4.633 1.558 9.037 4.505 12.734l.025.03z"/></g><defs><clipPath id="awa"><path d="M0 0h61v58H0z"/></clipPath></defs></svg><svg viewBox="0 0 76 72" id="size-notactive" xmlns="http://www.w3.org/2000/svg"><path d="M11.146 61.471C18.323 68.261 27.86 71.994 38 71.994s19.68-3.738 26.854-10.523C72.03 54.687 76 45.625 76 36.001c0-9.625-3.959-18.672-11.147-25.478C57.666 3.717 48.141 0 38 0S18.321 3.739 11.146 10.523C3.971 17.308 0 26.375 0 36.001c0 9.626 3.959 18.67 11.146 25.47zM38 1.991c19.843 0 35.992 15.256 35.992 34.01 0 18.754-16.149 34.008-35.992 34.008-19.843 0-35.99-15.26-35.99-34.008C2.01 17.252 18.155 1.99 38 1.99z"/><path d="M15.968 51.731l.156.178a17.1 17.1 0 0010.548 5.957c4.135.637 8.36-.254 11.876-2.503l.037-.024.026-.021.034-.023a30.44 30.44 0 0010.597-13.202.99.99 0 00-.224-1.087 1.009 1.009 0 00-1.1-.21 1.008 1.008 0 00-.542.543 28.379 28.379 0 01-9.34 11.93 28.356 28.356 0 01-9.283-11.924c-.1-.245-.296-.44-.542-.544a1.016 1.016 0 00-.771-.004c-.247.1-.445.293-.548.537a.99.99 0 00-.005.764 30.325 30.325 0 009.33 12.298 15.168 15.168 0 01-9.954 1.377 15.068 15.068 0 01-8.627-5.165l-.144-.17c-3.379-4.23-5.167-9.261-5.167-14.553 0-13.367 11.514-24.243 25.667-24.243 14.154 0 25.669 10.876 25.669 24.244 0 9.783-6.172 18.557-15.722 22.353a1.007 1.007 0 00-.55.532.987.987 0 00-.01.762 1 1 0 00.538.546c.245.103.522.107.77.008 10.317-4.1 16.983-13.599 16.983-24.2 0-14.465-12.416-26.234-27.678-26.234-15.261 0-27.668 11.767-27.668 26.233 0 5.752 1.94 11.218 5.612 15.807l.032.038z"/></svg><svg viewBox="0 0 78 61" id="sk-logo" xmlns="http://www.w3.org/2000/svg"><path d="M5.79 46.826l-.125-.112-4.97 4.768.46.548c3.355 3.896 9.393 6.81 16.562 7.992h.087l6.622-6.635h-.398c-7.206-.187-14.002-2.64-18.189-6.549m45.635-20.903L76.323 1.273h-9.828L36.59 30.74a71.466 71.466 0 00-11.083-4.034c-7.865-2.39-14.66-4.444-14.66-10.209 0-5.141 5.193-8.453 13.231-8.453a30.377 30.377 0 0113.356 3.274l.125.063 5.106-5.117-.161-.125C37.745 2.68 29.806.862 24.426.862 11.095.862 2.807 6.775 2.807 16.299c0 10.819 10.586 14.106 19.88 17.007 6.088 1.892 11.828 3.734 14.176 7.245l.112.174 8.697-8.627 21.792 27.14.112.137h9.816l-25.918-33.44z"/></svg><svg viewBox="0 0 354 196" id="sk-logo-main" xmlns="http://www.w3.org/2000/svg"><path d="M143.789 46.826l-.124-.112-4.97 4.768.46.548c3.355 3.896 9.393 6.81 16.562 7.992h.087l6.622-6.635h-.398c-7.206-.187-14.002-2.64-18.189-6.549m45.635-20.903l24.849-24.662h-9.828L174.59 30.74a71.486 71.486 0 00-11.083-4.034c-7.865-2.39-14.661-4.444-14.661-10.209 0-5.141 5.194-8.453 13.232-8.453a30.375 30.375 0 0113.356 3.274l.125.063 5.106-5.117-.161-.125C175.745 2.68 167.806.862 162.426.862c-13.331 0-21.619 5.913-21.619 15.437 0 10.819 10.586 14.106 19.88 17.007 6.088 1.892 11.828 3.734 14.176 7.245l.112.174 8.697-8.627 21.792 27.14.112.137h9.816l-25.918-33.44zM58.782 158.972c-11.182 0-19.556 6.685-19.556 15.537 0 8.851 8.225 15.587 19.556 15.587 11.33 0 19.568-6.673 19.568-15.525s-8.237-15.599-19.568-15.599zm14.077 15.562c0 6.673-5.914 11.516-14.077 11.516-7.89 0-14.077-5.055-14.077-11.516 0-6.673 5.926-11.516 14.077-11.516 8.15 0 14.077 4.98 14.077 11.516zm19.319-15.114l-.559 6.225c-.782 8.714-2.484 20.268-8.61 19.782h-.335v4.221h.286c.509 0 .981.074 1.44.074 6.86 0 10.363-6.075 12.115-20.977l.62-5.291h13.718v26.144h5.218V159.42H92.179zm40.889 0l-.559 6.225c-1.64 18.226-5.715 20.019-8.61 19.782h-.336v4.221h.286c.497 0 .982.074 1.441.074 6.846 0 10.363-6.075 12.114-20.977l.609-5.291h13.779v26.144h5.218V159.42h-23.942zm39.125 26.206v-9.947h17.195v-4.021h-17.195v-8.217h21.581v-4.021h-26.799v30.215h27.333v-4.009h-22.115zm98.289 0V159.42h-5.218v26.206h-19.581V159.42h-5.218v30.215h32.266v5.503h4.958v-9.512h-7.207zm82.127-26.854h-4.113c-1.839 0-4.125-.099-6.212-.099-11.928 0-16.152 5.403-16.152 10.458 0 1.444.584 6.311 8.138 8.789l-9.157 11.964h5.989l8.386-11.205h8.623v11.205h4.97v-31.112h-.472zm-4.498 3.935v11.914h-9.256c-3.728-.423-7.529-2.689-7.529-5.752 0-3.897 4.038-6.324 10.535-6.324 2.125 0 4.275.087 5.865.137l.385.025zm-58.06 18.375v-21.351h-5.218v30.987l27.644-21.986v21.215h5.219v-30.988l-27.645 22.123zM54.171 132.317v-21.363h-5.218v30.987l27.645-21.986v21.214h5.218v-30.987L54.17 132.317zm81.654 0v-21.363h-5.206v30.987l27.645-21.986v21.214h5.205v-30.987l-27.644 22.135zm-30.303-10.047c-1.814 0-4.497 0-6.66.199v-8.204h17.768v-3.959H93.868v31.037h.485c1.056 0 2.385 0 3.913.075 1.951 0 4.138.099 6.349.099 10.574 0 16.401-3.548 16.401-9.959 0-5.964-5.517-9.25-15.531-9.25m10.573 9.275c0 3.934-3.727 5.926-10.971 5.926h-6.224v-11.081c2.82-.174 5.529-.199 6.299-.199 4.97 0 10.896.959 10.896 5.466m69.143-21.277h-10.735v30.751h4.647v-11.205c2.025.1 4.435.162 6.324.162 11.182 0 15.145-5.142 15.145-9.96 0-4.481-2.671-9.822-15.357-9.822m10.487 9.822c0 3.959-3.926 6.325-10.487 6.325-2.05 0-3.975-.112-6.013-.212h-.099v-12.2c1.764 0 4.858-.1 6.473-.1 6.622 0 10.126 2.141 10.126 6.225m41.894 14.068a15.15 15.15 0 01-10.175 3.386 17.583 17.583 0 01-7.455-1.544 12.695 12.695 0 01-5.206-4.17 10.198 10.198 0 010-11.753 12.695 12.695 0 015.206-4.17 17.568 17.568 0 017.455-1.544 15.433 15.433 0 0110.188 3.349l.435.361 3.429-2.789-.559-.51a16.591 16.591 0 00-6.001-3.349 24.363 24.363 0 00-7.604-1.133 23.936 23.936 0 00-9.94 2.004 16.774 16.774 0 00-7.019 5.603 14.058 14.058 0 000 16.184 16.842 16.842 0 006.995 5.602 23.769 23.769 0 009.939 2.005 24.616 24.616 0 007.629-1.146 17.094 17.094 0 006.026-3.373l.559-.511-3.442-2.838-.46.336zm64.508-23.854l-.124-.199-18.277 30.452-.285.473h5.814l4.684-8.242h16.152l4.858 8.18h6.038l-18.86-30.664zm5.579 18.476h-11.456l5.653-9.761 5.803 9.761zm44.914-18.588c-1.068 0-2.485 0-4.075-.075h-.149c-1.913 0-4.088-.099-6.076-.099-11.927 0-16.151 5.403-16.151 10.458 0 1.444.583 6.311 8.138 8.789l-9.157 11.964h5.988l8.387-11.205h8.622v11.205h4.97v-31.037h-.497zm-4.497 3.934v11.927h-9.257c-3.727-.423-7.529-2.689-7.529-5.752 0-3.897 4.038-6.324 10.536-6.324 2.162 0 4.299.087 5.877.137l.373.012zm-325.931 5.715c-7.28-2.067-14.152-4.046-14.152-9.835 0-4.98 5.12-8.092 13.046-8.092 4.373 0 10.71 1.083 14.189 4.158l.807.722 2.709-3.461-.596-.635C34.715 99.326 27 97.459 21.42 97.459c-11.182 0-18.463 4.979-18.463 12.661 0 8.976 8.909 11.578 17.531 14.093 7.542 2.203 14.673 4.295 14.673 10.445 0 5.789-6.66 8.827-13.244 8.827-8.883 0-14.127-3.013-16.96-5.528l-.708-.622-3.342 3.162.696.734c4.038 4.271 11.604 6.823 20.264 6.823 10.636 0 18.351-5.59 18.351-13.296 0-9.636-9.58-12.375-18.04-14.803zm227.405-9.35h4.622v17.081l17.295-17.081h5.963l-12.909 12.923 13.779 17.641h-5.777l-11.381-14.404-6.97 6.722v7.682h-4.622v-30.564zM7.232 159.458h4.635v16.831l17.295-16.831h5.95l-12.896 12.735 13.78 17.393h-5.778l-11.381-14.205-6.97 6.635v7.57H7.232v-30.128zm196.369 0h4.621v16.831l17.308-16.831h5.951l-12.909 12.735 13.779 17.393h-5.778l-11.38-14.205-6.971 6.635v7.57h-4.621v-30.128z"/></svg><svg viewBox="0 0 24 26" id="topmenu-arr-l1" xmlns="http://www.w3.org/2000/svg"><path d="M6 25l12-12L6 1"/></svg><svg viewBox="0 0 137 125" id="zap" xmlns="http://www.w3.org/2000/svg"><path d="M111.213 1.594l-.327-.235-.299.269C85.916 23.776 73.603 54.557 73.603 93.903c0 18.053 15.207 30.597 31.982 30.597 17.355 0 30.915-13.663 30.915-31.134 0-17.46-13.549-31.672-30.915-31.672-5.139 0-10.262 1.467-14.46 3.47-.343-18.075 5.54-33.023 11.559-43.5 3.052-5.313 6.137-9.472 8.457-12.301a68.269 68.269 0 012.805-3.223 43.254 43.254 0 01.99-1.027l.051-.05.013-.012.003-.003.431-.417-.486-.35-3.735-2.687zm-73.103 0l-.326-.235-.3.269C12.813 23.776.5 54.557.5 93.903c0 18.053 15.207 30.597 31.982 30.597 17.343 0 31.449-13.652 31.449-31.134 0-17.471-14.094-31.672-31.449-31.672-5.139 0-10.262 1.467-14.46 3.47-.342-18.075 5.54-33.023 11.559-43.5 3.052-5.313 6.137-9.472 8.457-12.301a68.105 68.105 0 012.806-3.223 41.048 41.048 0 01.989-1.027l.052-.05.012-.012.003-.003-.347-.36.347.36.432-.417-.487-.35-3.735-2.687z"/></svg></svg>