<?xml version="1.0" encoding="utf-8"?><svg viewBox="0 0 502.66 502.66" xmlns="http://www.w3.org/2000/svg" xmlns:xlink="http://www.w3.org/1999/xlink"><style>:root>svg{display:none}:root>svg:target{display:block}</style><svg viewBox="0 0 86 50" id="360sign" xmlns="http://www.w3.org/2000/svg"><path d="M43 43.624c-23.196 0-42-7.387-42-16.5C1 23.75 3.577 20.614 8 18m73.5 2.52c2.251 2.022 3.5 4.256 3.5 6.604 0 7.546-12.895 13.91-30.5 15.874"/><path d="M39 38.5l4.5 5L39 49"/><circle cx="78.5" cy="4.5" r="1.75"/><g clip-path="url(#aa)"><path d="M17.605 14.567h5.538m0 0a5.53 5.53 0 013.917 1.627 5.56 5.56 0 010 7.853 5.532 5.532 0 01-3.916 1.626H14.44m8.704-11.106a5.532 5.532 0 003.916-1.626 5.56 5.56 0 000-7.853 5.532 5.532 0 00-3.916-1.627H14.44m56.97 31.731c0 10.516-12.755 19.039-28.486 19.039-15.73 0-28.485-8.523-28.485-19.039m34.816-31.73H46.09a9.483 9.483 0 00-6.714 2.788 9.532 9.532 0 00-2.78 6.73v6.347m0 0c0 1.683.666 3.297 1.853 4.487a6.322 6.322 0 004.476 1.859h1.583a6.322 6.322 0 004.476-1.859 6.354 6.354 0 001.854-4.487V17.74a6.354 6.354 0 00-1.854-4.487 6.322 6.322 0 00-4.476-1.859h-1.583a6.322 6.322 0 00-4.476 1.859 6.354 6.354 0 00-1.854 4.487v1.587zm22.155-4.76v-4.76c0-1.683.667-3.297 1.854-4.487a6.322 6.322 0 014.476-1.859h1.582c1.68 0 3.29.669 4.477 1.86a6.354 6.354 0 011.854 4.487v9.519a6.354 6.354 0 01-1.854 4.487 6.322 6.322 0 01-4.477 1.859h-1.582a6.322 6.322 0 01-4.476-1.859 6.354 6.354 0 01-1.854-4.487v-4.76z"/></g><defs><clipPath id="aa"><path transform="translate(13)" d="M0 0h61v30H0z"/></clipPath></defs></svg><svg viewBox="0 0 26 15" id="arr-left" xmlns="http://www.w3.org/2000/svg"><path d="M8.385 14.5L1 7.525m0 0L8.385.5M1 7.525h24"/></svg><svg viewBox="0 0 34 15" id="arr-left-ext" xmlns="http://www.w3.org/2000/svg"><path d="M8.385 14.5L1 7.525m0 0L8.385.5M1 7.525h32"/></svg><svg viewBox="0 0 8 14" id="arr-mob-sm" xmlns="http://www.w3.org/2000/svg"><path d="M1.375 13l6-6-6-6"/></svg><svg viewBox="0 0 26 15" id="arr-right" xmlns="http://www.w3.org/2000/svg"><path d="M17.615 14.5L25 7.525m0 0L17.615.5M25 7.525H1"/></svg><svg viewBox="0 0 34 15" id="arr-right-ext" xmlns="http://www.w3.org/2000/svg"><path d="M25.615 14.5L33 7.525m0 0L25.615.5M33 7.525H1"/></svg><svg viewBox="0 0 56 42" id="back-big" xmlns="http://www.w3.org/2000/svg"><path d="M25.645 28.637l-8.145-7.61m0 0l8.145-7.663M17.5 21.028H55M40.75 21c0 11.33-9.019 20.5-20.125 20.5S.5 32.33.5 21 9.519.5 20.625.5 40.75 9.67 40.75 21z"/></svg><svg viewBox="0 0 89 66" id="back-big-white" xmlns="http://www.w3.org/2000/svg"><path d="M41.032 45L28 33.043m0 0L41.032 21M28 33.043h60"/><circle cx="33" cy="33" r="32.5"/></svg><svg viewBox="0 0 42 22" id="burger" xmlns="http://www.w3.org/2000/svg"><path d="M1 1h40M1 11h40M1 21h40"/></svg><svg viewBox="0 0 30 30" id="close" xmlns="http://www.w3.org/2000/svg"><path d="M1 1l28.284 28.284M1 29.284L29.284 1"/></svg><svg viewBox="0 0 502.664 502.664" id="icon" xmlns="http://www.w3.org/2000/svg"><path d="M153.821 358.226L0 274.337v-46.463l153.821-83.414v54.574L46.636 250.523l107.185 53.431v54.272zm26.273 29.358L282.103 115.08h32.227L212.084 387.584h-31.99zm168.749-29.358v-54.272l107.164-52.999-107.164-52.59v-53.927l153.821 83.522v46.183l-153.821 84.083z"/></svg><svg viewBox="0 0 14 13" id="icon-arrow-up-2-thin" xmlns="http://www.w3.org/2000/svg"><path d="M1 9.125l6-6 6 6"/></svg><svg viewBox="0 0 40 40" id="icon-filter-outline" xmlns="http://www.w3.org/2000/svg"><g clip-path="url(#ma)"><path d="M0 10h40M7.143 20h25.714M15.714 30h8.572"/></g><defs><clipPath id="ma"><path d="M0 0h40v40H0z"/></clipPath></defs></svg><svg viewBox="0 0 24 24" id="icon-search" xmlns="http://www.w3.org/2000/svg"><path d="M17 17l4 4M3 11a8 8 0 1016 0 8 8 0 00-16 0z"/></svg><svg viewBox="0 0 61 58" id="size-active" xmlns="http://www.w3.org/2000/svg"><g clip-path="url(#oa)" stroke-width=".5"><path d="M8.947 49.518c5.76 5.47 13.413 8.477 21.552 8.477 8.14 0 15.796-3.011 21.555-8.477C57.812 44.053 61 36.754 61 29.001c0-7.754-3.177-15.041-8.947-20.524C46.285 2.994 38.64 0 30.5 0S14.705 3.012 8.947 8.477C3.187 13.942 0 21.247 0 29.001c0 7.754 3.177 15.04 8.947 20.517zM30.498 1.604c15.927 0 28.888 12.29 28.888 27.397S46.426 56.396 30.5 56.396c-15.926 0-28.886-12.293-28.886-27.395 0-15.103 12.959-27.397 28.886-27.397z"/><path d="M12.815 41.672l.125.144a13.712 13.712 0 008.467 4.798c3.318.513 6.71-.204 9.531-2.016l.03-.02.02-.016.029-.019a24.506 24.506 0 008.505-10.635.8.8 0 00-.444-1.048.815.815 0 00-.88.179.802.802 0 00-.174.262 22.85 22.85 0 01-7.496 9.61 22.831 22.831 0 01-7.451-9.605.806.806 0 00-1.054-.442.807.807 0 00-.444 1.049 24.42 24.42 0 007.488 9.906 12.135 12.135 0 01-7.989 1.11 12.086 12.086 0 01-6.925-4.162l-.115-.137c-2.712-3.407-4.147-7.46-4.147-11.722 0-10.768 9.242-19.53 20.601-19.53 11.36 0 20.603 8.762 20.603 19.53 0 7.881-4.954 14.95-12.62 18.006a.808.808 0 00-.44.43.798.798 0 00.424 1.053.81.81 0 00.617.007c8.28-3.303 13.632-10.955 13.632-19.495 0-11.653-9.966-21.133-22.216-21.133-12.249 0-22.207 9.48-22.207 21.132 0 4.633 1.558 9.037 4.505 12.734l.025.03z"/></g><defs><clipPath id="oa"><path d="M0 0h61v58H0z"/></clipPath></defs></svg><svg viewBox="0 0 76 72" id="size-notactive" xmlns="http://www.w3.org/2000/svg"><path d="M11.146 61.471C18.323 68.261 27.86 71.994 38 71.994s19.68-3.738 26.854-10.523C72.03 54.687 76 45.625 76 36.001c0-9.625-3.959-18.672-11.147-25.478C57.666 3.717 48.141 0 38 0S18.321 3.739 11.146 10.523C3.971 17.308 0 26.375 0 36.001c0 9.626 3.959 18.67 11.146 25.47zM38 1.991c19.843 0 35.992 15.256 35.992 34.01 0 18.754-16.149 34.008-35.992 34.008-19.843 0-35.99-15.26-35.99-34.008C2.01 17.252 18.155 1.99 38 1.99z"/><path d="M15.968 51.731l.156.178a17.1 17.1 0 0010.548 5.957c4.135.637 8.36-.254 11.876-2.503l.037-.024.026-.021.034-.023a30.44 30.44 0 0010.597-13.202.99.99 0 00-.224-1.087 1.009 1.009 0 00-1.1-.21 1.008 1.008 0 00-.542.543 28.379 28.379 0 01-9.34 11.93 28.356 28.356 0 01-9.283-11.924c-.1-.245-.296-.44-.542-.544a1.016 1.016 0 00-.771-.004c-.247.1-.445.293-.548.537a.99.99 0 00-.005.764 30.325 30.325 0 009.33 12.298 15.168 15.168 0 01-9.954 1.377 15.068 15.068 0 01-8.627-5.165l-.144-.17c-3.379-4.23-5.167-9.261-5.167-14.553 0-13.367 11.514-24.243 25.667-24.243 14.154 0 25.669 10.876 25.669 24.244 0 9.783-6.172 18.557-15.722 22.353a1.007 1.007 0 00-.55.532.987.987 0 00-.01.762 1 1 0 00.538.546c.245.103.522.107.77.008 10.317-4.1 16.983-13.599 16.983-24.2 0-14.465-12.416-26.234-27.678-26.234-15.261 0-27.668 11.767-27.668 26.233 0 5.752 1.94 11.218 5.612 15.807l.032.038z"/></svg><svg viewBox="0 0 78 61" id="sk-logo" xmlns="http://www.w3.org/2000/svg"><path d="M5.79 46.826l-.125-.112-4.97 4.768.46.548c3.355 3.896 9.393 6.81 16.562 7.992h.087l6.622-6.635h-.398c-7.206-.187-14.002-2.64-18.189-6.549m45.635-20.903L76.323 1.273h-9.828L36.59 30.74a71.466 71.466 0 00-11.083-4.034c-7.865-2.39-14.66-4.444-14.66-10.209 0-5.141 5.193-8.453 13.231-8.453a30.377 30.377 0 0113.356 3.274l.125.063 5.106-5.117-.161-.125C37.745 2.68 29.806.862 24.426.862 11.095.862 2.807 6.775 2.807 16.299c0 10.819 10.586 14.106 19.88 17.007 6.088 1.892 11.828 3.734 14.176 7.245l.112.174 8.697-8.627 21.792 27.14.112.137h9.816l-25.918-33.44z"/></svg><svg viewBox="0 0 24 26" id="topmenu-arr-l1" xmlns="http://www.w3.org/2000/svg"><path d="M6 25l12-12L6 1"/></svg><svg viewBox="0 0 137 125" id="zap" xmlns="http://www.w3.org/2000/svg"><path d="M111.213 1.594l-.327-.235-.299.269C85.916 23.776 73.603 54.557 73.603 93.903c0 18.053 15.207 30.597 31.982 30.597 17.355 0 30.915-13.663 30.915-31.134 0-17.46-13.549-31.672-30.915-31.672-5.139 0-10.262 1.467-14.46 3.47-.343-18.075 5.54-33.023 11.559-43.5 3.052-5.313 6.137-9.472 8.457-12.301a68.269 68.269 0 012.805-3.223 43.254 43.254 0 01.99-1.027l.051-.05.013-.012.003-.003.431-.417-.486-.35-3.735-2.687zm-73.103 0l-.326-.235-.3.269C12.813 23.776.5 54.557.5 93.903c0 18.053 15.207 30.597 31.982 30.597 17.343 0 31.449-13.652 31.449-31.134 0-17.471-14.094-31.672-31.449-31.672-5.139 0-10.262 1.467-14.46 3.47-.342-18.075 5.54-33.023 11.559-43.5 3.052-5.313 6.137-9.472 8.457-12.301a68.105 68.105 0 012.806-3.223 41.048 41.048 0 01.989-1.027l.052-.05.012-.012.003-.003-.347-.36.347.36.432-.417-.487-.35-3.735-2.687z"/></svg></svg>