<svg width="83" height="90" viewBox="0 0 83 90" fill="none" xmlns="http://www.w3.org/2000/svg">
<path d="M20.5517 16.3511H4C2.34315 16.3511 1 17.6942 1 19.3511V67.777C1 69.4338 2.34314 70.777 4 70.777H79C80.6569 70.777 82 69.4338 82 67.777V19.3511C82 17.6942 80.6569 16.3511 79 16.3511H63.8448" stroke="#A3784E" stroke-width="1.5"/>
<rect x="33" y="70.8408" width="17" height="6.99491" stroke="#A3784E" stroke-width="1.5"/>
<path d="M26 83.8359C26 80.5222 28.6863 77.8359 32 77.8359H50.7241C54.0378 77.8359 56.7241 80.5222 56.7241 83.8359V89.0002H26V83.8359Z" stroke="#A3784E" stroke-width="1.5"/>
<path d="M1 61.3389L81.8897 61.3389" stroke="#A3784E" stroke-width="1.5"/>
<path d="M42.1954 1C42.9016 1 43.6003 1.03174 44.2903 1.09387C56.0349 2.15147 65.2386 12.0149 65.2386 24.0264C65.2386 33.5225 59.4859 41.6761 51.273 45.1971M32.4196 3.16884C24.5807 6.84388 19.1523 14.8016 19.1523 24.0264C19.1523 35.7987 27.9932 45.5077 39.4023 46.8853" stroke="#C0B3A8" stroke-width="1.5" stroke-linejoin="round"/>
<path d="M23.3438 3.79152L32.4213 3.09375L28.93 10.7692" stroke="#C0B3A8" stroke-width="1.5" stroke-linecap="round" stroke-linejoin="round"/>
<path d="M60.6138 44.2564L51.5697 45.3015L54.764 37.4979" stroke="#C0B3A8" stroke-width="1.5" stroke-linecap="round" stroke-linejoin="round"/>
<path d="M41.4978 12.1646L49.9635 21.2355H46.429V28.911H36.6099V21.2355H33.0312L41.4978 12.1646Z" stroke="#C0B3A8" stroke-width="1.5" stroke-linejoin="round"/>
<path d="M36.6094 32.3076H47.0835M38.0061 35.8883H45.6872" stroke="#C0B3A8" stroke-width="1.5" stroke-linecap="round" stroke-linejoin="round"/>
</svg>
