<svg width="83" height="83" viewBox="0 0 83 83" fill="none" xmlns="http://www.w3.org/2000/svg">
<path d="M82 20.8752C82 19.7258 81.2942 18.7393 80.2943 18.3226V15.2221C80.2943 12.5316 78.4743 10.2595 76.0023 9.56718C76.9434 8.65971 77.5316 7.38925 77.5316 5.981C77.5316 3.23506 75.2965 1 72.5506 1C69.8046 1 67.5696 3.23506 67.5696 5.981C67.5696 7.38757 68.1577 8.65971 69.0988 9.56718C66.6251 10.2595 64.8068 12.5316 64.8068 15.2221V18.1125H63.9531V15.2221C63.9531 12.5316 62.1332 10.2579 59.6611 9.56718C60.6022 8.65971 61.1904 7.38925 61.1904 5.981C61.1904 3.23506 58.9553 1 56.2094 1C53.4635 1 51.2284 3.23506 51.2284 5.981C51.2284 7.38757 51.8166 8.65971 52.7577 9.56718C50.284 10.2595 48.4657 12.5316 48.4657 15.2221V18.1125H47.612V15.2221C47.612 12.5316 45.792 10.2579 43.32 9.56718C44.2611 8.65971 44.8492 7.38925 44.8492 5.981C44.8492 3.23506 42.6142 1 39.8682 1C37.1223 1 34.8872 3.23506 34.8872 5.981C34.8872 7.38757 35.4754 8.65971 36.4165 9.56718C33.9428 10.2595 32.1245 12.5316 32.1245 15.2221V18.3243C31.1246 18.741 30.4188 19.7275 30.4188 20.8769V25.5084C30.4188 25.5369 30.4205 25.5655 30.4238 25.5941V25.6075C30.4272 25.6411 30.4322 25.6731 30.439 25.7067C30.4406 25.7168 30.444 25.7268 30.4474 25.7369C30.4524 25.7588 30.4574 25.7806 30.4642 25.8025C30.4675 25.8159 30.4743 25.8294 30.4793 25.8428C30.486 25.8613 30.4911 25.8781 30.4995 25.8966C30.5062 25.9117 30.5129 25.9251 30.5196 25.9403C30.5263 25.9554 30.5331 25.9705 30.5415 25.9856C30.5566 26.0142 30.5734 26.0428 30.5919 26.0697C30.5969 26.0781 30.6037 26.0865 30.6104 26.0932C30.6238 26.1117 30.6373 26.1318 30.6524 26.1487L30.6557 26.152L48.39 47.3196V52.635C43.6678 55.3507 40.4816 60.4476 40.4816 66.2756C40.4816 74.9453 47.5364 82 56.206 82C64.8757 82 71.9305 74.947 71.9305 66.2756C71.9305 60.4476 68.7442 55.3507 64.022 52.635V47.3196L81.7647 26.1503L81.7681 26.147C81.7832 26.1285 81.7967 26.11 81.8101 26.0915C81.8151 26.0831 81.8219 26.0764 81.8286 26.068C81.8564 26.027 81.8806 25.9837 81.9008 25.9386C81.9076 25.9235 81.916 25.91 81.921 25.8949C81.9277 25.8764 81.9345 25.8579 81.9412 25.8411C81.9462 25.8277 81.9513 25.8159 81.9546 25.8025C81.9613 25.7806 81.9664 25.7588 81.9714 25.7369C81.9731 25.7268 81.9765 25.7168 81.9798 25.7067C81.9865 25.6748 81.9916 25.6411 81.995 25.6075V25.5941C81.9983 25.5655 82 25.5369 82 25.5084V25.505V20.8752ZM32.4287 20.8752C32.4287 20.6232 32.5547 20.4013 32.7463 20.2652C32.9096 20.3317 33.0875 20.354 33.2622 20.3298C33.4369 20.3056 33.6021 20.2358 33.7411 20.1274H78.6693C78.839 20.2602 79.0524 20.3392 79.286 20.3392C79.4204 20.3392 79.5482 20.3123 79.6641 20.2652C79.8557 20.4013 79.9817 20.6232 79.9817 20.8752V24.495H32.4287V20.8752ZM72.5489 3.0166C74.184 3.0166 75.5133 4.34587 75.5133 5.981C75.5133 7.61612 74.184 8.94539 72.5489 8.94539C70.9138 8.94539 69.5845 7.61612 69.5845 5.981C69.5845 4.34587 70.9154 3.0166 72.5489 3.0166ZM66.8217 15.2221C66.8217 13.0945 68.5527 11.3653 70.6785 11.3653H74.421C76.5485 11.3653 78.2777 13.0962 78.2777 15.2221V18.1125H66.8217V15.2221ZM56.206 3.0166C57.8412 3.0166 59.1704 4.34587 59.1704 5.981C59.1704 7.61612 57.8412 8.94539 56.206 8.94539C54.5709 8.94539 53.2416 7.61612 53.2416 5.981C53.2416 4.34587 54.5709 3.0166 56.206 3.0166ZM50.4772 15.2221C50.4772 13.0945 52.2081 11.3653 54.334 11.3653H58.0764C60.2039 11.3653 61.9332 13.0962 61.9332 15.2221V18.1125H50.4755V15.2221H50.4772ZM39.8615 3.0166C41.4966 3.0166 42.8259 4.34587 42.8259 5.981C42.8259 7.61612 41.4966 8.94539 39.8615 8.94539C38.2264 8.94539 36.8971 7.61612 36.8971 5.981C36.8971 4.34587 38.2281 3.0166 39.8615 3.0166ZM37.9911 11.3653H41.7336C43.8611 11.3653 45.5903 13.0962 45.5903 15.2221V18.1125H34.1327V15.2221C34.1344 13.0962 35.8636 11.3653 37.9911 11.3653ZM69.9139 66.2756C69.9139 73.8345 63.7649 79.9834 56.206 79.9834C48.6472 79.9834 42.4982 73.8345 42.4982 66.2756C42.4982 58.7167 48.6472 52.5678 56.206 52.5678C63.7649 52.5678 69.9139 58.7167 69.9139 66.2756ZM62.2407 46.3062C62.0886 46.4875 62.0052 46.7166 62.0054 46.9532V51.6603C60.2107 50.9461 58.2529 50.5512 56.206 50.5512C54.1592 50.5512 52.2014 50.9444 50.4066 51.6603V46.9532C50.4066 46.7163 50.3226 46.4877 50.1714 46.3062L33.5815 26.5116H78.8323L62.2407 46.3062ZM21.1727 24.6816C23.8212 22.8717 25.4815 19.8384 25.4815 16.5244C25.4815 11.0796 21.0517 6.65151 15.6086 6.65151C10.1638 6.65151 5.73564 11.0813 5.73564 16.5244C5.73564 19.8384 7.39429 22.8717 10.0444 24.6816C4.68029 26.9133 1 32.2421 1 38.1793V52.7862C1 53.3425 1.45205 53.7945 2.0083 53.7945H7.00442V73.9706C7.00442 74.5268 7.45647 74.9789 8.01272 74.9789H23.2011C23.7573 74.9789 24.2094 74.5268 24.2094 73.9706V53.7945H29.2055C29.7617 53.7945 30.2138 53.3425 30.2138 52.7862V38.1793C30.2155 32.2421 26.5352 26.9133 21.1727 24.6816ZM9.02102 53.7945H14.5986V72.9623H9.02102V53.7945ZM22.1944 72.9623H16.6169V53.7945H22.1944V72.9623ZM28.1989 51.7779H24.211V39.559C24.211 39.0028 23.759 38.5507 23.2027 38.5507C22.6465 38.5507 22.1944 39.0028 22.1944 39.559V51.7779H9.02102V39.559C9.02102 39.0028 8.56896 38.5507 8.01272 38.5507C7.45647 38.5507 7.00442 39.0028 7.00442 39.559V51.7779H3.0166V38.1793C3.0166 32.3178 7.17751 27.1469 12.9097 25.8831C13.35 25.7857 13.6726 25.4076 13.6995 24.9572C13.7264 24.5068 13.4508 24.0934 13.024 23.9455C9.86967 22.8482 7.75056 19.8653 7.75056 16.5228C7.75056 12.1904 11.2746 8.66643 15.6069 8.66643C19.9392 8.66643 23.4632 12.1904 23.4632 16.5228C23.4632 19.8636 21.3441 22.8465 18.1898 23.9455C17.9827 24.018 17.8047 24.1559 17.6828 24.3384C17.561 24.5209 17.5018 24.7381 17.5143 24.9572C17.5274 25.1764 17.6116 25.3854 17.7541 25.5524C17.8966 25.7195 18.0897 25.8356 18.3041 25.8831C24.0363 27.1485 28.1972 32.3194 28.1972 38.1793V51.7779H28.1989Z" fill="#A3784E" stroke="#FAF5F0" stroke-width="0.5"/>
<path fill-rule="evenodd" clip-rule="evenodd" d="M52.6232 59.8518C52.6232 59.4154 52.9659 59.0615 53.3887 59.0615H57.9818C57.9818 59.0615 57.9818 59.0615 57.9818 59.0615C58.6884 59.0615 59.7034 59.1885 60.5599 59.8117C61.465 60.4703 62.0646 61.5873 62.0646 63.2765C62.0646 64.9623 61.4697 66.1235 60.5971 66.8442C59.7561 67.5388 58.7419 67.755 57.9818 67.755H54.1542V69.3356H59.2577C59.6805 69.3356 60.0232 69.6894 60.0232 70.1259C60.0232 70.5624 59.6805 70.9162 59.2577 70.9162H54.1542V73.2871C54.1542 73.7236 53.8115 74.0775 53.3887 74.0775C52.9659 74.0775 52.6232 73.7236 52.6232 73.2871V70.9162H49.8163C49.3935 70.9162 49.0508 70.5624 49.0508 70.1259C49.0508 69.6894 49.3935 69.3356 49.8163 69.3356H52.6232V67.755H49.8163C49.3935 67.755 49.0508 67.4012 49.0508 66.9647C49.0508 66.5282 49.3935 66.1744 49.8163 66.1744H52.6232V59.8518ZM54.1542 66.1744H57.9818C58.4976 66.1744 59.1421 66.0217 59.6407 65.6099C60.1077 65.2242 60.5336 64.5412 60.5336 63.2765C60.5336 62.0152 60.1124 61.4199 59.6779 61.1037C59.1947 60.7522 58.5512 60.6421 57.9819 60.6421H54.1542V66.1744Z" fill="#C0B3A8"/>
</svg>
