<svg width="61" height="66" viewBox="0 0 61 66" fill="none" xmlns="http://www.w3.org/2000/svg">
<g clip-path="url(#clip0_939_5895)">
<path d="M60.9943 44.5694C60.9633 41.1787 60.1796 37.8364 58.699 34.7799C58.6241 34.6437 58.5044 34.537 58.36 34.4774C58.2155 34.4179 58.0548 34.4091 57.9046 34.4525C57.7499 34.4935 57.6142 34.586 57.5202 34.7146C57.4262 34.8431 57.3798 34.9999 57.3888 35.1584C57.3888 35.1891 57.5332 38.1863 53.2623 43.2396C55.4494 36.1455 53.6904 29.9721 51.6323 25.8496C48.6819 19.9064 43.9725 15.6203 40.8364 13.7943C40.7306 13.733 40.6102 13.701 40.4876 13.7015C40.3651 13.702 40.245 13.735 40.1397 13.7971C40.0344 13.8593 39.9478 13.9482 39.8889 14.0548C39.83 14.1613 39.8009 14.2815 39.8048 14.403C39.9698 18.3617 37.6126 24.8625 36.1941 27.7932C36.0703 15.7174 32.1862 8.89955 28.885 5.25788C25.0577 1.07918 21.2097 0.0613575 21.0447 -1.87643e-05C20.9534 -0.0233096 20.8582 -0.0277031 20.7652 -0.0129251C20.6721 0.00185292 20.5831 0.0354854 20.5038 0.0858746C20.4244 0.136264 20.3563 0.202329 20.3039 0.279949C20.2514 0.35757 20.2156 0.445081 20.1987 0.537024C18.4965 9.85088 15.2624 14.1677 12.4099 17.9781C9.05201 22.5046 6.12219 26.3867 6.64317 36.57C5.09865 34.4265 3.77335 32.1358 2.68688 29.7317C2.63181 29.6026 2.53787 29.4935 2.41791 29.4194C2.29796 29.3453 2.15783 29.3097 2.0167 29.3175C1.87558 29.3254 1.74034 29.3762 1.62947 29.4632C1.51861 29.5501 1.43754 29.6689 1.39735 29.8033C0.340738 33.8005 -0.130041 37.9278 -0.000501752 42.0581C0.1594 48.5231 1.85126 57.883 9.0159 65.7749C9.08091 65.8465 9.16051 65.9036 9.24943 65.9424C9.33835 65.9812 9.43457 66.0008 9.53172 66H50.709C50.8855 65.9979 51.0548 65.9304 51.1836 65.8107C59.4933 57.9034 61.1078 49.8938 60.9943 44.5694ZM50.4305 64.6395H9.85152C-0.743273 52.7529 1.20134 37.3372 2.27423 32.0486C3.55619 34.5941 5.12946 36.9848 6.96297 39.1734C7.05764 39.285 7.18597 39.3635 7.32903 39.3973C7.47209 39.431 7.62232 39.4184 7.75755 39.361C7.89279 39.3037 8.00587 39.2049 8.08013 39.079C8.15438 38.9531 8.18588 38.8069 8.16997 38.6619C7.13835 27.3176 9.94437 23.5583 13.5138 18.7965C16.3765 14.986 19.6004 10.6692 21.4006 1.58042C24.2994 2.721 35.1986 8.41365 34.8117 29.4095C34.7907 29.5957 34.8198 29.7841 34.8959 29.9557C34.9719 30.1272 35.0924 30.2758 35.245 30.3864C35.3697 30.4603 35.5123 30.4993 35.6576 30.4993C35.8029 30.4993 35.9455 30.4603 36.0703 30.3864C37.3959 29.5731 40.8054 20.9702 41.1459 15.5691C45.0711 18.3829 48.2455 22.103 50.3944 26.4071C52.633 30.9234 54.5209 37.9868 50.709 45.9811C50.6408 46.1252 50.6256 46.2885 50.6663 46.4425C50.7069 46.5965 50.8008 46.7316 50.9315 46.824C51.0622 46.9165 51.2214 46.9606 51.3816 46.9486C51.5417 46.9367 51.6925 46.8694 51.8077 46.7585C55.991 42.6667 57.6725 39.4752 58.3482 37.4549C59.1467 39.7789 59.5765 42.2118 59.6223 44.6666C59.7564 51.9141 56.6615 58.6297 50.4305 64.6395Z" fill="#A3784E"/>
<path d="M20.0649 27.3841C20.099 27.2982 20.1151 27.2062 20.1121 27.1139C20.1092 27.0216 20.0873 26.9309 20.0479 26.8472C20.0085 26.7636 19.9522 26.6888 19.8827 26.6273C19.8132 26.5659 19.7317 26.5192 19.6434 26.49C19.555 26.4608 19.4616 26.4497 19.3688 26.4575C19.276 26.4652 19.1858 26.4917 19.1036 26.5351C19.0214 26.5786 18.949 26.6382 18.8908 26.7103C18.8326 26.7824 18.7898 26.8655 18.7651 26.9545C12.6733 44.9326 20.9109 55.7093 21.2668 56.1594C21.3284 56.2375 21.4065 56.3014 21.4956 56.3464C21.5847 56.3915 21.6826 56.4167 21.7826 56.4202C21.9091 56.4158 22.032 56.3768 22.1375 56.3075C22.2431 56.2381 22.3272 56.1411 22.3806 56.0273C22.434 55.9134 22.4546 55.7871 22.4401 55.6624C22.4256 55.5377 22.3766 55.4194 22.2984 55.3206C22.2623 55.2387 14.2053 44.6769 20.0649 27.3841Z" fill="#C0B3A8"/>
<path d="M43.9821 33.5988C43.801 33.6068 43.6305 33.6855 43.5077 33.8177C43.385 33.95 43.32 34.125 43.327 34.3046C43.8428 47.2448 37.3642 55.2289 37.2971 55.3056C37.2145 55.4042 37.1616 55.524 37.1446 55.6511C37.1276 55.7782 37.1472 55.9075 37.2011 56.024C37.2551 56.1406 37.3411 56.2397 37.4494 56.3098C37.5576 56.38 37.6837 56.4184 37.813 56.4206C37.9118 56.4196 38.0092 56.3971 38.0984 56.3546C38.1875 56.3122 38.2661 56.2509 38.3288 56.1751C38.6125 55.8375 45.2407 47.7358 44.6733 34.2484C44.6679 34.0716 44.5922 33.904 44.4627 33.7823C44.3332 33.6607 44.1604 33.5947 43.9821 33.5988Z" fill="#C0B3A8"/>
<path d="M46.2213 8.00924C46.4863 8.00823 46.7451 7.92938 46.9649 7.78264C47.1848 7.63591 47.3559 7.42787 47.4566 7.18479C47.5573 6.94171 47.5832 6.67449 47.5308 6.41686C47.4785 6.15924 47.3504 5.92277 47.1626 5.7373C46.9748 5.55184 46.7359 5.42569 46.4759 5.37479C46.2159 5.32389 45.9465 5.35052 45.7017 5.45132C45.457 5.55212 45.2478 5.72257 45.1007 5.94115C44.9535 6.15972 44.875 6.41663 44.875 6.67942C44.875 6.85449 44.9099 7.02783 44.9776 7.1895C45.0453 7.35118 45.1445 7.49801 45.2696 7.62156C45.3947 7.74511 45.5432 7.84296 45.7065 7.90949C45.8698 7.97601 46.0447 8.00991 46.2213 8.00924Z" fill="#C0B3A8"/>
<path d="M7.73761 13.2163C8.00307 13.2163 8.26257 13.1382 8.48322 12.9918C8.70388 12.8455 8.87577 12.6375 8.97712 12.3942C9.07847 12.1509 9.10473 11.8832 9.05256 11.6251C9.00039 11.367 8.87215 11.1301 8.68408 10.9443C8.496 10.7586 8.25656 10.6323 7.99607 10.5816C7.73558 10.5308 7.46577 10.5579 7.2208 10.6593C6.97584 10.7608 6.76674 10.932 6.62 11.1514C6.47326 11.3707 6.39547 11.6283 6.39649 11.8916C6.39649 12.066 6.43122 12.2386 6.49868 12.3997C6.56614 12.5608 6.66501 12.707 6.78961 12.8301C6.91421 12.9532 7.06209 13.0506 7.22478 13.1169C7.38746 13.1832 7.56173 13.217 7.73761 13.2163Z" fill="#C0B3A8"/>
<path d="M58.0293 20.4585C58.2948 20.4595 58.5546 20.3823 58.7758 20.2368C58.997 20.0913 59.1697 19.884 59.272 19.6411C59.3743 19.3982 59.4016 19.1306 59.3504 18.8724C59.2993 18.6141 59.172 18.3766 58.9846 18.1901C58.7973 18.0036 58.5583 17.8765 58.298 17.8248C58.0377 17.773 57.7678 17.7991 57.5224 17.8996C57.2771 18.0001 57.0673 18.1705 56.9197 18.3893C56.7721 18.6081 56.6934 18.8654 56.6934 19.1286C56.6947 19.48 56.8357 19.8167 57.0858 20.0657C57.3359 20.3146 57.6749 20.4558 58.0293 20.4585Z" fill="#C0B3A8"/>
</g>
<defs>
<clipPath id="clip0_939_5895">
<rect width="61" height="66" fill="white"/>
</clipPath>
</defs>
</svg>
