<svg width="90" height="90" viewBox="0 0 90 90" fill="none" xmlns="http://www.w3.org/2000/svg">
<g clip-path="url(#clip0_1738_11149)">
<path d="M43.5503 35.9705C43.5246 36.6372 43.4578 37.3017 43.3504 37.9602C43.1076 39.638 42.8362 41.5379 45.1927 42.8849C45.8032 43.2592 46.5034 43.4648 47.2208 43.4804C48.5061 43.4804 49.4964 42.7053 50.4104 41.9916C50.9321 41.5715 51.479 41.1833 52.0481 40.829C52.7584 40.4469 53.5026 40.1305 54.2713 39.8838C56.0565 39.2268 58.0798 38.4659 59.289 36.4006L79.4503 1.72961C79.6044 1.4645 79.646 1.14951 79.5661 0.85392C79.4862 0.558331 79.2913 0.306361 79.0243 0.15344C78.7572 0.00051843 78.4399 -0.0408269 78.1422 0.0384992C77.8444 0.117825 77.5906 0.311325 77.4366 0.57643L75.2372 4.35735L73.2282 3.20889C72.9644 3.08259 72.6623 3.05985 72.3824 3.14522C72.1025 3.23059 71.8654 3.41778 71.7185 3.6693C71.5717 3.92083 71.5259 4.21814 71.5905 4.50171C71.655 4.78528 71.8251 5.03418 72.0666 5.1986L74.0756 6.34705L70.7431 12.0421L68.7389 10.8889C68.4717 10.7537 68.1623 10.7263 67.8752 10.8124C67.5882 10.8986 67.3459 11.0916 67.1989 11.351C67.0519 11.6105 67.0117 11.9164 67.0867 12.2046C67.1616 12.4928 67.346 12.7411 67.6011 12.8975L69.6101 14.0507L66.3014 19.722L64.2686 18.5925C64.0016 18.4396 63.6843 18.3982 63.3866 18.4776C63.0888 18.5569 62.835 18.7504 62.681 19.0155C62.5269 19.2806 62.4853 19.5956 62.5652 19.8912C62.6451 20.1868 62.84 20.4387 63.107 20.5917L65.1303 21.7401L61.7979 27.4115L59.7889 26.2583C59.5218 26.1054 59.2045 26.064 58.9068 26.1434C58.609 26.2227 58.3552 26.4162 58.2012 26.6813C58.0472 26.9464 58.0055 27.2614 58.0854 27.557C58.1653 27.8526 58.3602 28.1045 58.6273 28.2575L60.6363 29.4106L57.2562 35.2191C56.4659 36.5802 55.0663 37.1095 53.4477 37.6908C52.5381 37.9908 51.6596 38.3769 50.8246 38.844C50.1747 39.2474 49.5499 39.6893 48.9536 40.1674C47.6159 41.2118 47.2969 41.4151 46.3353 40.8668C45.3736 40.3186 45.3832 39.9216 45.6307 38.2627C45.7533 37.5135 45.8281 36.7574 45.8545 35.9989C45.8447 35.0464 45.7443 34.0969 45.5545 33.1632C45.2641 31.4665 45.0118 30.0061 45.8069 28.6403L61.4694 1.70125C61.6234 1.43615 61.6651 1.12115 61.5852 0.825563C61.5053 0.529974 61.3103 0.278004 61.0433 0.125083C60.7763 -0.0278384 60.459 -0.0691837 60.1612 0.0101423C59.8635 0.0894683 59.6097 0.282968 59.4556 0.548073L43.7979 27.5107C42.5839 29.5997 42.9457 31.7123 43.2647 33.5791C43.4337 34.3658 43.5293 35.1664 43.5503 35.9705Z" fill="#A3784E" stroke="#FAF5F0" stroke-width="0.8"/>
<path d="M44.3168 48.4288C43.4885 49.3741 36.2571 57.8291 36.2571 62.3899C36.311 64.7078 37.2763 66.9127 38.9467 68.5331C40.617 70.1536 42.8597 71.0608 45.1952 71.0608C47.5306 71.0608 49.7734 70.1536 51.4437 68.5331C53.1141 66.9127 54.0794 64.7078 54.1333 62.3899C54.1333 57.8291 46.9019 49.3741 46.0735 48.4288C45.9616 48.3084 45.8258 48.2123 45.6746 48.1466C45.5235 48.0808 45.3602 48.0469 45.1952 48.0469C45.0302 48.0469 44.8669 48.0808 44.7157 48.1466C44.5646 48.2123 44.4287 48.3084 44.3168 48.4288ZM45.1928 68.9545C44.3226 68.9564 43.4606 68.7878 42.6561 68.4585C41.8516 68.1292 41.1204 67.6456 40.5044 67.0354C39.8885 66.4252 39.3997 65.7004 39.0663 64.9024C38.7329 64.1045 38.5612 63.249 38.5612 62.3852C38.5612 59.6204 42.7506 53.9348 45.1738 50.9762C47.6017 53.9348 51.7911 59.6156 51.7911 62.3852C51.7898 64.1238 51.0948 65.7912 49.8583 67.0223C48.6217 68.2535 46.9441 68.9482 45.1928 68.9545Z" fill="#A3784E" stroke="#FAF5F0" stroke-width="0.8"/>
<path d="M17.2955 35.4461C17.7102 35.447 18.1158 35.3258 18.461 35.0976C18.8062 34.8695 19.0754 34.5448 19.2346 34.1646C19.3937 33.7844 19.4356 33.3659 19.3549 32.9621C19.2742 32.5583 19.0746 32.1873 18.7814 31.8962C18.4882 31.6051 18.1145 31.4069 17.7077 31.3268C17.301 31.2468 16.8794 31.2883 16.4965 31.4463C16.1135 31.6043 15.7864 31.8716 15.5566 32.2142C15.3268 32.5569 15.2046 32.9596 15.2056 33.3713C15.2068 33.9212 15.4274 34.4482 15.8191 34.837C16.2107 35.2259 16.7416 35.4449 17.2955 35.4461Z" fill="#C0B3A8" stroke="#FAF5F0" stroke-width="0.8"/>
<path d="M17.2955 16.2674C17.7096 16.2683 18.1147 16.1474 18.4596 15.9199C18.8044 15.6924 19.0737 15.3685 19.2332 14.9891C19.3928 14.6098 19.4355 14.192 19.3559 13.7886C19.2764 13.3851 19.0783 13.0142 18.7864 12.7225C18.4946 12.4308 18.1223 12.2316 17.7165 12.1499C17.3107 12.0682 16.8895 12.1077 16.5064 12.2635C16.1232 12.4193 15.7951 12.6844 15.5636 13.0252C15.332 13.3661 15.2075 13.7674 15.2056 14.1784C15.2043 14.4519 15.2574 14.723 15.3618 14.976C15.4663 15.2291 15.6199 15.4593 15.8141 15.6533C16.0082 15.8474 16.239 16.0015 16.4932 16.1069C16.7474 16.2122 17.02 16.2668 17.2955 16.2674Z" fill="#C0B3A8" stroke="#FAF5F0" stroke-width="0.8"/>
<path d="M4.46554 6.46026C4.88043 6.46213 5.28654 6.34164 5.63236 6.11407C5.97818 5.88651 6.24814 5.56211 6.408 5.18202C6.56787 4.80194 6.61043 4.38328 6.5303 3.97914C6.45017 3.57501 6.25095 3.2036 5.95791 2.91202C5.66487 2.62044 5.2912 2.42182 4.8843 2.34135C4.4774 2.26087 4.05559 2.30217 3.67237 2.46001C3.28914 2.61785 2.96176 2.88511 2.73175 3.22791C2.50173 3.5707 2.37944 3.97359 2.38038 4.38548C2.38163 4.93455 2.60156 5.46084 2.9922 5.84953C3.38284 6.23822 3.91247 6.45776 4.46554 6.46026Z" fill="#C0B3A8" stroke="#FAF5F0" stroke-width="0.8"/>
<path d="M36.0238 10.5721C36.4389 10.573 36.8449 10.4515 37.1903 10.2229C37.5357 9.99436 37.8049 9.66907 37.9638 9.28835C38.1226 8.90763 38.1639 8.48863 38.0825 8.08455C38.001 7.68048 37.8005 7.30953 37.5063 7.01881C37.2121 6.72808 36.8375 6.53068 36.4302 6.45167C36.0228 6.37266 35.6009 6.41559 35.2181 6.57502C34.8354 6.73445 34.5089 7.00319 34.2803 7.34712C34.0516 7.69106 33.9311 8.09468 33.9339 8.50676C33.9377 9.055 34.1593 9.57959 34.5507 9.96638C34.9421 10.3532 35.4716 10.5709 36.0238 10.5721Z" fill="#C0B3A8" stroke="#FAF5F0" stroke-width="0.8"/>
<path d="M33.234 30.2474C33.6485 30.2483 34.0539 30.1272 34.399 29.8992C34.7441 29.6713 35.0133 29.3468 35.1726 28.967C35.3319 28.5871 35.374 28.1688 35.2937 27.7651C35.2135 27.3614 35.0143 26.9904 34.7216 26.6991C34.4288 26.4078 34.0556 26.2093 33.6491 26.1287C33.2427 26.0481 32.8213 26.089 32.4382 26.2462C32.0552 26.4035 31.7278 26.67 31.4974 27.0121C31.267 27.3542 31.144 27.7564 31.144 28.1679C31.1453 28.7182 31.3657 29.2457 31.7573 29.6353C32.1488 30.0248 32.6796 30.2449 33.234 30.2474Z" fill="#C0B3A8" stroke="#FAF5F0" stroke-width="0.8"/>
<path d="M5.20826 44.9976C5.20732 45.4093 5.32949 45.812 5.55929 46.1547C5.7891 46.4974 6.11619 46.7647 6.49914 46.9227C6.88209 47.0806 7.30365 47.1222 7.71042 47.0421C8.11719 46.962 8.49087 46.7639 8.7841 46.4728C9.07733 46.1817 9.27693 45.8107 9.3576 45.4069C9.43827 45.0031 9.39639 44.5846 9.23726 44.2044C9.07813 43.8242 8.80891 43.4995 8.46371 43.2713C8.11851 43.0432 7.71287 42.9219 7.29818 42.9229C6.74428 42.9241 6.21343 43.1431 5.82177 43.5319C5.43011 43.9208 5.20951 44.4478 5.20826 44.9976Z" fill="#C0B3A8" stroke="#FAF5F0" stroke-width="0.8"/>
<path d="M4.46553 24.6609C4.88022 24.6628 5.28614 24.5424 5.63186 24.3151C5.97758 24.0877 6.24754 23.7636 6.40754 23.3838C6.56755 23.004 6.61039 22.5856 6.53064 22.1816C6.4509 21.7776 6.25215 21.4061 5.95959 21.1144C5.66703 20.8226 5.29381 20.6236 4.88722 20.5426C4.48063 20.4616 4.05898 20.5022 3.67567 20.6593C3.29236 20.8164 2.96465 21.083 2.73406 21.4251C2.50347 21.7673 2.38038 22.1697 2.38037 22.5814C2.38037 23.1313 2.59975 23.6588 2.99052 24.0485C3.38129 24.4382 3.91164 24.6584 4.46553 24.6609Z" fill="#C0B3A8" stroke="#FAF5F0" stroke-width="0.8"/>
<path d="M26.5929 50.3332C27.0062 50.3332 27.4103 50.2115 27.754 49.9835C28.0976 49.7555 28.3655 49.4315 28.5237 49.0524C28.6819 48.6732 28.7233 48.2561 28.6426 47.8536C28.562 47.4511 28.3629 47.0814 28.0707 46.7913C27.7784 46.5011 27.406 46.3035 27.0006 46.2235C26.5952 46.1434 26.175 46.1845 25.7931 46.3415C25.4112 46.4986 25.0848 46.7645 24.8551 47.1057C24.6255 47.4469 24.5029 47.848 24.5029 48.2584C24.5042 48.8083 24.7248 49.3353 25.1164 49.7241C25.5081 50.1129 26.039 50.3319 26.5929 50.3332Z" fill="#C0B3A8" stroke="#FAF5F0" stroke-width="0.8"/>
<path d="M59.3652 59.3083C59.213 59.2975 59.0601 59.3165 58.9153 59.3643C58.7705 59.4121 58.6365 59.4877 58.5212 59.5869C58.4058 59.6861 58.3112 59.8069 58.2428 59.9423C58.1745 60.0778 58.1337 60.2253 58.1227 60.3765C58.1118 60.5276 58.1309 60.6794 58.1791 60.8231C58.2272 60.9669 58.3034 61.0999 58.4033 61.2144C58.5032 61.329 58.6249 61.4229 58.7614 61.4907C58.8978 61.5586 59.0464 61.5991 59.1986 61.61C78.841 62.9995 87.6768 66.7473 87.6768 68.9686C87.6768 70.0036 85.1679 72.2769 75.7752 74.2051C67.5678 75.8877 56.6422 76.814 45.0119 76.814C33.3816 76.814 22.4512 75.8688 14.2486 74.2051C4.84158 72.2722 2.347 70.0036 2.347 68.9686C2.347 66.7237 11.3065 62.9475 31.2156 61.5816C31.523 61.5609 31.8096 61.4199 32.0122 61.1894C32.2149 60.959 32.3171 60.658 32.2962 60.3528C32.2754 60.0476 32.1333 59.7631 31.9011 59.5619C31.669 59.3607 31.3659 59.2593 31.0584 59.28C23.7509 59.781 0 61.9503 0 68.9686V79.8387C0 86.5073 22.6369 89.9952 45.0024 89.9952C67.3679 89.9952 90 86.5073 90 79.8387V68.9686C90 62.0164 66.5538 59.814 59.3652 59.3083ZM75.7657 85.0706C67.5583 86.7531 56.6326 87.6794 45.0024 87.6794C33.3721 87.6794 22.4417 86.7342 14.2391 85.0706C4.83205 83.1376 2.33748 80.869 2.33748 79.834V72.4423C8.66437 76.8423 26.9262 79.1251 45.0167 79.1251C63.1071 79.1251 81.3689 76.8423 87.6911 72.4423V79.8434C87.6768 80.8785 85.1679 83.147 75.7657 85.0706Z" fill="#C0B3A8" stroke="#FAF5F0" stroke-width="0.8"/>
</g>
<defs>
<clipPath id="clip0_1738_11149">
<rect width="90" height="90" fill="white"/>
</clipPath>
</defs>
</svg>
