<svg width="90" height="90" viewBox="0 0 90 90" fill="none" xmlns="http://www.w3.org/2000/svg">
<g clip-path="url(#clip0_1738_11203)">
<path d="M73.8379 56.7167V56.9116L74.0327 56.9167C78.3418 57.0289 82.4325 58.8496 85.4139 61.9826C88.3954 65.1156 90.0261 69.3073 89.9503 73.6447C89.8746 77.9822 88.0987 82.1136 85.0097 85.1394C81.9208 88.1651 77.7691 89.8401 73.4587 89.8H73.4569L1.04332 89.8L1.0421 89.8C0.931921 89.8007 0.822675 89.7794 0.720633 89.7374L0.644528 89.9224L0.720623 89.7374C0.618577 89.6954 0.525706 89.6335 0.447387 89.5552C0.369062 89.4769 0.306842 89.3837 0.264363 89.2809C0.221882 89.1782 0.199998 89.0679 0.2 88.9566V1.04973C0.2 0.823972 0.289145 0.607708 0.447434 0.448446C0.605682 0.289225 0.820051 0.2 1.04332 0.2H34.4419C34.5521 0.199998 34.6612 0.221914 34.763 0.264518C34.8648 0.307123 34.9573 0.369593 35.0352 0.448396C35.113 0.527202 35.1747 0.620786 35.2165 0.723792C35.2584 0.826806 35.2796 0.937172 35.279 1.04853V1.04973V4.70177V4.81163L35.3717 4.87056L42.2938 9.27062L42.294 9.27077C42.4144 9.34704 42.5137 9.45279 42.5827 9.57829C42.6517 9.7038 42.6881 9.84492 42.6884 9.98849V30.2661C42.6884 32.1602 42.831 35.4675 43.6417 38.9404C44.4516 42.4102 45.9337 46.068 48.6291 48.6396L48.6298 48.6403C48.7526 48.7563 48.838 48.9071 48.8745 49.073C48.911 49.2389 48.8969 49.412 48.8341 49.5696C48.7713 49.7273 48.6628 49.862 48.523 49.9563C48.3832 50.0507 48.2185 50.1003 48.0504 50.0989H48.0489C47.833 50.0988 47.6253 50.0153 47.4686 49.8653L47.4682 49.865C44.5557 47.0896 42.9363 43.2079 42.0466 39.4965C41.1574 35.7876 41.0017 32.2689 41.0017 30.241V23.1003V22.9003H40.8017H35.479H35.279V23.1003V56.7042V56.9042H35.479H56.1391H56.3391V56.7042L56.3391 37.3188L56.3391 37.3176C56.3384 37.2062 56.3597 37.0958 56.4015 36.9928C56.4434 36.8898 56.5051 36.7962 56.5829 36.7174C56.6608 36.6386 56.7533 36.5762 56.8551 36.5336C56.9569 36.491 57.066 36.469 57.1762 36.469H72.9946C73.2178 36.469 73.4322 36.5583 73.5905 36.7175C73.7487 36.8767 73.8379 37.093 73.8379 37.3188V56.7167ZM42.758 9.48193C42.6728 9.32697 42.55 9.19621 42.4011 9.10183L48.7672 48.4949C43.4569 43.4286 42.8884 34.0376 42.8884 30.2661V9.98813C42.8881 9.81103 42.8432 9.6369 42.758 9.48193ZM40.8017 30.241C40.8017 34.3142 41.4265 44.384 47.3303 50.0098L73.4569 90C77.8204 90.0406 82.023 88.3449 85.1497 85.2822C88.2763 82.2196 90.0737 78.038 90.1503 73.6482C90.2269 69.2584 88.5767 65.016 85.5588 61.8447C82.541 58.6735 78.4001 56.8304 74.0379 56.7167V37.3188C74.0379 37.0404 73.928 36.7734 73.7323 36.5765C73.5367 36.3796 73.2713 36.269 72.9946 36.269H57.1762C57.0395 36.269 56.9041 36.2962 56.7779 36.3491C56.6516 36.4019 56.537 36.4793 56.4406 36.5769C56.3443 36.6744 56.268 36.7902 56.2162 36.9175C56.1645 37.0448 56.1383 37.1812 56.1391 37.3188V56.5042V56.7042H55.9391H35.679H35.479V56.5042V23.3003V23.1003H35.679H40.6017H40.8017V23.3003V30.241ZM35.5864 7.00337L35.279 6.80771V7.17209V21.0071V21.2071H35.479H40.8017H41.0017V21.0071V10.5601V10.4504L40.9091 10.3914L35.5864 7.00337ZM58.2195 38.1433H58.0195V38.3433V56.7042V56.9042H58.2195H71.9638H72.1638V56.7042V38.3433V38.1433H71.9638H58.2195ZM2.08038 1.89317H1.88038V2.09317V63.8825V64.0825H2.08038H33.3986H33.5986V63.8825V2.09317V1.89317H33.3986H2.08038ZM73.4569 88.1069L73.4611 88.1068C77.2983 88.0266 80.9512 86.4365 83.6364 83.6781C86.3216 80.9197 87.8252 77.2126 87.8252 73.3521C87.8252 69.4915 86.3216 65.7845 83.6364 63.0261C80.9512 60.2677 77.2983 58.6776 73.4611 58.5973H73.4569H35.479H35.279V58.7973L35.279 64.9511L35.279 64.9523C35.2796 65.0637 35.2584 65.174 35.2165 65.277C35.1747 65.3801 35.113 65.4736 35.0352 65.5525C34.9573 65.6312 34.8648 65.6937 34.763 65.7363C34.6612 65.7789 34.5521 65.8008 34.4419 65.8008H2.08038H1.88038V66.0008V87.9068V88.1068H2.08038L73.4569 88.1069Z" fill="#A3784E" stroke="#FAF5F0" stroke-width="0.4"/>
<path d="M53.7089 73.3552C53.7089 74.4679 52.8127 75.3678 51.7098 75.3678C50.6069 75.3678 49.7107 74.4679 49.7107 73.3552C49.7107 72.2425 50.6069 71.3426 51.7098 71.3426C52.8127 71.3426 53.7089 72.2425 53.7089 73.3552Z" fill="#C0B3A8" stroke="#FAF5F0" stroke-width="0.4"/>
<path d="M40.959 71.4902C41.98 71.9109 42.47 73.0855 42.0511 74.1148C41.6322 75.1441 40.464 75.6355 39.443 75.2148C38.4219 74.7941 37.9319 73.6195 38.3508 72.5902C38.7698 71.5609 39.9379 71.0695 40.959 71.4902Z" fill="#C0B3A8" stroke="#FAF5F0" stroke-width="0.4"/>
<path d="M30.649 73.0329C30.8269 74.131 30.0864 75.1643 28.9978 75.3429C27.9092 75.5215 26.8808 74.7783 26.7028 73.6802C26.5249 72.5821 27.2654 71.5488 28.354 71.3702C29.4426 71.1916 30.471 71.9348 30.649 73.0329Z" fill="#C0B3A8" stroke="#FAF5F0" stroke-width="0.4"/>
<path d="M19.1669 73.3552C19.1669 74.4679 18.2707 75.3678 17.1678 75.3678C16.0649 75.3678 15.1688 74.4679 15.1688 73.3552C15.1688 72.2425 16.0649 71.3426 17.1678 71.3426C18.2707 71.3426 19.1669 72.2425 19.1669 73.3552Z" fill="#C0B3A8" stroke="#FAF5F0" stroke-width="0.4"/>
<path d="M73.457 80.9287L73.4573 80.9287C75.4532 80.9253 77.3661 80.1261 78.777 78.7065C80.1879 77.2869 80.9818 75.3629 80.9852 73.3558V73.3555C80.9852 71.8579 80.5438 70.3939 79.7167 69.1485C78.8897 67.9031 77.714 66.9323 76.3383 66.3589C74.9625 65.7856 73.4486 65.6355 71.9881 65.9278C70.5275 66.2201 69.1861 66.9416 68.1333 68.0009C67.0806 69.0601 66.3638 70.4094 66.0734 71.8783C65.783 73.3471 65.932 74.8696 66.5017 76.2533C67.0713 77.6369 68.036 78.8198 69.2741 79.6521C70.5121 80.4844 71.9678 80.9287 73.457 80.9287ZM68.3362 65.6422C69.8523 64.6243 71.6342 64.0816 73.4567 64.0828C73.4567 64.0828 73.4567 64.0828 73.4568 64.0828C73.4568 64.0828 73.4568 64.0828 73.4568 64.0828C75.8988 64.0861 78.24 65.064 79.9665 66.8023C81.6931 68.5407 82.6639 70.8975 82.6655 73.3556C82.6655 75.1901 82.1248 76.9832 81.1118 78.5082C80.0989 80.0333 78.6593 81.2216 76.9753 81.9231C75.2913 82.6246 73.4384 82.8078 71.651 82.4496C69.8635 82.0914 68.2217 81.2079 66.9331 79.9106C65.6446 78.6132 64.7672 76.9603 64.4123 75.161C64.0573 73.3616 64.2407 71.4967 64.9393 69.8023C65.6378 68.1079 66.82 66.6602 68.3362 65.6422Z" fill="#C0B3A8" stroke="#FAF5F0" stroke-width="0.4"/>
<path d="M59.4501 80.3877H59.4579L59.4657 80.3871C59.5814 80.3781 59.6977 80.3932 59.8074 80.4316C59.9171 80.47 60.0178 80.5308 60.1031 80.6102C60.1885 80.6897 60.2567 80.7862 60.3034 80.8936C60.35 81.001 60.3741 81.117 60.3741 81.2343C60.3741 81.3516 60.35 81.4676 60.3034 81.575C60.2567 81.6824 60.1885 81.7789 60.1031 81.8584C60.0178 81.9378 59.9171 81.9986 59.8074 82.037C59.6977 82.0754 59.5814 82.0905 59.4657 82.0815L59.4579 82.0809H59.4501H10.56C10.3514 82.0628 10.1566 81.967 10.0139 81.8119C9.8695 81.6549 9.78911 81.4487 9.78911 81.2343C9.78911 81.0199 9.8695 80.8137 10.0139 80.6567C10.1566 80.5016 10.3514 80.4058 10.56 80.3877H59.4501Z" fill="#C0B3A8" stroke="#FAF5F0" stroke-width="0.4"/>
<path d="M11.6609 11.8974L11.6687 11.898H11.6765H23.8007C24.0093 11.9161 24.2041 12.0118 24.3468 12.167C24.4912 12.3239 24.5716 12.5302 24.5716 12.7446C24.5716 12.9589 24.4912 13.1652 24.3468 13.3222C24.2041 13.4773 24.0093 13.573 23.8007 13.5911H11.6765H11.6687L11.6609 13.5917C11.5452 13.6008 11.4289 13.5856 11.3192 13.5473C11.2095 13.5089 11.1088 13.4481 11.0235 13.3686C10.9381 13.2891 10.8699 13.1927 10.8233 13.0853C10.7766 12.9779 10.7525 12.8619 10.7525 12.7446C10.7525 12.6272 10.7766 12.5112 10.8233 12.4038C10.8699 12.2964 10.9381 12.2 11.0235 12.1205C11.1088 12.041 11.2095 11.9802 11.3192 11.9418C11.4289 11.9035 11.5452 11.8883 11.6609 11.8974Z" fill="#C0B3A8" stroke="#FAF5F0" stroke-width="0.4"/>
<path d="M11.6609 21.2064L11.6687 21.207H11.6765H23.8007C24.0093 21.2252 24.2041 21.3209 24.3468 21.476C24.4912 21.633 24.5716 21.8393 24.5716 22.0536C24.5716 22.268 24.4912 22.4742 24.3468 22.6312C24.2041 22.7864 24.0093 22.8821 23.8007 22.9002H11.6765H11.6687L11.6609 22.9008C11.5452 22.9099 11.4289 22.8947 11.3192 22.8563C11.2095 22.818 11.1088 22.7572 11.0235 22.6777C10.9381 22.5982 10.8699 22.5018 10.8233 22.3944C10.7766 22.2869 10.7525 22.1709 10.7525 22.0536C10.7525 21.9363 10.7766 21.8203 10.8233 21.7129C10.8699 21.6055 10.9381 21.5091 11.0235 21.4296C11.1088 21.3501 11.2095 21.2893 11.3192 21.2509C11.4289 21.2125 11.5452 21.1974 11.6609 21.2064Z" fill="#C0B3A8" stroke="#FAF5F0" stroke-width="0.4"/>
<path d="M11.6764 30.5164H23.8088C24.0321 30.5164 24.2464 30.6056 24.4047 30.7649C24.563 30.9241 24.6521 31.1404 24.6521 31.3661C24.6521 31.5919 24.563 31.8082 24.4047 31.9674C24.2464 32.1266 24.0321 32.2159 23.8088 32.2159H11.6764C11.4531 32.2159 11.2387 32.1266 11.0805 31.9674C10.9222 31.8082 10.8331 31.5919 10.8331 31.3661C10.8331 31.1404 10.9222 30.9241 11.0805 30.7649C11.2387 30.6056 11.4531 30.5164 11.6764 30.5164Z" fill="#C0B3A8" stroke="#FAF5F0" stroke-width="0.4"/>
<path d="M57.1133 37.6001C57.1133 37.324 57.3371 37.1001 57.6133 37.1001H72.6369C72.913 37.1001 73.1369 37.324 73.1369 37.6001V56.6001C73.1369 56.8762 72.913 57.1001 72.6369 57.1001H57.6133C57.3371 57.1001 57.1133 56.8762 57.1133 56.6001V37.6001Z" stroke="#C0B3A8" stroke-linejoin="round"/>
</g>
<defs>
<clipPath id="clip0_1738_11203">
<rect width="90" height="90" fill="white"/>
</clipPath>
</defs>
</svg>
