<svg width="92" height="92" viewBox="0 0 92 92" fill="none" xmlns="http://www.w3.org/2000/svg">
<path d="M51.5796 22.7811C51.528 22.6862 51.4576 22.6029 51.3727 22.5363C51.2877 22.4697 51.1901 22.4212 51.0856 22.3938C50.9812 22.3664 50.8723 22.3607 50.7656 22.377C50.6589 22.3933 50.5567 22.4313 50.4652 22.4886L45.4231 25.397L46.2845 22.1883C46.3154 22.0851 46.3248 21.9765 46.3122 21.8695C46.2996 21.7624 46.2652 21.6591 46.2111 21.5658C46.1571 21.4726 46.0845 21.3913 45.9979 21.3271C45.9114 21.2629 45.8125 21.2171 45.7076 21.1925C45.6043 21.1617 45.4958 21.1523 45.3887 21.1649C45.2817 21.1775 45.1784 21.2119 45.0851 21.2659C44.9918 21.32 44.9106 21.3925 44.8464 21.4791C44.7822 21.5657 44.7364 21.6645 44.7118 21.7695L43.4315 26.5113L40.8472 28.005L27.1749 20.1019V17.1699L30.6444 13.6451C30.7201 13.5694 30.7802 13.4794 30.8212 13.3804C30.8622 13.2814 30.8833 13.1754 30.8833 13.0682C30.8833 12.9611 30.8622 12.855 30.8212 12.756C30.7802 12.657 30.7201 12.567 30.6444 12.4913C30.5686 12.4155 30.4787 12.3554 30.3797 12.3144C30.2807 12.2734 30.1746 12.2523 30.0674 12.2523C29.9603 12.2523 29.8542 12.2734 29.7552 12.3144C29.6562 12.3554 29.5663 12.4155 29.4905 12.4913L27.1196 14.8622V9.03765C27.1196 8.82176 27.0338 8.61471 26.8812 8.46205C26.7285 8.30939 26.5215 8.22363 26.3056 8.22363C26.0897 8.22363 25.8826 8.30939 25.73 8.46205C25.5773 8.61471 25.4916 8.82176 25.4916 9.03765V14.8701L23.1207 12.4992C22.9687 12.3514 22.7643 12.2701 22.5523 12.273C22.3404 12.276 22.1383 12.363 21.9905 12.515C21.8427 12.667 21.7614 12.8714 21.7644 13.0833C21.7673 13.2953 21.8544 13.4974 22.0063 13.6451L25.4995 17.1699V20.1493L11.8351 28.0524L9.25079 26.5587L7.97049 21.8169C7.94299 21.7131 7.89531 21.6158 7.83019 21.5304C7.76506 21.445 7.68376 21.3733 7.59093 21.3194C7.49809 21.2655 7.39554 21.2303 7.28913 21.216C7.18272 21.2017 7.07454 21.2085 6.97076 21.236C6.86697 21.2635 6.76962 21.3112 6.68426 21.3763C6.5989 21.4414 6.5272 21.5227 6.47327 21.6156C6.41933 21.7084 6.3842 21.811 6.36989 21.9174C6.35559 22.0238 6.36238 22.132 6.38988 22.2358L7.25131 25.4444L2.22497 22.4886C2.13105 22.4352 2.02751 22.4008 1.92028 22.3873C1.81305 22.3739 1.70423 22.3817 1.60002 22.4103C1.49581 22.439 1.39826 22.4878 1.31293 22.5541C1.22761 22.6205 1.15619 22.7029 1.10274 22.7969C1.04929 22.8908 1.01486 22.9943 1.00142 23.1016C0.987988 23.2088 0.995803 23.3176 1.02442 23.4218C1.05304 23.526 1.10191 23.6236 1.16823 23.7089C1.23455 23.7942 1.31703 23.8657 1.41096 23.9191L6.4531 26.8116L3.24446 27.6731C3.03486 27.7003 2.84467 27.8097 2.71573 27.9772C2.58678 28.1447 2.52965 28.3565 2.5569 28.5661C2.58415 28.7757 2.69354 28.9659 2.86102 29.0948C3.0285 29.2238 3.24034 29.2809 3.44994 29.2537H3.66333L8.44468 27.9655L11.029 29.4512V45.2574L8.44468 46.7273L3.70284 45.4391C3.59906 45.4116 3.49087 45.4048 3.38446 45.4191C3.27805 45.4334 3.1755 45.4686 3.08267 45.5225C2.98984 45.5765 2.90854 45.6481 2.84341 45.7335C2.77828 45.8189 2.73061 45.9162 2.7031 46.02C2.6756 46.1238 2.66881 46.232 2.68312 46.3384C2.69742 46.4448 2.73255 46.5473 2.78649 46.6402C2.84043 46.733 2.91213 46.8143 2.99748 46.8794C3.08284 46.9446 3.1802 46.9922 3.28398 47.0197L6.4531 47.8733L1.41096 50.7895C1.23534 50.8616 1.09155 50.9946 1.0059 51.164C0.920246 51.3334 0.89845 51.528 0.944496 51.7122C0.990542 51.8964 1.10135 52.0579 1.25666 52.1671C1.41197 52.2762 1.6014 52.3259 1.7903 52.3069C1.93483 52.3083 2.07697 52.27 2.20126 52.1962L7.26712 49.2879L6.40569 52.4966C6.37482 52.5998 6.3654 52.7083 6.37802 52.8154C6.39064 52.9225 6.42503 53.0258 6.47907 53.1191C6.53311 53.2123 6.60565 53.2936 6.69225 53.3578C6.77884 53.422 6.87766 53.4678 6.98261 53.4923C7.05327 53.5038 7.12533 53.5038 7.19599 53.4923C7.3776 53.4972 7.55533 53.4393 7.69927 53.3285C7.84322 53.2177 7.94458 53.0606 7.9863 52.8838L9.26659 48.142L11.8509 46.6483L25.4995 54.5355V57.515L21.9984 61.0161C21.8454 61.1659 21.7582 61.3704 21.756 61.5846C21.7538 61.7988 21.8367 62.005 21.9866 62.158C22.1364 62.3111 22.3409 62.3983 22.5551 62.4005C22.7693 62.4027 22.9755 62.3198 23.1286 62.1699L25.4995 59.799V65.6472C25.4995 65.8631 25.5852 66.0702 25.7379 66.2228C25.8905 66.3755 26.0976 66.4613 26.3135 66.4613C26.5294 66.4613 26.7364 66.3755 26.8891 66.2228C27.0417 66.0702 27.1275 65.8631 27.1275 65.6472V59.8148L29.4984 62.1857C29.6514 62.3387 29.859 62.4247 30.0753 62.4247C30.2917 62.4247 30.4993 62.3387 30.6523 62.1857C30.8053 62.0327 30.8912 61.8252 30.8912 61.6088C30.8912 61.3924 30.8053 61.1849 30.6523 61.0319L27.1433 57.5308V54.5355L40.8156 46.6325L43.3999 48.1262L44.6802 52.868C44.7219 53.0448 44.8233 53.2019 44.9672 53.3127C45.1112 53.4235 45.2889 53.4814 45.4705 53.4765C45.5412 53.488 45.6132 53.488 45.6839 53.4765C45.7888 53.4519 45.8876 53.4061 45.9742 53.342C46.0608 53.2778 46.1334 53.1965 46.1874 53.1033C46.2415 53.01 46.2758 52.9066 46.2885 52.7996C46.3011 52.6925 46.2917 52.584 46.2608 52.4808L45.3836 49.2879L50.4257 52.1962C50.55 52.27 50.6921 52.3083 50.8367 52.3069C51.0284 52.3346 51.2237 52.291 51.3854 52.1842C51.5471 52.0774 51.6639 51.9149 51.7137 51.7276C51.7634 51.5403 51.7426 51.3413 51.6552 51.1684C51.5679 50.9954 51.42 50.8606 51.2397 50.7895L46.1976 47.8733L49.4062 47.0118C49.5091 46.9887 49.6063 46.9451 49.6922 46.8838C49.778 46.8225 49.8506 46.7446 49.9059 46.6547C49.9611 46.5649 49.9978 46.4649 50.0138 46.3606C50.0298 46.2563 50.0247 46.1499 49.9989 46.0477C49.9744 45.9427 49.9286 45.8439 49.8644 45.7573C49.8002 45.6707 49.7189 45.5982 49.6257 45.5441C49.5324 45.4901 49.4291 45.4557 49.322 45.4431C49.2149 45.4305 49.1064 45.4399 49.0032 45.4707L44.2613 46.7589L41.6217 45.2574V29.4512L44.206 27.9576L48.9478 29.2458H49.1612C49.3708 29.273 49.5827 29.2159 49.7501 29.0869C49.9176 28.958 50.027 28.7678 50.0543 28.5582C50.0815 28.3486 50.0244 28.1368 49.8954 27.9693C49.7665 27.8018 49.5763 27.6924 49.3667 27.6652L46.1581 26.8037L51.2397 23.9191C51.3419 23.8722 51.4329 23.804 51.5066 23.7192C51.5803 23.6343 51.6351 23.5347 51.6672 23.427C51.6994 23.3193 51.7082 23.206 51.6931 23.0946C51.678 22.9832 51.6393 22.8763 51.5796 22.7811ZM39.1797 28.985L27.1354 35.9318V22.0303L39.1797 28.985ZM25.4995 22.0303V35.9318L13.471 28.985L25.4995 22.0303ZM12.657 30.3917L24.7092 37.3543L12.657 44.2932V30.3917ZM13.4473 45.6999L25.4995 38.7531V52.6546L13.4473 45.6999ZM27.1117 52.6546V38.7531L39.156 45.6999L27.1117 52.6546ZM39.9937 44.2932L27.9494 37.3543L39.9937 30.3996V44.2932Z" fill="#C0B3A8" stroke="#FAF5F0" stroke-width="0.2"/>
<path d="M41.6217 73.0207C42.5208 73.0207 43.2497 72.2918 43.2497 71.3927C43.2497 70.4935 42.5208 69.7646 41.6217 69.7646C40.7225 69.7646 39.9937 70.4935 39.9937 71.3927C39.9937 72.2918 40.7225 73.0207 41.6217 73.0207Z" fill="#C0B3A8" stroke="#FAF5F0" stroke-width="0.2"/>
<path d="M44.0875 13.3523C44.9866 13.3523 45.7155 12.6234 45.7155 11.7242C45.7155 10.8251 44.9866 10.0962 44.0875 10.0962C43.1884 10.0962 42.4595 10.8251 42.4595 11.7242C42.4595 12.6234 43.1884 13.3523 44.0875 13.3523Z" fill="#C0B3A8" stroke="#FAF5F0" stroke-width="0.2"/>
<path d="M9.3773 7.82833C10.2764 7.82833 11.0053 7.09943 11.0053 6.2003C11.0053 5.30116 10.2764 4.57227 9.3773 4.57227C8.47816 4.57227 7.74927 5.30116 7.74927 6.2003C7.74927 7.09943 8.47816 7.82833 9.3773 7.82833Z" fill="#C0B3A8" stroke="#FAF5F0" stroke-width="0.2"/>
<path d="M20.2044 85.7443C21.1036 85.7443 21.8325 85.0154 21.8325 84.1163C21.8325 83.2172 21.1036 82.4883 20.2044 82.4883C19.3053 82.4883 18.5764 83.2172 18.5764 84.1163C18.5764 85.0154 19.3053 85.7443 20.2044 85.7443Z" fill="#C0B3A8" stroke="#FAF5F0" stroke-width="0.2"/>
<path d="M9.3773 69.298C10.2764 69.298 11.0053 68.5692 11.0053 67.67C11.0053 66.7709 10.2764 66.042 9.3773 66.042C8.47816 66.042 7.74927 66.7709 7.74927 67.67C7.74927 68.5692 8.47816 69.298 9.3773 69.298Z" fill="#C0B3A8" stroke="#FAF5F0" stroke-width="0.2"/>
<path d="M70.6892 68.0416V7.03004C70.7185 6.22032 70.5844 5.41299 70.2947 4.65628C70.0051 3.89957 69.5659 3.20898 69.0035 2.62577C68.441 2.04256 67.7668 1.57869 67.021 1.26186C66.2753 0.94503 65.4733 0.781738 64.6631 0.781738C63.8529 0.781738 63.0509 0.94503 62.3052 1.26186C61.5594 1.57869 60.8852 2.04256 60.3227 2.62577C59.7603 3.20898 59.3211 3.89957 59.0315 4.65628C58.7418 5.41299 58.6077 6.22032 58.637 7.03004V68.0416C56.2738 69.3735 54.4184 71.4508 53.3608 73.9489C52.3032 76.447 52.103 79.225 52.7915 81.8489C53.48 84.4728 55.0184 86.7946 57.1663 88.4516C59.3141 90.1086 61.9504 91.0073 64.6631 91.0073C67.3758 91.0073 70.0121 90.1086 72.1599 88.4516C74.3078 86.7946 75.8462 84.4728 76.5347 81.8489C77.2232 79.225 77.023 76.447 75.9654 73.9489C74.9078 71.4508 73.0524 69.3735 70.6892 68.0416ZM64.6592 89.3799C62.2671 89.384 59.9436 88.5818 58.0636 87.1028C56.1836 85.6238 54.857 83.5543 54.2979 81.2286C53.7389 78.9028 53.98 76.4565 54.9824 74.2846C55.9848 72.1128 57.6899 70.3422 59.8225 69.2587C59.9567 69.1929 60.0695 69.0905 60.1479 68.9632C60.2262 68.8359 60.2668 68.689 60.265 68.5395V7.03004C60.2399 6.43679 60.335 5.84459 60.5447 5.28906C60.7544 4.73354 61.0743 4.22618 61.4852 3.79752C61.896 3.36885 62.3894 3.02774 62.9355 2.79471C63.4817 2.56169 64.0693 2.44156 64.6631 2.44156C65.2569 2.44156 65.8445 2.56169 66.3907 2.79471C66.9368 3.02774 67.4302 3.36885 67.841 3.79752C68.2519 4.22618 68.5718 4.73354 68.7815 5.28906C68.9912 5.84459 69.0863 6.43679 69.0612 7.03004V68.5316C69.0594 68.6811 69.1 68.828 69.1783 68.9553C69.2567 69.0826 69.3695 69.185 69.5037 69.2508C71.6301 70.3394 73.3285 72.1116 74.3258 74.2823C75.3231 76.4529 75.5613 78.896 75.0021 81.2184C74.4429 83.5409 73.1189 85.6078 71.2429 87.0867C69.3669 88.5656 67.048 89.3705 64.6592 89.372V89.3799Z" fill="#A3784E" stroke="#FAF5F0" stroke-width="0.2"/>
<path d="M78.7581 8.20762H90.1859C90.4018 8.20762 90.6089 8.12186 90.7615 7.9692C90.9142 7.81654 90.9999 7.6095 90.9999 7.3936C90.9999 7.17771 90.9142 6.97067 90.7615 6.81801C90.6089 6.66535 90.4018 6.57959 90.1859 6.57959H78.7581C78.5422 6.57959 78.3352 6.66535 78.1825 6.81801C78.0299 6.97067 77.9441 7.17771 77.9441 7.3936C77.9441 7.6095 78.0299 7.81654 78.1825 7.9692C78.3352 8.12186 78.5422 8.20762 78.7581 8.20762Z" fill="#A3784E" stroke="#FAF5F0" stroke-width="0.2"/>
<path d="M90.186 17.9756H83.0733C82.8574 17.9756 82.6504 18.0613 82.4977 18.214C82.345 18.3667 82.2593 18.5737 82.2593 18.7896C82.2593 19.0055 82.345 19.2125 82.4977 19.3652C82.6504 19.5179 82.8574 19.6036 83.0733 19.6036H90.186C90.4019 19.6036 90.609 19.5179 90.7616 19.3652C90.9143 19.2125 91.0001 19.0055 91.0001 18.7896C91.0001 18.5737 90.9143 18.3667 90.7616 18.214C90.609 18.0613 90.4019 17.9756 90.186 17.9756Z" fill="#A3784E" stroke="#FAF5F0" stroke-width="0.2"/>
<path d="M90.186 29.3721H83.0733C82.8574 29.3721 82.6504 29.4578 82.4977 29.6105C82.345 29.7631 82.2593 29.9702 82.2593 30.1861C82.2593 30.402 82.345 30.609 82.4977 30.7617C82.6504 30.9143 82.8574 31.0001 83.0733 31.0001H90.186C90.4019 31.0001 90.609 30.9143 90.7616 30.7617C90.9143 30.609 91.0001 30.402 91.0001 30.1861C91.0001 29.9702 90.9143 29.7631 90.7616 29.6105C90.609 29.4578 90.4019 29.3721 90.186 29.3721Z" fill="#A3784E" stroke="#FAF5F0" stroke-width="0.2"/>
<path d="M90.186 40.7681H83.0733C82.8574 40.7681 82.6504 40.8538 82.4977 41.0065C82.345 41.1591 82.2593 41.3662 82.2593 41.5821C82.2593 41.798 82.345 42.005 82.4977 42.1577C82.6504 42.3103 82.8574 42.3961 83.0733 42.3961H90.186C90.4019 42.3961 90.609 42.3103 90.7616 42.1577C90.9143 42.005 91.0001 41.798 91.0001 41.5821C91.0001 41.3662 90.9143 41.1591 90.7616 41.0065C90.609 40.8538 90.4019 40.7681 90.186 40.7681Z" fill="#A3784E" stroke="#FAF5F0" stroke-width="0.2"/>
<path d="M90.186 52.1646H83.0733C82.8574 52.1646 82.6504 52.2503 82.4977 52.403C82.345 52.5556 82.2593 52.7627 82.2593 52.9786C82.2593 53.1945 82.345 53.4015 82.4977 53.5542C82.6504 53.7068 82.8574 53.7926 83.0733 53.7926H90.186C90.4019 53.7926 90.609 53.7068 90.7616 53.5542C90.9143 53.4015 91.0001 53.1945 91.0001 52.9786C91.0001 52.7627 90.9143 52.5556 90.7616 52.403C90.609 52.2503 90.4019 52.1646 90.186 52.1646Z" fill="#A3784E" stroke="#FAF5F0" stroke-width="0.2"/>
<path d="M90.1859 63.5605H78.7581C78.5422 63.5605 78.3352 63.6463 78.1825 63.799C78.0299 63.9516 77.9441 64.1587 77.9441 64.3746C77.9441 64.5905 78.0299 64.7975 78.1825 64.9502C78.3352 65.1028 78.5422 65.1886 78.7581 65.1886H90.1859C90.4018 65.1886 90.6089 65.1028 90.7615 64.9502C90.9142 64.7975 90.9999 64.5905 90.9999 64.3746C90.9999 64.1587 90.9142 63.9516 90.7615 63.799C90.6089 63.6463 90.4018 63.5605 90.1859 63.5605Z" fill="#A3784E" stroke="#FAF5F0" stroke-width="0.2"/>
</svg>
