<svg width="81" height="81" viewBox="0 0 81 81" fill="none" xmlns="http://www.w3.org/2000/svg">
<g clip-path="url(#clip0_994_7888)">
<path d="M11.5217 63.2334C11.1767 63.2334 10.8395 63.3357 10.5526 63.5274C10.2657 63.7191 10.0422 63.9915 9.91013 64.3102C9.7781 64.629 9.74356 64.9797 9.81086 65.3181C9.87817 65.6565 10.0443 65.9673 10.2883 66.2112C10.5322 66.4552 10.843 66.6213 11.1814 66.6886C11.5198 66.7559 11.8705 66.7214 12.1893 66.5894C12.508 66.4573 12.7804 66.2338 12.9721 65.9469C13.1638 65.66 13.2661 65.3228 13.2661 64.9778C13.2661 64.5151 13.0823 64.0714 12.7552 63.7443C12.428 63.4172 11.9844 63.2334 11.5217 63.2334Z" fill="#C0B3A8" stroke="#FAF5F0"/>
<path d="M21.3225 63.2334C20.9775 63.2334 20.6402 63.3357 20.3534 63.5274C20.0665 63.7191 19.8429 63.9915 19.7109 64.3102C19.5789 64.629 19.5443 64.9797 19.6116 65.3181C19.679 65.6565 19.8451 65.9673 20.089 66.2112C20.333 66.4552 20.6438 66.6213 20.9822 66.6886C21.3206 66.7559 21.6713 66.7214 21.99 66.5894C22.3088 66.4573 22.5812 66.2338 22.7729 65.9469C22.9646 65.66 23.0669 65.3228 23.0669 64.9778C23.0669 64.5151 22.8831 64.0714 22.556 63.7443C22.2288 63.4172 21.7851 63.2334 21.3225 63.2334Z" fill="#C0B3A8" stroke="#FAF5F0"/>
<path d="M59.6819 63.2334C59.3369 63.2334 58.9996 63.3357 58.7127 63.5274C58.4259 63.7191 58.2023 63.9915 58.0703 64.3102C57.9383 64.629 57.9037 64.9797 57.971 65.3181C58.0383 65.6565 58.2045 65.9673 58.4484 66.2112C58.6924 66.4552 59.0032 66.6213 59.3416 66.6886C59.6799 66.7559 60.0307 66.7214 60.3494 66.5894C60.6682 66.4573 60.9406 66.2338 61.1323 65.9469C61.3239 65.66 61.4262 65.3228 61.4262 64.9778C61.4262 64.5151 61.2425 64.0714 60.9153 63.7443C60.5882 63.4172 60.1445 63.2334 59.6819 63.2334Z" fill="#C0B3A8" stroke="#FAF5F0"/>
<path d="M69.4748 63.2334C69.1298 63.2334 68.7926 63.3357 68.5057 63.5274C68.2189 63.7191 67.9953 63.9915 67.8633 64.3102C67.7312 64.629 67.6967 64.9797 67.764 65.3181C67.8313 65.6565 67.9974 65.9673 68.2414 66.2112C68.4853 66.4552 68.7962 66.6213 69.1345 66.6886C69.4729 66.7559 69.8236 66.7214 70.1424 66.5894C70.4611 66.4573 70.7336 66.2338 70.9252 65.9469C71.1169 65.66 71.2192 65.3228 71.2192 64.9778C71.2192 64.5151 71.0354 64.0714 70.7083 63.7443C70.3812 63.4172 69.9375 63.2334 69.4748 63.2334Z" fill="#C0B3A8" stroke="#FAF5F0"/>
<path d="M29.2199 20.0604C29.1128 20.0118 28.9971 19.9854 28.8796 19.9827C28.7621 19.9799 28.6452 20.001 28.5361 20.0446C28.4269 20.0882 28.3277 20.1534 28.2443 20.2363C28.161 20.3192 28.0953 20.4181 28.0511 20.527C27.394 22.065 27.3734 23.8007 27.9939 25.3539C28.6143 26.907 29.8252 28.1508 31.3611 28.8128C31.473 28.8593 31.5931 28.883 31.7143 28.8825C31.941 28.9288 32.1768 28.8831 32.3698 28.7555C32.5628 28.628 32.6972 28.4289 32.7435 28.2022C32.7898 27.9755 32.7441 27.7398 32.6165 27.5468C32.4889 27.3537 32.2899 27.2193 32.0632 27.1731C30.9588 26.7029 30.0856 25.8146 29.6345 24.7023C29.1834 23.5901 29.1911 22.3444 29.656 21.2378C29.7068 21.1322 29.7359 21.0175 29.7414 20.9004C29.7469 20.7833 29.7288 20.6664 29.688 20.5565C29.6473 20.4466 29.5849 20.346 29.5045 20.2607C29.424 20.1755 29.3272 20.1074 29.2199 20.0604Z" fill="#C0B3A8" stroke="#FAF5F0"/>
<path d="M48.9518 27.1907C48.7251 27.237 48.5261 27.3714 48.3985 27.5644C48.2709 27.7574 48.2253 27.9932 48.2715 28.2199C48.3178 28.4466 48.4522 28.6456 48.6452 28.7732C48.8382 28.9008 49.074 28.9465 49.3007 28.9002C49.4219 28.9007 49.542 28.8769 49.6539 28.8304C51.1891 28.1676 52.3992 26.9237 53.0195 25.3709C53.6398 23.8181 53.6198 22.0828 52.9639 20.5447C52.8708 20.3278 52.6953 20.1568 52.4762 20.0693C52.257 19.9818 52.012 19.9849 51.7952 20.078C51.5783 20.1711 51.4073 20.3466 51.3198 20.5658C51.2323 20.7849 51.2354 21.0299 51.3285 21.2468C51.798 22.3505 51.8115 23.5952 51.3662 24.709C50.9209 25.8227 50.0529 26.7149 48.9518 27.1907Z" fill="#C0B3A8" stroke="#FAF5F0"/>
<path d="M16.31 31.8698C16.3088 33.0719 15.8305 34.2244 14.9801 35.074C14.1297 35.9236 12.9767 36.4008 11.7746 36.4008C11.5381 36.4008 11.3113 36.4948 11.144 36.6621C10.9768 36.8293 10.8828 37.0561 10.8828 37.2927C10.8828 37.5292 10.9768 37.756 11.144 37.9233C11.3113 38.0905 11.5381 38.1845 11.7746 38.1845C13.4494 38.1833 15.0553 37.5178 16.24 36.3339C17.4247 35.1501 18.0913 33.5446 18.0936 31.8698C18.0936 31.6333 17.9997 31.4065 17.8324 31.2392C17.6652 31.072 17.4383 30.978 17.2018 30.978C16.9653 30.978 16.7384 31.072 16.5712 31.2392C16.404 31.4065 16.31 31.6333 16.31 31.8698Z" fill="#C0B3A8" stroke="#FAF5F0"/>
<path d="M70.1126 37.2906C70.1126 37.0593 70.0207 36.8375 69.8571 36.6739C69.6936 36.5103 69.4717 36.4184 69.2404 36.4184C68.0391 36.4173 66.8873 35.9395 66.0378 35.0901C65.1883 34.2406 64.7106 33.0888 64.7094 31.8874C64.7094 31.6509 64.6154 31.4241 64.4482 31.2568C64.281 31.0896 64.0541 30.9956 63.8176 30.9956C63.5811 30.9956 63.3542 31.0896 63.187 31.2568C63.0197 31.4241 62.9258 31.6509 62.9258 31.8874C62.9281 33.5615 63.5941 35.1663 64.7778 36.35C65.9616 37.5337 67.5664 38.1997 69.2404 38.2021C69.4768 38.1963 69.7012 38.0972 69.8647 37.9264C70.0281 37.7556 70.1173 37.527 70.1126 37.2906Z" fill="#C0B3A8" stroke="#FAF5F0"/>
<path d="M71.6074 22.1711C71.6695 21.6355 71.7016 21.0968 71.7034 20.5575C71.7049 18.3073 71.1598 16.0904 70.115 14.0974C69.0702 12.1044 67.557 10.3949 65.7055 9.11612C63.8539 7.83728 61.7195 7.0273 59.4857 6.75582C57.2518 6.48434 54.9855 6.75949 52.8816 7.5576C51.7119 5.28168 49.9375 3.37223 47.7533 2.03903C45.5692 0.705836 43.0598 0.000488281 40.5009 0.000488281C37.942 0.000488281 35.4326 0.705836 33.2484 2.03903C31.0643 3.37223 29.2899 5.28168 28.1202 7.5576C26.0162 6.75949 23.7499 6.48434 21.5161 6.75582C19.2823 7.0273 17.1478 7.83728 15.2963 9.11612C13.4448 10.3949 11.9315 12.1044 10.8867 14.0974C9.84196 16.0904 9.29689 18.3073 9.29839 20.5575C9.298 21.0968 9.33004 21.6356 9.39433 22.1711C6.29273 23.2467 3.67181 25.3852 1.99566 28.2078C0.319513 31.0305 -0.303726 34.3552 0.236304 37.5933C0.776334 40.8314 2.44479 43.7739 4.94624 45.8999C7.44769 48.0258 10.6207 49.198 13.9035 49.2089H19.4768C19.7133 49.2089 19.9402 49.1149 20.1074 48.9477C20.2747 48.7804 20.3686 48.5536 20.3686 48.3171C20.3686 48.0805 20.2747 47.8537 20.1074 47.6865C19.9402 47.5192 19.7133 47.4253 19.4768 47.4253H13.9035C10.9742 47.4278 8.14316 46.3693 5.93409 44.4456C3.72502 42.5218 2.28749 39.8631 1.88745 36.9612C1.48742 34.0594 2.15196 31.1109 3.75813 28.6612C5.36431 26.2115 7.80339 24.4265 10.6241 23.6364C10.839 23.5815 11.025 23.4467 11.1441 23.2596C11.2631 23.0724 11.3065 22.8469 11.2652 22.629C10.9154 20.5994 11.091 18.5141 11.7754 16.5716C12.3544 18.104 13.3847 19.4247 14.7302 20.359C16.0757 21.2934 17.673 21.7975 19.3111 21.8048C19.5476 21.8048 19.7745 21.7108 19.9417 21.5436C20.1089 21.3763 20.2029 21.1495 20.2029 20.913C20.2029 20.6764 20.1089 20.4496 19.9417 20.2824C19.7745 20.1151 19.5476 20.0211 19.3111 20.0211C17.6889 20.0182 16.1303 19.3903 14.9591 18.2679C13.788 17.1455 13.0944 15.6149 13.0226 13.9943C14.1191 12.2908 15.6254 10.8896 17.4036 9.91897C19.1819 8.94834 21.1752 8.43931 23.201 8.43851C24.9221 8.43502 26.6237 8.80241 28.19 9.51566C28.296 9.56792 28.4115 9.59808 28.5295 9.60433C28.6476 9.61057 28.7656 9.59276 28.8766 9.55197C28.9875 9.51119 29.089 9.44828 29.1749 9.36707C29.2607 9.28586 29.3292 9.18805 29.3761 9.07956C30.2588 7.0513 31.6786 5.30262 33.4824 4.02224C35.2862 2.74185 37.4053 1.97839 39.6112 1.81425V25.5334C39.6112 25.7693 39.705 25.9956 39.8718 26.1624C40.0386 26.3293 40.2649 26.423 40.5009 26.423C40.7368 26.423 40.9631 26.3293 41.1299 26.1624C41.2968 25.9956 41.3905 25.7693 41.3905 25.5334V1.81425C43.5945 1.97681 45.7124 2.73767 47.516 4.01485C49.3196 5.29203 50.7405 7.03713 51.6256 9.06212C51.6725 9.1706 51.741 9.26842 51.8269 9.34963C51.9128 9.43084 52.0143 9.49374 52.1252 9.53453C52.2361 9.57531 52.3542 9.59313 52.4722 9.58688C52.5902 9.58064 52.7058 9.55047 52.8118 9.49821C54.3781 8.78496 56.0797 8.41757 57.8007 8.42106C59.8266 8.42187 61.8199 8.93089 63.5981 9.90152C65.3763 10.8722 66.8827 12.2734 67.9791 13.9769C67.9041 15.5952 67.2091 17.1225 66.0383 18.2421C64.8675 19.3618 63.3107 19.9879 61.6907 19.9906C61.4541 19.9906 61.2273 20.0846 61.06 20.2518C60.8928 20.4191 60.7988 20.6459 60.7988 20.8824C60.7988 21.119 60.8928 21.3458 61.06 21.513C61.2273 21.6803 61.4541 21.7742 61.6907 21.7742C63.3317 21.7705 64.9329 21.268 66.2818 20.3334C67.6308 19.3988 68.6638 18.0763 69.2438 16.5411C69.6917 17.8223 69.9203 19.1698 69.9197 20.527C69.9187 21.2273 69.8574 21.9261 69.7366 22.6159C69.6951 22.8333 69.7378 23.0582 69.856 23.2453C69.9743 23.4323 70.1592 23.5675 70.3733 23.6233C73.1936 24.4133 75.6325 26.198 77.2386 28.6472C78.8448 31.0964 79.5097 34.0445 79.1102 36.946C78.7108 39.8475 77.274 42.5063 75.0658 44.4303C72.8575 46.3544 70.0271 47.4137 67.0982 47.4122H61.5249C61.2884 47.4122 61.0616 47.5061 60.8943 47.6734C60.7271 47.8406 60.6331 48.0675 60.6331 48.304C60.6331 48.5405 60.7271 48.7673 60.8943 48.9346C61.0616 49.1018 61.2884 49.1958 61.5249 49.1958H67.0982C70.381 49.1849 73.5541 48.0127 76.0555 45.8868C78.557 43.7609 80.2254 40.8183 80.7654 37.5802C81.3055 34.3421 80.6822 31.0174 79.0061 28.1948C77.3299 25.3721 74.709 23.2336 71.6074 22.158V22.1711Z" fill="#C0B3A8" stroke="#FAF5F0" stroke-width="0.5"/>
<path d="M40.5009 30.9629C36.3424 30.971 32.3571 32.6286 29.4195 35.5719C26.4819 38.5152 24.832 42.5038 24.832 46.6623C24.832 50.9621 27.1957 54.5119 29.4808 57.9135C31.4388 60.844 33.2879 63.6088 33.3795 66.5307V71.4236H33.048C32.8115 71.4236 32.5847 71.5176 32.4174 71.6848C32.2502 71.8521 32.1562 72.0789 32.1562 72.3155C32.1562 72.552 32.2502 72.7788 32.4174 72.9461C32.5847 73.1133 32.8115 73.2073 33.048 73.2073H33.3795V77.1888C33.3797 77.3239 33.4105 77.4571 33.4693 77.5787C33.5282 77.7003 33.6138 77.807 33.7196 77.8909L37.4351 80.8171C37.5934 80.9406 37.7882 81.0081 37.989 81.009H43.0128C43.2134 81.0074 43.408 80.94 43.5666 80.8171L47.2821 77.8909C47.3886 77.8079 47.4744 77.7012 47.5327 77.5794C47.5909 77.4575 47.6201 77.3238 47.6179 77.1888V73.2029H47.9712C48.2077 73.2029 48.4345 73.1089 48.6018 72.9417C48.769 72.7745 48.863 72.5476 48.863 72.3111C48.863 72.0746 48.769 71.8477 48.6018 71.6805C48.4345 71.5132 48.2077 71.4193 47.9712 71.4193H47.6354V66.5176C47.7313 63.5958 49.5803 60.8484 51.5602 57.9004C53.8453 54.4814 56.209 50.9491 56.209 46.6492C56.2055 42.4862 54.5487 38.495 51.603 35.5534C48.6573 32.6118 44.6638 30.9606 40.5009 30.9629ZM45.8387 76.7527L42.7031 79.221H38.2986L35.1631 76.7527V73.1985H45.8387V76.7527ZM35.1631 71.4106V67.3854H45.8387V71.4106H35.1631ZM50.0382 56.9105C48.1979 59.6666 46.2966 62.5099 45.9041 65.6018H35.0933C34.7052 62.5099 32.8038 59.6666 30.9635 56.9105C28.8223 53.7139 26.6026 50.4083 26.6026 46.6492C26.6026 44.8257 26.9617 43.0202 27.6595 41.3355C28.3573 39.6509 29.3801 38.1202 30.6695 36.8308C31.9588 35.5415 33.4895 34.5187 35.1741 33.8209C36.8588 33.1231 38.6644 32.764 40.4878 32.764C42.3112 32.764 44.1168 33.1231 45.8014 33.8209C47.4861 34.5187 49.0168 35.5415 50.3061 36.8308C51.5955 38.1202 52.6183 39.6509 53.3161 41.3355C54.0139 43.0202 54.373 44.8257 54.373 46.6492C54.3861 50.4083 52.1795 53.7139 50.0382 56.9105Z" fill="#A3784E" stroke="#FAF5F0" stroke-width="0.5"/>
<path d="M40.4997 37.5347C38.0831 37.5404 35.7676 38.5048 34.0613 40.216C32.3549 41.9272 31.3973 44.2455 31.3984 46.6621C31.3984 46.8986 31.4924 47.1255 31.6596 47.2927C31.8269 47.46 32.0537 47.5539 32.2902 47.5539C32.5268 47.5539 32.7536 47.46 32.9209 47.2927C33.0881 47.1255 33.1821 46.8986 33.1821 46.6621C33.1832 44.719 33.9553 42.8557 35.3289 41.4813C36.7025 40.1069 38.5653 39.3337 40.5084 39.3314C40.745 39.3314 40.9718 39.2374 41.139 39.0702C41.3063 38.9029 41.4002 38.6761 41.4002 38.4396C41.4002 38.203 41.3063 37.9762 41.139 37.809C40.9718 37.6417 40.745 37.5478 40.5084 37.5478L40.4997 37.5347Z" fill="#A3784E" stroke="#FAF5F0"/>
</g>
<defs>
<clipPath id="clip0_994_7888">
<rect width="81" height="81" fill="white"/>
</clipPath>
</defs>
</svg>
