<svg width="86" height="50" viewBox="0 0 86 50" fill="none" xmlns="http://www.w3.org/2000/svg">
<path d="M43 43.6239C19.804 43.6239 1 36.2366 1 27.1239C1 23.7504 3.57707 20.6133 8 18M81.5 20.5192C83.7511 22.5416 85 24.7755 85 27.1239C85 34.6701 72.1053 41.0331 54.5 42.9978" stroke="#C0B3A8" stroke-width="1.5" stroke-linecap="round"/>
<path d="M39 38.5L43.5 43.5L39 49" stroke="#C0B3A8" stroke-width="1.5" stroke-linecap="round" stroke-linejoin="round"/>
<circle cx="78.5" cy="4.5" r="1.75" stroke="#A3784E" stroke-width="1.5"/>
<g clip-path="url(#clip0_1956_13594)">
<path d="M17.6045 14.5672H23.1435M23.1435 14.5672C24.6125 14.5672 26.0213 15.1522 27.0601 16.1936C28.0988 17.235 28.6824 18.6474 28.6824 20.1201C28.6824 21.5928 28.0988 23.0052 27.0601 24.0466C26.0213 25.0879 24.6125 25.673 23.1435 25.673H14.4395M23.1435 14.5672C24.6125 14.5672 26.0213 13.9822 27.0601 12.9408C28.0988 11.8994 28.6824 10.487 28.6824 9.01431C28.6824 7.54159 28.0988 6.1292 27.0601 5.08783C26.0213 4.04646 24.6125 3.46143 23.1435 3.46143H14.4395M71.4111 35.1922C71.4111 45.7078 58.6558 54.2307 42.9253 54.2307C27.1948 54.2307 14.4395 45.7078 14.4395 35.1922M49.2555 3.46143H46.0904C43.5721 3.46143 41.1569 4.46434 39.3762 6.24954C37.5955 8.03475 36.5951 10.456 36.5951 12.9807V19.3268M36.5951 19.3268C36.5951 21.0099 37.262 22.6241 38.4492 23.8142C39.6363 25.0044 41.2464 25.673 42.9253 25.673H44.5078C46.1867 25.673 47.7968 25.0044 48.984 23.8142C50.1711 22.6241 50.838 21.0099 50.838 19.3268V17.7403C50.838 16.0572 50.1711 14.443 48.984 13.2529C47.7968 12.0627 46.1867 11.3941 44.5078 11.3941H42.9253C41.2464 11.3941 39.6363 12.0627 38.4492 13.2529C37.262 14.443 36.5951 16.0572 36.5951 17.7403V19.3268ZM58.7508 14.5672V9.80758C58.7508 8.12447 59.4177 6.51031 60.6048 5.32017C61.792 4.13004 63.4021 3.46143 65.081 3.46143H66.6635C68.3424 3.46143 69.9525 4.13004 71.1396 5.32017C72.3268 6.51031 72.9937 8.12447 72.9937 9.80758V19.3268C72.9937 21.0099 72.3268 22.6241 71.1396 23.8142C69.9525 25.0044 68.3424 25.673 66.6635 25.673H65.081C63.4021 25.673 61.792 25.0044 60.6048 23.8142C59.4177 22.6241 58.7508 21.0099 58.7508 19.3268V14.5672Z" stroke="#A3784E" stroke-width="1.5" stroke-linecap="round" stroke-linejoin="round"/>
</g>
<defs>
<clipPath id="clip0_1956_13594">
<rect width="61" height="30" fill="white" transform="translate(13)"/>
</clipPath>
</defs>
</svg>
