<svg width="80" height="80" viewBox="0 0 80 80" fill="none" xmlns="http://www.w3.org/2000/svg">
<rect x="0.5" y="0.5" width="79" height="79" fill="#C0B3A8" fill-opacity="0.1" stroke="#C0B3A8" stroke-dasharray="4 4"/>
<path d="M54.375 40C54.375 40.1658 54.3092 40.3247 54.1919 40.4419C54.0747 40.5592 53.9158 40.625 53.75 40.625H40.625V53.75C40.625 53.9158 40.5592 54.0747 40.4419 54.1919C40.3247 54.3092 40.1658 54.375 40 54.375C39.8342 54.375 39.6753 54.3092 39.5581 54.1919C39.4408 54.0747 39.375 53.9158 39.375 53.75V40.625H26.25C26.0842 40.625 25.9253 40.5592 25.8081 40.4419C25.6908 40.3247 25.625 40.1658 25.625 40C25.625 39.8342 25.6908 39.6753 25.8081 39.5581C25.9253 39.4408 26.0842 39.375 26.25 39.375H39.375V26.25C39.375 26.0842 39.4408 25.9253 39.5581 25.8081C39.6753 25.6908 39.8342 25.625 40 25.625C40.1658 25.625 40.3247 25.6908 40.4419 25.8081C40.5592 25.9253 40.625 26.0842 40.625 26.25V39.375H53.75C53.9158 39.375 54.0747 39.4408 54.1919 39.5581C54.3092 39.6753 54.375 39.8342 54.375 40Z" fill="#C0B3A8"/>
</svg>
