<svg width="308" height="85" viewBox="0 0 308 85" fill="none" xmlns="http://www.w3.org/2000/svg">
<path d="M50.6116 53.5874C40.8603 53.5874 33.502 59.4055 33.502 67.1119C33.502 74.8183 40.7067 80.6236 50.6116 80.6236C60.5166 80.6236 67.7213 74.8183 67.7213 67.1119C67.7213 59.4055 60.5294 53.5874 50.6116 53.5874ZM62.9224 67.1119C62.9224 72.9172 57.7396 77.1276 50.6116 77.1276C43.714 77.1276 38.3009 72.7258 38.3009 67.1119C38.3009 61.4979 43.4197 57.0834 50.6116 57.0834C57.8036 57.0834 62.9224 61.3959 62.9224 67.1119Z" fill="#886E4D"/>
<path d="M79.8159 53.9194L79.3425 59.3165C78.6514 66.9718 77.1414 76.9621 71.8178 76.541H71.5234V79.9604V80.2156H71.7794C72.2273 80.2156 72.6368 80.2794 73.0591 80.2794C79.0481 80.2794 82.1194 74.9972 83.6423 62.0214L84.0902 57.4154H96.145V80.2156H100.714V53.9194H79.8159Z" fill="#886E4D"/>
<path d="M115.571 53.9194L115.085 59.3165C113.651 75.1758 110.055 76.7452 107.56 76.5538H107.266V79.9732V80.2284H107.522C107.957 80.2284 108.379 80.2921 108.801 80.2921C114.79 80.2921 117.862 75.0099 119.384 62.0341L119.845 57.4154H131.9V80.2156H136.456V53.9194H115.571Z" fill="#886E4D"/>
<path d="M149.79 76.7196V68.0691H164.827V64.5731H149.79V57.4154H168.666V53.9194H145.234V80.2156H169.139V76.7196H149.79Z" fill="#886E4D"/>
<path d="M235.747 76.7196V53.9194H231.178V76.7196H214.056V53.9194H209.5V80.2156H237.718V85.0002H242.043V76.7196H235.747Z" fill="#886E4D"/>
<path d="M307.564 53.3579C306.656 53.3579 305.414 53.3579 304.096 53.3579H303.968C302.369 53.3579 300.359 53.2686 298.568 53.2686C288.125 53.2686 284.401 57.9766 284.401 62.3657C284.401 63.6416 284.926 67.8648 291.529 70.021L283.531 80.3813H288.752L296.098 70.6207H303.623V80.3813H307.999V53.3579H307.564ZM303.623 56.79V67.163H295.612C292.374 66.793 289.034 64.8154 289.034 62.1615C289.034 58.7549 292.566 56.6497 298.248 56.6497C300.103 56.6497 301.972 56.7262 303.367 56.7773L303.623 56.79Z" fill="#886E4D"/>
<path d="M252.857 72.7772V54.1874H248.301V81.147L272.474 62.0214V80.4835H277.043V53.5239L252.857 72.7772Z" fill="#886E4D"/>
<path d="M46.5822 30.3279V11.7509H42.0137V38.7106L66.1873 19.5722V38.0471H70.7559V11.0747L46.5822 30.3279Z" fill="#886E4D"/>
<path d="M117.989 30.3279V11.7509H113.434V38.7106L137.607 19.5722V38.0471H142.163V11.0747L117.989 30.3279Z" fill="#886E4D"/>
<path d="M91.4864 21.6008C89.8995 21.6008 87.5577 21.6008 85.6637 21.7667V14.6217H101.199V11.1768H81.2871V38.1874H81.7222C82.6436 38.1874 83.7953 38.1874 85.139 38.2512C86.841 38.2512 88.7606 38.3405 90.6802 38.3405C99.9452 38.3405 105.038 35.2529 105.038 29.6389C105.038 24.4588 100.214 21.6008 91.448 21.6008M100.662 29.741C100.662 33.1604 97.437 34.8446 91.0641 34.8446C89.8612 34.8446 88.7222 34.8446 87.7112 34.8446H85.6253V25.1605C88.0824 25.0074 90.4626 24.9947 91.1281 24.9947C95.4791 24.9947 100.662 25.8112 100.662 29.741Z" fill="#886E4D"/>
<path d="M161.167 11.228C160.015 11.228 158.006 11.228 156.393 11.228H152.03H151.748V38.0473H155.818V28.2867C157.584 28.376 159.657 28.4271 161.359 28.4271C171.11 28.4271 174.591 23.9614 174.591 19.7765C174.591 15.885 172.262 11.228 161.167 11.228ZM170.342 19.7765C170.342 23.2214 166.913 25.2884 161.167 25.2884C159.375 25.2884 157.686 25.1991 155.907 25.097H155.818V14.4688C157.366 14.4688 160.066 14.3795 161.487 14.3795C167.271 14.3795 170.342 16.2423 170.342 19.7765Z" fill="#886E4D"/>
<path d="M206.993 32.0378C204.485 34.0639 201.324 35.1115 198.099 34.9851C195.847 35.0167 193.616 34.5595 191.559 33.6454C189.747 32.8589 188.178 31.6035 187.016 30.0091C185.962 28.515 185.396 26.7326 185.396 24.9055C185.396 23.0785 185.962 21.2961 187.016 19.802C188.178 18.2076 189.747 16.9521 191.559 16.1657C193.616 15.2515 195.847 14.7944 198.099 14.826C201.337 14.6975 204.515 15.7294 207.057 17.735L207.441 18.054L210.435 15.5915L209.949 15.1449C208.425 13.8168 206.637 12.8254 204.702 12.2359C202.553 11.5659 200.312 11.2344 198.06 11.2535C195.073 11.2075 192.11 11.7991 189.371 12.9887C186.918 14.0335 184.795 15.7223 183.228 17.8754C181.781 19.9307 181.004 22.3812 181.004 24.8928C181.004 27.4043 181.781 29.8548 183.228 31.9102C184.795 34.053 186.906 35.74 189.345 36.7968C192.077 37.9817 195.03 38.5732 198.009 38.5321C200.274 38.5522 202.529 38.2164 204.689 37.5369C206.627 36.9309 208.417 35.9318 209.949 34.6023L210.435 34.1557L207.428 31.6933L206.993 32.0378Z" fill="#886E4D"/>
<path d="M263.414 11.3046L263.299 11.126L247.328 37.6263L247.072 38.0473H252.191L256.299 30.8768H270.376L274.624 37.9835V38.0473H279.897L263.414 11.3046ZM268.29 27.3809H258.27L263.209 18.8579L268.29 27.3809Z" fill="#886E4D"/>
<path d="M307.564 11.1767C306.63 11.1767 305.363 11.1767 304.007 11.1767H303.879C302.202 11.1767 300.295 11.1001 298.568 11.1001C288.125 11.1001 284.414 15.7954 284.414 20.1972C284.414 21.4731 284.926 25.6836 291.529 27.8526L283.531 38.2639H288.765L296.098 28.5033H303.623V38.2639H307.999V11.1767H307.564ZM303.623 14.6088V24.9818H295.612C292.374 24.6246 289.034 22.6469 289.034 19.9803C289.034 16.5864 292.566 14.4812 298.248 14.4812C300.129 14.4812 302.01 14.545 303.367 14.596L303.623 14.6088Z" fill="#886E4D"/>
<path d="M18.5942 19.585C12.1956 17.7732 6.21938 16.0507 6.21938 11.0237C6.21938 6.73672 10.6984 3.98079 17.6344 3.98079C21.4735 3.98079 27.0018 4.92495 30.0347 7.60432L30.7514 8.22951L33.1188 5.2184L32.5558 4.65701C29.5101 1.63314 22.7276 0 17.9159 0C8.08775 0 1.7532 4.32528 1.7532 11.0237C1.7532 18.8322 9.53382 21.1033 17.1097 23.285C23.713 25.2116 29.9068 27.0234 29.9068 32.3822C29.9068 37.4092 24.0841 40.0375 18.3894 40.0375C10.6216 40.0375 6.04022 37.4219 3.55759 35.2274L2.94333 34.6915L0 37.4475L0.61426 38.0982C4.13346 41.811 10.7623 44.0311 18.3254 44.0311C27.6289 44.0311 34.3857 39.1572 34.3857 32.4587C34.3857 24.0761 25.9909 21.6902 18.5942 19.585Z" fill="#886E4D"/>
<path d="M217.461 11.4448H221.518V26.309L236.644 11.4448H241.852L230.565 22.6982L242.62 38.0472H237.565L227.609 25.5052L221.518 31.3488V38.0472H217.461V11.4448Z" fill="#886E4D"/>
<path d="M5.5293 53.9448H9.57317V68.6048L24.7121 53.9448H29.9205L18.6335 65.0451L30.6755 80.1772H25.6335L15.6774 67.8138L9.57317 73.5808V80.1772H5.5293V53.9448Z" fill="#886E4D"/>
<path d="M177.252 53.9448H181.309V68.6048L196.435 53.9448H201.643L190.356 65.0451L202.398 80.1772H197.356L187.4 67.8138L181.309 73.5808V80.1772H177.252V53.9448Z" fill="#886E4D"/>
</svg>
