<svg width="16" height="16" viewBox="0 0 16 16" fill="none" xmlns="http://www.w3.org/2000/svg">
<path d="M13.8245 5.11587L6.49119 12.4492C6.44863 12.4918 6.39808 12.5256 6.34244 12.5487C6.28679 12.5718 6.22715 12.5836 6.16692 12.5836C6.10669 12.5836 6.04705 12.5718 5.99141 12.5487C5.93577 12.5256 5.88522 12.4918 5.84265 12.4492L2.63432 9.24087C2.54832 9.15486 2.5 9.03822 2.5 8.91659C2.5 8.79497 2.54832 8.67833 2.63432 8.59232C2.72032 8.50632 2.83696 8.45801 2.95859 8.45801C3.08021 8.45801 3.19686 8.50632 3.28286 8.59232L6.16692 11.477L13.176 4.46732C13.262 4.38132 13.3786 4.33301 13.5003 4.33301C13.6219 4.33301 13.7385 4.38132 13.8245 4.46732C13.9105 4.55333 13.9588 4.66997 13.9588 4.7916C13.9588 4.91322 13.9105 5.02986 13.8245 5.11587Z" fill="white"/>
</svg>
