<svg width="38" height="38" viewBox="0 0 38 38" fill="none" xmlns="http://www.w3.org/2000/svg">
<path d="M19 17.3996C20.3462 17.3996 21.4375 16.3251 21.4375 14.9996C21.4375 13.6741 20.3462 12.5996 19 12.5996C17.6538 12.5996 16.5625 13.6741 16.5625 14.9996C16.5625 16.3251 17.6538 17.3996 19 17.3996Z" fill="#886A44"/>
<path d="M19 3C15.5746 2.99983 12.2875 4.33081 9.85327 6.70365C7.419 9.0765 6.03425 12.2994 6 15.672C6 24.4399 17.4563 34.1999 17.9438 34.6159C18.2381 34.8638 18.6127 35 19 35C19.3873 35 19.7619 34.8638 20.0562 34.6159C20.625 34.1999 32 24.4399 32 15.672C31.9657 12.2994 30.581 9.0765 28.1467 6.70365C25.7125 4.33081 22.4254 2.99983 19 3ZM19 20.5999C17.8751 20.5999 16.7755 20.2715 15.8402 19.6562C14.9049 19.0408 14.1759 18.1662 13.7454 17.143C13.315 16.1197 13.2023 14.9937 13.4218 13.9075C13.6412 12.8212 14.1829 11.8233 14.9783 11.0402C15.7737 10.257 16.7872 9.72366 17.8904 9.50758C18.9937 9.2915 20.1373 9.4024 21.1765 9.82625C22.2158 10.2501 23.104 10.9679 23.729 11.8888C24.3539 12.8097 24.6875 13.8924 24.6875 15C24.6875 16.4852 24.0883 17.9095 23.0217 18.9597C21.9551 20.0099 20.5084 20.5999 19 20.5999Z" fill="#886A44"/>
</svg>
