<svg width="61" height="58" viewBox="0 0 61 58" fill="none" xmlns="http://www.w3.org/2000/svg">
<g clip-path="url(#clip0_992_7594)">
<path d="M8.9465 49.5184C14.7065 54.9884 22.3605 57.9954 30.4994 57.9954C38.6384 57.9954 46.2946 54.9838 52.0535 49.5184C57.8124 44.053 61 36.7536 61 29.0006C61 21.2475 57.8228 13.9596 52.0535 8.47702C46.2842 2.99445 38.6395 0 30.4994 0C22.3593 0 14.7054 3.01163 8.9465 8.47702C3.18761 13.9424 0 21.2464 0 29.0006C0 36.7548 3.17724 44.0404 8.9465 49.5184ZM30.4994 1.60376C46.4259 1.60376 59.3872 13.8931 59.3872 29.0006C59.3872 44.108 46.4259 56.3962 30.4994 56.3962C14.5729 56.3962 1.61281 44.1034 1.61281 29.0006C1.61281 13.8977 14.5718 1.60376 30.4994 1.60376Z" fill="#A3784E" stroke="#FAF5F0" stroke-width="0.5"/>
<path d="M12.8149 41.6725L12.9404 41.8157C15.0753 44.3934 18.0883 46.1011 21.4066 46.6142C24.7249 47.1272 28.1171 46.4097 30.9383 44.5982L30.9682 44.5787L30.9889 44.5616L31.0166 44.5432C34.8041 41.8672 37.7528 38.1801 39.5219 33.908C39.562 33.8102 39.5823 33.7056 39.5817 33.6C39.5811 33.4944 39.5596 33.3899 39.5184 33.2926C39.4772 33.1953 39.4172 33.1069 39.3417 33.0327C39.2662 32.9584 39.1767 32.8997 39.0783 32.8598C38.98 32.82 38.8747 32.7998 38.7685 32.8003C38.6624 32.8009 38.5573 32.8223 38.4594 32.8633C38.3616 32.9042 38.2727 32.964 38.1981 33.039C38.1234 33.1141 38.0643 33.2031 38.0243 33.3009C36.4453 37.1192 33.8547 40.4404 30.5281 42.9108C27.2182 40.4364 24.6434 37.1173 23.0769 33.3055C22.996 33.108 22.8394 32.9506 22.6418 32.8679C22.4441 32.7851 22.2215 32.7839 22.0229 32.8644C21.8243 32.9449 21.666 33.1006 21.5828 33.2972C21.4996 33.4937 21.4984 33.7151 21.5793 33.9126C23.1766 37.8004 25.7558 41.2127 29.0674 43.8193C26.6109 45.0887 23.7903 45.4803 21.0781 44.9282C18.366 44.3762 15.9269 42.9142 14.1696 40.787C14.1639 40.7808 14.1585 40.7743 14.1535 40.7675L14.0383 40.6301C11.3265 37.2232 9.89106 33.1703 9.89106 28.9077C9.89106 18.1396 19.1325 9.37849 30.4924 9.37849C41.8524 9.37849 51.0949 18.1396 51.0949 28.9077C51.0949 36.7891 46.1413 43.8571 38.4758 46.9145C38.3775 46.9537 38.2879 47.0118 38.2121 47.0854C38.1364 47.159 38.0759 47.2468 38.0343 47.3436C37.9501 47.5392 37.9475 47.76 38.0271 47.9575C38.1067 48.155 38.262 48.313 38.4587 48.3966C38.6554 48.4803 38.8774 48.4829 39.076 48.4037C47.3567 45.1011 52.7078 37.4489 52.7078 28.9089C52.7078 17.2564 42.7417 7.77588 30.4924 7.77588C18.2431 7.77588 8.28516 17.2552 8.28516 28.9077C8.28516 33.5414 9.84267 37.9449 12.7895 41.6416L12.8149 41.6725Z" fill="#A3784E" stroke="#FAF5F0" stroke-width="0.5"/>
</g>
<defs>
<clipPath id="clip0_992_7594">
<rect width="61" height="58" fill="white"/>
</clipPath>
</defs>
</svg>
