<svg width="354" height="196" viewBox="0 0 354 196" fill="none" xmlns="http://www.w3.org/2000/svg">
<path d="M143.789 46.8258L143.665 46.7137L138.695 51.4819L139.155 52.0297C142.51 55.9264 148.548 58.8396 155.717 60.0223H155.804L162.426 53.3867H162.028C154.822 53.2 148.026 50.7474 143.839 46.8382M189.474 25.9353L214.323 1.27265H204.495L174.59 30.7409C171.012 29.0931 167.306 27.744 163.507 26.7072C155.642 24.3169 148.846 22.2627 148.846 16.4985C148.846 11.3568 154.04 8.04524 162.078 8.04524C166.721 8.10116 171.29 9.22117 175.434 11.3195L175.559 11.3817L180.665 6.26495L180.504 6.14045C175.745 2.67946 167.806 0.861816 162.426 0.861816C149.095 0.861816 140.807 6.77538 140.807 16.2993C140.807 27.118 151.393 30.4047 160.687 33.3055C166.775 35.1978 172.515 37.0404 174.863 40.5512L174.975 40.7254L183.672 32.0979L205.464 59.238L205.576 59.375H215.392L189.474 25.9353Z" fill="#896E4B"/>
<path d="M58.7817 158.972C47.5997 158.972 39.2256 165.657 39.2256 174.509C39.2256 183.36 47.4506 190.096 58.7817 190.096C70.1128 190.096 78.3502 183.423 78.3502 174.571C78.3502 165.719 70.1128 158.972 58.7817 158.972ZM72.8586 174.534C72.8586 181.207 66.9446 186.05 58.7817 186.05C50.8922 186.05 44.7048 180.995 44.7048 174.534C44.7048 167.861 50.6312 163.018 58.7817 163.018C66.9321 163.018 72.8586 167.998 72.8586 174.534Z" fill="#896E4B"/>
<path d="M92.1785 159.42L91.6194 165.645C90.8367 174.359 89.1346 185.913 83.0093 185.427H82.6738V189.361V189.648H82.9596C83.469 189.648 83.9411 189.722 84.4008 189.722C91.2591 189.722 94.7628 183.647 96.5147 168.745L97.1359 163.454H110.853V189.598H116.071V159.42H92.1785Z" fill="#896E4B"/>
<path d="M133.067 159.42L132.508 165.645C130.868 183.871 126.793 185.664 123.898 185.427H123.562V189.361V189.648H123.848C124.345 189.648 124.83 189.722 125.289 189.722C132.135 189.722 135.652 183.647 137.403 168.745L138.012 163.454H151.791V189.598H157.009V159.42H133.067Z" fill="#896E4B"/>
<path d="M172.192 185.626V175.679H189.387V171.658H172.192V163.441H193.773V159.42H166.974V189.635H194.307V185.626H172.192Z" fill="#896E4B"/>
<path d="M270.481 185.626V159.42H265.263V185.626H245.682V159.42H240.464V189.635H272.73V195.138H277.688V185.626H270.481Z" fill="#896E4B"/>
<path d="M352.608 158.772C351.564 158.772 350.123 158.772 348.632 158.772H348.495C346.656 158.772 344.37 158.673 342.283 158.673C330.355 158.673 326.131 164.076 326.131 169.131C326.131 170.575 326.715 175.442 334.269 177.92L325.112 189.884H331.101L339.487 178.679H348.11V189.884H353.08V158.772H352.608ZM348.11 162.707V174.621H338.854C335.126 174.198 331.325 171.932 331.325 168.869C331.325 164.972 335.363 162.545 341.86 162.545C343.985 162.545 346.135 162.632 347.725 162.682L348.11 162.707Z" fill="#896E4B"/>
<path d="M290.05 181.082V159.731H284.832V190.718L312.476 168.732V189.947H317.695V158.959L290.05 181.082Z" fill="#896E4B"/>
<path d="M54.1714 132.317V110.954H48.9531V141.941L76.5976 119.955V141.169H81.8158V110.182L54.1714 132.317Z" fill="#896E4B"/>
<path d="M135.825 132.317V110.954H130.619V141.941L158.264 119.955V141.169H163.469V110.182L135.825 132.317Z" fill="#896E4B"/>
<path d="M105.522 122.27C103.708 122.27 101.025 122.27 98.8628 122.469V114.265H116.63V110.306H93.8682V141.343H94.3527C95.4088 141.343 96.7382 141.343 98.2664 141.418C100.217 141.418 102.404 141.517 104.615 141.517C115.189 141.517 121.016 137.969 121.016 131.558C121.016 125.594 115.499 122.308 105.485 122.308M116.058 131.583C116.058 135.517 112.331 137.509 105.087 137.509C103.708 137.509 102.404 137.509 101.248 137.509H98.8628V126.428C101.683 126.254 104.392 126.229 105.162 126.229C110.132 126.229 116.058 127.188 116.058 131.695" fill="#896E4B"/>
<path d="M185.201 110.418H179.746C177.845 110.418 175.882 110.418 174.776 110.418H174.466V141.169H179.113V129.964C181.138 130.064 183.548 130.126 185.437 130.126C196.619 130.126 200.582 124.984 200.582 120.166C200.582 115.685 197.911 110.344 185.225 110.344M195.712 120.166C195.712 124.125 191.786 126.491 185.225 126.491C183.175 126.491 181.25 126.379 179.212 126.279H179.113V114.079C180.877 114.079 183.971 113.979 185.586 113.979C192.208 113.979 195.712 116.12 195.712 120.204" fill="#896E4B"/>
<path d="M237.606 134.272C234.739 136.604 231.121 137.808 227.431 137.658C224.863 137.694 222.319 137.167 219.976 136.114C217.901 135.214 216.104 133.774 214.77 131.944C213.558 130.225 212.908 128.172 212.908 126.067C212.908 123.963 213.558 121.91 214.77 120.191C216.104 118.361 217.901 116.921 219.976 116.021C222.319 114.967 224.863 114.441 227.431 114.477C231.117 114.339 234.73 115.527 237.619 117.826L238.054 118.187L241.483 115.398L240.924 114.888C239.178 113.364 237.134 112.224 234.923 111.539C232.464 110.761 229.897 110.379 227.319 110.406C223.901 110.356 220.512 111.04 217.379 112.41C214.575 113.604 212.148 115.541 210.36 118.013C208.693 120.381 207.799 123.207 207.799 126.105C207.799 129.002 208.693 131.829 210.36 134.197C212.144 136.663 214.561 138.598 217.355 139.799C220.486 141.175 223.876 141.858 227.294 141.804C229.881 141.825 232.456 141.439 234.923 140.658C237.139 139.956 239.19 138.808 240.949 137.285L241.508 136.774L238.066 133.936L237.606 134.272Z" fill="#896E4B"/>
<path d="M302.114 110.418L301.99 110.219L283.713 140.671L283.428 141.144H289.242L293.926 132.902H310.078L314.936 141.082H320.974L302.114 110.418ZM307.693 128.894H296.237L301.89 119.133L307.693 128.894Z" fill="#896E4B"/>
<path d="M352.607 110.306C351.539 110.306 350.122 110.306 348.532 110.231H348.383C346.47 110.231 344.295 110.132 342.307 110.132C330.38 110.132 326.156 115.535 326.156 120.59C326.156 122.034 326.739 126.901 334.294 129.379L325.137 141.343H331.125L339.512 130.138H348.134V141.343H353.104V110.306H352.607ZM348.11 114.24V126.167H338.853C335.126 125.744 331.324 123.478 331.324 120.415C331.324 116.518 335.362 114.091 341.86 114.091C344.022 114.091 346.159 114.178 347.737 114.228L348.11 114.24Z" fill="#896E4B"/>
<path d="M22.1789 119.955C14.8981 117.888 8.02742 115.909 8.02742 110.12C8.02742 105.14 13.1463 102.028 21.0731 102.028C25.4465 102.028 31.783 103.111 35.2618 106.186L36.0694 106.908L38.778 103.447L38.1816 102.812C34.7152 99.3259 26.9996 97.4585 21.421 97.4585C10.239 97.4585 2.95824 102.438 2.95824 110.12C2.95824 119.096 11.8666 121.698 20.4892 124.213C28.0308 126.416 35.1624 128.508 35.1624 134.658C35.1624 140.447 28.5029 143.485 21.918 143.485C13.0345 143.485 7.79136 140.472 4.95858 137.957L4.25038 137.335L0.908203 140.497L1.60397 141.231C5.64192 145.502 13.2084 148.054 21.8683 148.054C32.5036 148.054 40.2192 142.464 40.2192 134.758C40.2192 125.122 30.6399 122.383 22.1789 119.955Z" fill="#896E4B"/>
<path d="M249.584 110.605H254.206V127.686L271.501 110.605H277.464L264.555 123.528L278.334 141.169H272.557L261.176 126.765L254.206 133.487V141.169H249.584V110.605Z" fill="#896E4B"/>
<path d="M7.23242 159.458H11.8667V176.289L29.1616 159.458H35.1129L22.2163 172.193L35.9951 189.586H30.2177L18.8369 175.381L11.8667 182.016V189.586H7.23242V159.458Z" fill="#896E4B"/>
<path d="M203.601 159.458H208.222V176.289L225.53 159.458H231.481L218.572 172.193L232.351 189.586H226.573L215.193 175.381L208.222 182.016V189.586H203.601V159.458Z" fill="#896E4B"/>
</svg>
